<svg id="Layer_1" data-name="Layer 1" xmlns="http://www.w3.org/2000/svg" viewBox="0 0 960 650.33"><defs><style>.cls-1{fill:#faf5e1;}.cls-2{fill:#34495e;}.cls-3{fill:#d4ecff;}.cls-4,.cls-5{fill:none;stroke:#2c3e50;stroke-miterlimit:10;}.cls-5{stroke-width:2px;}.cls-6{fill:#e74c3c;}.cls-7{fill:#fff;}.cls-8{fill:#2c3e50;}</style></defs><title>kubernetes_arch</title><rect class="cls-1" x="314.07" y="46.14" width="369.31" height="65.66"/><path class="cls-2" d="M392.08,63.93c0-1.14,0-2.44,0-3.41h4.13c0.05,0.39.1,1.2,0.13,1.74a4.92,4.92,0,0,1,4.47-2.11c3.3,0,5.25,2.05,5.25,5.51V74h-4.29V66.34c0-1.53-.6-2.89-2.5-2.89s-2.91,1.38-2.91,3.8V74h-4.26v-10Z"/><path class="cls-2" d="M424,72.46c0,4.84-2.11,7.54-7.8,7.54-6,0-7-3.3-7.25-4.78h4.29c0.31,0.86,1,1.64,3.2,1.64,2.76,0,3.38-1.77,3.38-4.06V72.22c-0.78,1.09-1.87,1.9-4.47,1.9a6.44,6.44,0,0,1-6.5-6.71,6.92,6.92,0,0,1,6.84-7.25c2.81,0,3.8,1.12,4.13,1.87,0-.47.05-1.17,0.08-1.51H424c0,1.33,0,2.65,0,4v8Zm-7.49-1.59c2.16,0,3.38-1.27,3.38-3.74,0-2.18-1.12-3.67-3.25-3.67s-3.46,1.66-3.46,3.8A3.3,3.3,0,0,0,416.52,70.87Z"/><path class="cls-2" d="M427.7,58V54.59h4.24V58H427.7Zm0,2.52h4.24V74H427.7V60.52Z"/><path class="cls-2" d="M435.52,63.93c0-1.14,0-2.44,0-3.41h4.13c0.05,0.39.1,1.2,0.13,1.74a4.92,4.92,0,0,1,4.47-2.11c3.3,0,5.25,2.05,5.25,5.51V74h-4.29V66.34c0-1.53-.6-2.89-2.5-2.89s-2.91,1.38-2.91,3.8V74h-4.26v-10Z"/><path class="cls-2" d="M456,60.52c1.66,2.11,2.83,3.54,3.28,4.13h0.05c0.6-.83,1.69-2.24,3.15-4.13H467l-5.38,6.42,5.64,7h-4.81c-1.66-2.18-2.83-3.61-3.35-4.32H459c-0.44.57-1.48,1.9-3.33,4.32h-4.52l5.46-6.81-5.54-6.63H456Z"/><path class="cls-2" d="M476.86,65.56V69.1h-8.68V65.56h8.68Z"/><path class="cls-2" d="M483.18,69.83c0.34,1,1.22,1.59,3,1.59s2.31-.55,2.31-1.2-0.57-1.12-3.28-1.48c-5.12-.73-5.82-2.6-5.82-4.24,0-2.05,1.53-4.34,6.21-4.34s6.4,2.24,6.58,4.16h-4.16c-0.21-.62-0.68-1.35-2.57-1.35-1.61,0-1.9.62-1.9,1.09S484,65,486.53,65.33c5.46,0.83,6.16,2.65,6.16,4.52,0,2.44-1.85,4.47-6.76,4.47-3.67,0-6.55-1.56-7-4.5h4.21Z"/><path class="cls-2" d="M498.78,69.83c0.34,1,1.22,1.59,3,1.59s2.31-.55,2.31-1.2-0.57-1.12-3.28-1.48C495.74,68,495,66.14,495,64.5c0-2.05,1.53-4.34,6.21-4.34s6.4,2.24,6.58,4.16h-4.16C503.46,63.69,503,63,501.09,63c-1.61,0-1.9.62-1.9,1.09s0.44,0.91,2.94,1.27c5.46,0.83,6.16,2.65,6.16,4.52,0,2.44-1.85,4.47-6.76,4.47-3.67,0-6.55-1.56-7-4.5h4.21Z"/><path class="cls-2" d="M510.82,74V54.59h4.24V74h-4.24Z"/><path class="cls-2" d="M526.86,65.56V69.1h-8.68V65.56h8.68Z"/><path class="cls-2" d="M530,79.63V63.82c0-1.09,0-2.21,0-3.3h4.16a14.22,14.22,0,0,1,.1,1.74c0.75-1.12,2.11-2.11,4.68-2.11A6.48,6.48,0,0,1,545.24,67c0,4.68-3.35,7.36-6.86,7.36a5,5,0,0,1-4.13-1.66v7H530Zm7.54-16.17c-2.47,0-3.41,1.59-3.41,3.8S535.31,71,537.49,71s3.38-1.51,3.38-3.77C540.87,65.23,539.75,63.46,537.54,63.46Z"/><path class="cls-2" d="M548.07,64.19c0-1.22,0-2.44,0-3.67h4.13c0.08,0.49.13,2,.13,2.7a5.07,5.07,0,0,1,5.17-3v3.87c-3-.05-5.17,1.17-5.17,5V74h-4.24V64.19Z"/><path class="cls-2" d="M574.44,67.23c0,4.13-2.86,7.1-7.85,7.1S559,71,559,67.23s2.65-7.07,7.72-7.07C572,60.16,574.44,63.9,574.44,67.23Zm-11.1,0c0,2.11,1.17,3.9,3.38,3.9s3.35-1.77,3.35-3.82-1-3.93-3.38-3.93S563.33,65.17,563.33,67.23Z"/><path class="cls-2" d="M579.92,60.52c1.66,2.11,2.83,3.54,3.28,4.13h0.05c0.6-.83,1.69-2.24,3.15-4.13h4.52l-5.38,6.42,5.64,7h-4.81c-1.66-2.18-2.83-3.61-3.35-4.32H583c-0.44.57-1.48,1.9-3.33,4.32h-4.52l5.46-6.81L575,60.52h4.89Z"/><path class="cls-2" d="M595.89,60.52a105.62,105.62,0,0,1,3.56,10h0.08c0.36-1.33,1.4-4.89,3.22-10h4.34L602.59,72c-2.31,6-3,8-7.62,8a13,13,0,0,1-2.08-.16V76.41c0.62,0.05.94,0.08,1.35,0.08,1.85,0,2.26-.6,3-2l-6-14h4.65Z"/><path class="cls-2" d="M357.56,95.13c0,2.24.95,3.92,2.9,3.92A2.56,2.56,0,0,0,363,97.22h1.78a4.26,4.26,0,0,1-4.44,3.37c-3.48,0-4.67-2.75-4.67-5.83,0-2.75,1.34-5.76,4.77-5.76s4.51,2.73,4.51,5.3v0.84h-7.44Zm5.63-1.32c0-1.91-.81-3.34-2.75-3.34-2.2,0-2.73,2-2.84,3.34h5.59Z"/><path class="cls-2" d="M368,89.21c1.45,2.44,2.16,3.59,2.51,4.22h0c0.44-.75,1.36-2.18,2.62-4.22h2l-3.56,5.35,3.59,5.81h-2.09c-1.28-2.16-2.2-3.67-2.62-4.4h0c-0.33.62-1.3,2.29-2.6,4.4h-2l3.54-5.54-3.43-5.61H368Z"/><path class="cls-2" d="M376,89.21h1.78V86h1.83v3.23h2.24v1.5h-2.24v7c0,0.95.24,1.34,1.19,1.34a4.91,4.91,0,0,0,.86-0.09v1.39a4.86,4.86,0,0,1-1.45.18c-1.63,0-2.42-.62-2.42-2.46V90.7H376v-1.5Z"/><path class="cls-2" d="M384.84,95.13c0,2.24.95,3.92,2.9,3.92a2.56,2.56,0,0,0,2.57-1.83h1.78a4.26,4.26,0,0,1-4.44,3.37c-3.48,0-4.67-2.75-4.67-5.83C383,92,384.34,89,387.77,89s4.51,2.73,4.51,5.3v0.84h-7.44Zm5.63-1.32c0-1.91-.81-3.34-2.75-3.34-2.2,0-2.73,2-2.84,3.34h5.59Z"/><path class="cls-2" d="M394.7,93c0-1.78,0-3.23,0-3.78h1.78c0,0.53,0,1.23,0,2.27A3.74,3.74,0,0,1,400.09,89V90.9c-2.51.09-3.56,1.56-3.56,4v5.48H394.7V93Z"/><path class="cls-2" d="M401.87,92.71c0-2.33,0-3,0-3.5h1.78a13.24,13.24,0,0,1,.07,1.74,3.42,3.42,0,0,1,3.3-2c2.07,0,3.54,1.17,3.54,4.18v7.19h-1.83V93.45c0-1.63-.55-2.86-2.22-2.86-2,0-2.77,1.47-2.77,3.81v6h-1.83V92.71Z"/><path class="cls-2" d="M421.36,97.88a21,21,0,0,0,.15,2.49h-1.65a10.16,10.16,0,0,1-.15-1.72,3.32,3.32,0,0,1-3.39,1.91,3.2,3.2,0,0,1-3.54-3.39c0-1.67,1.08-3.54,5.06-3.54h1.72V92.55c0-1.06-.31-2.16-2.2-2.16a2,2,0,0,0-2.35,2h-1.78c0.15-1.87,1.23-3.39,4.2-3.39,2.33,0,3.94.95,3.94,3.48v5.41ZM419.6,95h-1.76c-2.71,0-3.21,1.1-3.21,2.11a1.89,1.89,0,0,0,2.07,2c2.2,0,2.9-1.5,2.9-3.87V95Z"/><path class="cls-2" d="M424.58,100.36v-16h1.83v16h-1.83Z"/><path class="cls-2" d="M435,100.36v-16h1.83v16H435Z"/><path class="cls-2" d="M449.13,94.6c0,3.23-1.41,6-5,6s-4.84-2.84-4.84-5.9,1.61-5.68,5-5.68C447.43,89,449.13,91.39,449.13,94.6Zm-7.94,0c0,2.55,1.06,4.4,3.06,4.4s3-1.8,3-4.42c0-2.44-1-4.11-3-4.11S441.18,92.2,441.18,94.64Z"/><path class="cls-2" d="M459.4,97.88a21,21,0,0,0,.15,2.49h-1.65a10.16,10.16,0,0,1-.15-1.72,3.32,3.32,0,0,1-3.39,1.91,3.2,3.2,0,0,1-3.54-3.39c0-1.67,1.08-3.54,5.06-3.54h1.72V92.55c0-1.06-.31-2.16-2.2-2.16a2,2,0,0,0-2.35,2h-1.78c0.15-1.87,1.23-3.39,4.2-3.39,2.33,0,3.94.95,3.94,3.48v5.41ZM457.64,95h-1.76c-2.71,0-3.21,1.1-3.21,2.11a1.89,1.89,0,0,0,2.07,2c2.2,0,2.9-1.5,2.9-3.87V95Z"/><path class="cls-2" d="M471.28,84.34V97.46c0,1.08,0,2.22,0,2.9h-1.78c0-.29-0.07-1-0.07-1.65-0.59,1.3-1.5,1.85-3.32,1.85-2.88,0-4.33-2.44-4.33-5.77S463.49,89,466.53,89c1.8,0,2.64.73,2.95,1.34v-6h1.8ZM466.64,99c2.4,0,2.9-1.83,2.9-4.44,0-3.08-.9-4-2.79-4s-3,1.5-3,4.16S464.88,99,466.64,99Z"/><path class="cls-2" d="M479.93,84.34h1.83v6.4A3.58,3.58,0,0,1,485.1,89c2.71,0,4.29,2.22,4.29,5.46,0,3.39-1.43,6.12-4.62,6.12a3.07,3.07,0,0,1-3-1.61,10,10,0,0,1-.07,1.41h-1.78c0-.62,0-1.78,0-3.17V84.34Zm4.73,6.23c-2.22,0-3,1.43-3,4.07S482.28,99,484.59,99c2,0,2.93-1.85,2.93-4.47C487.52,92.16,486.57,90.57,484.66,90.57Z"/><path class="cls-2" d="M499.66,97.88a20.94,20.94,0,0,0,.15,2.49h-1.65a10.16,10.16,0,0,1-.15-1.72,3.31,3.31,0,0,1-3.39,1.91,3.2,3.2,0,0,1-3.54-3.39c0-1.67,1.08-3.54,5.06-3.54h1.72V92.55c0-1.06-.31-2.16-2.2-2.16a2,2,0,0,0-2.35,2h-1.78c0.15-1.87,1.23-3.39,4.2-3.39,2.33,0,3.94.95,3.94,3.48v5.41ZM497.9,95h-1.76c-2.71,0-3.21,1.1-3.21,2.11a1.89,1.89,0,0,0,2.07,2c2.2,0,2.9-1.5,2.9-3.87V95Z"/><path class="cls-2" d="M502.87,100.36v-16h1.83v16h-1.83Z"/><path class="cls-2" d="M515.68,97.88a21,21,0,0,0,.15,2.49h-1.65a10.16,10.16,0,0,1-.15-1.72,3.32,3.32,0,0,1-3.39,1.91,3.2,3.2,0,0,1-3.54-3.39c0-1.67,1.08-3.54,5.06-3.54h1.72V92.55c0-1.06-.31-2.16-2.2-2.16a2,2,0,0,0-2.35,2h-1.78c0.15-1.87,1.23-3.39,4.2-3.39,2.33,0,3.94.95,3.94,3.48v5.41ZM513.92,95h-1.76c-2.71,0-3.21,1.1-3.21,2.11a1.89,1.89,0,0,0,2.07,2c2.2,0,2.9-1.5,2.9-3.87V95Z"/><path class="cls-2" d="M518.89,92.71c0-2.33,0-3,0-3.5h1.78a13.24,13.24,0,0,1,.07,1.74,3.42,3.42,0,0,1,3.3-2c2.07,0,3.54,1.17,3.54,4.18v7.19h-1.83V93.45c0-1.63-.55-2.86-2.22-2.86-2,0-2.77,1.47-2.77,3.81v6h-1.83V92.71Z"/><path class="cls-2" d="M539.19,96.8a4.29,4.29,0,0,1-4.49,3.78c-3.12,0-4.71-2.09-4.71-5.81,0-3.23,1.63-5.79,4.82-5.79a4.08,4.08,0,0,1,4.36,3.89h-1.83a2.51,2.51,0,0,0-2.55-2.4c-2,0-2.93,1.78-2.93,4.25,0,2.86,1,4.36,2.9,4.36,1.54,0,2.2-1,2.6-2.29h1.83Z"/><path class="cls-2" d="M542.71,95.13c0,2.24.95,3.92,2.9,3.92a2.56,2.56,0,0,0,2.57-1.83H550a4.26,4.26,0,0,1-4.44,3.37c-3.48,0-4.67-2.75-4.67-5.83,0-2.75,1.34-5.76,4.77-5.76s4.51,2.73,4.51,5.3v0.84h-7.44Zm5.63-1.32c0-1.91-.81-3.34-2.75-3.34-2.2,0-2.73,2-2.84,3.34h5.59Z"/><path class="cls-2" d="M552.57,93c0-1.78,0-3.23,0-3.78h1.78c0,0.53,0,1.23,0,2.27A3.74,3.74,0,0,1,558,89V90.9c-2.51.09-3.56,1.56-3.56,4v5.48h-1.83V93Z"/><path class="cls-2" d="M569.86,84.34A16,16,0,0,0,566.6,94a16.68,16.68,0,0,0,3.26,10H568a16.8,16.8,0,0,1-3.12-10A16.52,16.52,0,0,1,568,84.34h1.83Z"/><path class="cls-2" d="M572.68,97.13a2.3,2.3,0,0,0,2.51,2c1.54,0,2.13-.81,2.13-1.76s-0.7-1.54-2.6-2c-2.73-.75-3.43-1.74-3.43-3.23s1-3.1,3.74-3.1,3.74,1.5,3.89,3.21h-1.8a2,2,0,0,0-2.18-1.78c-1.25,0-1.83.59-1.83,1.52s0.42,1.3,2.29,1.78c2.84,0.77,3.74,1.72,3.74,3.5,0,2.07-1.63,3.34-4,3.34s-4-1.1-4.25-3.43h1.8Z"/><path class="cls-2" d="M582.73,95.13c0,2.24.95,3.92,2.9,3.92a2.56,2.56,0,0,0,2.58-1.83H590a4.26,4.26,0,0,1-4.45,3.37c-3.48,0-4.66-2.75-4.66-5.83,0-2.75,1.34-5.76,4.77-5.76s4.51,2.73,4.51,5.3v0.84h-7.44Zm5.63-1.32c0-1.91-.81-3.34-2.75-3.34-2.2,0-2.73,2-2.84,3.34h5.59Z"/><path class="cls-2" d="M592.58,93c0-1.78,0-3.23,0-3.78h1.78c0,0.53,0,1.23,0,2.27A3.74,3.74,0,0,1,598,89V90.9c-2.51.09-3.56,1.56-3.56,4v5.48h-1.83V93Z"/><path class="cls-2" d="M601.17,89.21c1.5,4.73,2.49,7.86,2.84,9.42h0c0.22-1.32,2.16-7,2.95-9.42h1.8l-3.85,11.16h-2l-3.72-11.16h2Z"/><path class="cls-2" d="M610.6,86.7V84.34h1.83V86.7H610.6Zm0,2.51h1.83v11.16H610.6V89.21Z"/><path class="cls-2" d="M624.09,96.8a4.29,4.29,0,0,1-4.49,3.78c-3.12,0-4.71-2.09-4.71-5.81,0-3.23,1.63-5.79,4.82-5.79a4.08,4.08,0,0,1,4.36,3.89h-1.83a2.51,2.51,0,0,0-2.55-2.4c-2,0-2.93,1.78-2.93,4.25,0,2.86,1,4.36,2.9,4.36,1.54,0,2.2-1,2.6-2.29h1.83Z"/><path class="cls-2" d="M627.61,95.13c0,2.24.95,3.92,2.9,3.92a2.56,2.56,0,0,0,2.58-1.83h1.78a4.26,4.26,0,0,1-4.45,3.37c-3.48,0-4.66-2.75-4.66-5.83,0-2.75,1.34-5.76,4.77-5.76s4.51,2.73,4.51,5.3v0.84h-7.44Zm5.63-1.32c0-1.91-.81-3.34-2.75-3.34-2.2,0-2.73,2-2.84,3.34h5.59Z"/><path class="cls-2" d="M636.45,104a16,16,0,0,0,3.26-9.68,16.88,16.88,0,0,0-3.26-10h1.83a17,17,0,0,1,3.12,10,16.62,16.62,0,0,1-3.12,9.66h-1.83Z"/><rect class="cls-1" x="314.07" y="276.28" width="369.31" height="65.66"/><path class="cls-2" d="M456.41,296.46c1.33-1.4,4.06-4,5.75-5.8h5l-5.67,5.15,6.24,8.29h-5.12l-4.11-5.93L456.41,300v4.11h-4.24V284.74h4.24v11.73Z"/><path class="cls-2" d="M472.27,298.41a3,3,0,0,0,3.3,2.91,2.86,2.86,0,0,0,2.83-1.33h4.26c-0.83,2.39-2.83,4.47-7.15,4.47-5.51,0-7.49-3.64-7.49-7.07,0-3.77,2.55-7.1,7.46-7.1,5.23,0,7.33,3.61,7.33,7.1,0,0.34,0,.6,0,1H472.27Zm6.24-2.6c-0.08-1-.62-2.52-3-2.52-2.21,0-3,1.2-3.15,2.52h6.19Z"/><path class="cls-2" d="M489.17,298.41a3,3,0,0,0,3.3,2.91,2.86,2.86,0,0,0,2.83-1.33h4.26c-0.83,2.39-2.83,4.47-7.15,4.47-5.51,0-7.49-3.64-7.49-7.07,0-3.77,2.55-7.1,7.46-7.1,5.23,0,7.33,3.61,7.33,7.1,0,0.34,0,.6,0,1H489.17Zm6.24-2.6c-0.08-1-.62-2.52-3-2.52-2.21,0-3,1.2-3.15,2.52h6.19Z"/><path class="cls-2" d="M502.46,309.77V294c0-1.09,0-2.21,0-3.3h4.16a14.22,14.22,0,0,1,.1,1.74c0.75-1.12,2.11-2.11,4.68-2.11a6.48,6.48,0,0,1,6.32,6.81c0,4.68-3.35,7.36-6.86,7.36a5,5,0,0,1-4.13-1.66v7h-4.24ZM510,293.6c-2.47,0-3.41,1.59-3.41,3.8s1.17,3.72,3.35,3.72,3.38-1.51,3.38-3.77C513.33,295.37,512.21,293.6,510,293.6Z"/><path class="cls-2" d="M524,298.41a3,3,0,0,0,3.3,2.91,2.86,2.86,0,0,0,2.83-1.33h4.26c-0.83,2.39-2.83,4.47-7.15,4.47-5.51,0-7.49-3.64-7.49-7.07,0-3.77,2.55-7.1,7.46-7.1,5.23,0,7.33,3.61,7.33,7.1,0,0.34,0,.6,0,1H524Zm6.24-2.6c-0.08-1-.62-2.52-3-2.52-2.21,0-3,1.2-3.15,2.52h6.19Z"/><path class="cls-2" d="M537.24,294.33c0-1.22,0-2.44,0-3.67h4.13c0.08,0.49.13,2,.13,2.7a5.07,5.07,0,0,1,5.17-3v3.87c-3-.05-5.17,1.17-5.17,5v4.91h-4.24v-9.78Z"/><path class="cls-2" d="M358.55,316.84v-2.35h1.83v2.35h-1.83Zm0,2.51h1.83v11.16h-1.83V319.35Z"/><path class="cls-2" d="M363.59,322.85c0-2.33,0-3,0-3.5h1.78a13.32,13.32,0,0,1,.07,1.74,3.42,3.42,0,0,1,3.3-2c2.07,0,3.54,1.17,3.54,4.18v7.2h-1.83V323.6c0-1.63-.55-2.86-2.22-2.86-2,0-2.77,1.47-2.77,3.81v6h-1.83v-7.66Z"/><path class="cls-2" d="M373.86,319.35h1.78v-3.23h1.83v3.23h2.24v1.5h-2.24v7c0,0.95.24,1.34,1.19,1.34a4.91,4.91,0,0,0,.86-0.09v1.39a4.85,4.85,0,0,1-1.45.18c-1.63,0-2.42-.62-2.42-2.46v-7.33h-1.78v-1.5Z"/><path class="cls-2" d="M382.75,325.27c0,2.24.95,3.92,2.9,3.92a2.56,2.56,0,0,0,2.57-1.83H390a4.26,4.26,0,0,1-4.44,3.37c-3.48,0-4.67-2.75-4.67-5.83,0-2.75,1.34-5.76,4.77-5.76s4.51,2.73,4.51,5.3v0.84h-7.44Zm5.63-1.32c0-1.91-.81-3.34-2.75-3.34-2.2,0-2.73,2-2.84,3.34h5.59Z"/><path class="cls-2" d="M392.61,323.14c0-1.78,0-3.23,0-3.79h1.78c0,0.53,0,1.23,0,2.27a3.74,3.74,0,0,1,3.61-2.46V321c-2.51.09-3.56,1.56-3.56,4v5.48h-1.83v-7.37Z"/><path class="cls-2" d="M399.78,322.85c0-2.33,0-3,0-3.5h1.78a13.32,13.32,0,0,1,.07,1.74,3.42,3.42,0,0,1,3.3-2c2.07,0,3.54,1.17,3.54,4.18v7.2H406.6V323.6c0-1.63-.55-2.86-2.22-2.86-2,0-2.77,1.47-2.77,3.81v6h-1.83v-7.66Z"/><path class="cls-2" d="M419.27,328a21,21,0,0,0,.15,2.49h-1.65a10.16,10.16,0,0,1-.15-1.72,3.31,3.31,0,0,1-3.39,1.91,3.2,3.2,0,0,1-3.54-3.39c0-1.67,1.08-3.54,5.06-3.54h1.72V322.7c0-1.06-.31-2.16-2.2-2.16a2,2,0,0,0-2.35,2h-1.78c0.15-1.87,1.23-3.39,4.2-3.39,2.33,0,3.94.95,3.94,3.48V328Zm-1.76-2.93h-1.76c-2.71,0-3.21,1.1-3.21,2.11a1.89,1.89,0,0,0,2.07,2c2.2,0,2.9-1.5,2.9-3.87v-0.24Z"/><path class="cls-2" d="M422.48,330.51v-16h1.83v16h-1.83Z"/><path class="cls-2" d="M432.93,330.51v-16h1.83v16h-1.83Z"/><path class="cls-2" d="M447,324.74c0,3.23-1.41,6-5,6s-4.84-2.84-4.84-5.9,1.61-5.68,5-5.68C445.34,319.13,447,321.53,447,324.74Zm-7.94,0c0,2.55,1.06,4.4,3.06,4.4s3-1.8,3-4.42c0-2.44-1-4.11-3-4.11S439.09,322.34,439.09,324.79Z"/><path class="cls-2" d="M457.31,328a21,21,0,0,0,.15,2.49h-1.65a10.16,10.16,0,0,1-.15-1.72,3.31,3.31,0,0,1-3.39,1.91,3.2,3.2,0,0,1-3.54-3.39c0-1.67,1.08-3.54,5.06-3.54h1.72V322.7c0-1.06-.31-2.16-2.2-2.16a2,2,0,0,0-2.35,2h-1.78c0.15-1.87,1.23-3.39,4.2-3.39,2.33,0,3.94.95,3.94,3.48V328Zm-1.76-2.93h-1.76c-2.71,0-3.21,1.1-3.21,2.11a1.89,1.89,0,0,0,2.07,2c2.2,0,2.9-1.5,2.9-3.87v-0.24Z"/><path class="cls-2" d="M469.19,314.49V327.6c0,1.08,0,2.22,0,2.9h-1.78c0-.29-0.07-1-0.07-1.65-0.59,1.3-1.5,1.85-3.32,1.85-2.88,0-4.33-2.44-4.33-5.76s1.67-5.81,4.71-5.81c1.8,0,2.64.73,2.95,1.34v-6h1.8Zm-4.64,14.65c2.4,0,2.9-1.83,2.9-4.44,0-3.08-.9-4-2.79-4s-3,1.5-3,4.16S462.79,329.14,464.55,329.14Z"/><path class="cls-2" d="M477.83,314.49h1.83v6.4a3.58,3.58,0,0,1,3.34-1.76c2.71,0,4.29,2.22,4.29,5.46,0,3.39-1.43,6.12-4.62,6.12a3.07,3.07,0,0,1-3-1.61,10.17,10.17,0,0,1-.07,1.41h-1.78c0-.62,0-1.78,0-3.17V314.49Zm4.73,6.23c-2.22,0-3,1.43-3,4.07s0.64,4.33,2.95,4.33c2,0,2.93-1.85,2.93-4.47C485.43,322.3,484.48,320.71,482.57,320.71Z"/><path class="cls-2" d="M497.57,328a21,21,0,0,0,.15,2.49h-1.65a10.16,10.16,0,0,1-.15-1.72,3.32,3.32,0,0,1-3.39,1.91,3.2,3.2,0,0,1-3.54-3.39c0-1.67,1.08-3.54,5.06-3.54h1.72V322.7c0-1.06-.31-2.16-2.2-2.16a2,2,0,0,0-2.35,2h-1.78c0.15-1.87,1.23-3.39,4.2-3.39,2.33,0,3.94.95,3.94,3.48V328Zm-1.76-2.93H494c-2.71,0-3.21,1.1-3.21,2.11a1.89,1.89,0,0,0,2.07,2c2.2,0,2.9-1.5,2.9-3.87v-0.24Z"/><path class="cls-2" d="M500.78,330.51v-16h1.83v16h-1.83Z"/><path class="cls-2" d="M513.59,328a21,21,0,0,0,.15,2.49h-1.65a10.16,10.16,0,0,1-.15-1.72,3.31,3.31,0,0,1-3.39,1.91,3.2,3.2,0,0,1-3.54-3.39c0-1.67,1.08-3.54,5.06-3.54h1.72V322.7c0-1.06-.31-2.16-2.2-2.16a2,2,0,0,0-2.35,2h-1.78c0.15-1.87,1.23-3.39,4.2-3.39,2.33,0,3.94.95,3.94,3.48V328Zm-1.76-2.93h-1.76c-2.71,0-3.21,1.1-3.21,2.11a1.89,1.89,0,0,0,2.07,2c2.2,0,2.9-1.5,2.9-3.87v-0.24Z"/><path class="cls-2" d="M516.8,322.85c0-2.33,0-3,0-3.5h1.78a13.39,13.39,0,0,1,.07,1.74,3.42,3.42,0,0,1,3.3-2c2.07,0,3.54,1.17,3.54,4.18v7.2h-1.83V323.6c0-1.63-.55-2.86-2.22-2.86-2,0-2.77,1.47-2.77,3.81v6H516.8v-7.66Z"/><path class="cls-2" d="M537.1,326.94a4.29,4.29,0,0,1-4.49,3.78c-3.12,0-4.71-2.09-4.71-5.81,0-3.23,1.63-5.79,4.82-5.79a4.08,4.08,0,0,1,4.36,3.89h-1.83a2.51,2.51,0,0,0-2.55-2.4c-2,0-2.93,1.78-2.93,4.25,0,2.86,1,4.36,2.9,4.36,1.54,0,2.2-1,2.6-2.29h1.83Z"/><path class="cls-2" d="M540.62,325.27c0,2.24.95,3.92,2.9,3.92a2.56,2.56,0,0,0,2.57-1.83h1.78a4.26,4.26,0,0,1-4.44,3.37c-3.48,0-4.67-2.75-4.67-5.83,0-2.75,1.34-5.76,4.78-5.76s4.51,2.73,4.51,5.3v0.84h-7.44Zm5.63-1.32c0-1.91-.81-3.34-2.75-3.34-2.2,0-2.73,2-2.84,3.34h5.59Z"/><path class="cls-2" d="M550.48,323.14c0-1.78,0-3.23,0-3.79h1.78c0,0.53,0,1.23,0,2.27a3.74,3.74,0,0,1,3.61-2.46V321c-2.51.09-3.56,1.56-3.56,4v5.48h-1.83v-7.37Z"/><path class="cls-2" d="M567.77,314.49a16,16,0,0,0-3.26,9.68,16.68,16.68,0,0,0,3.26,10h-1.83a16.8,16.8,0,0,1-3.12-10,16.52,16.52,0,0,1,3.13-9.66h1.83Z"/><path class="cls-2" d="M570.58,327.27a2.3,2.3,0,0,0,2.51,2c1.54,0,2.13-.81,2.13-1.76s-0.7-1.54-2.6-2c-2.73-.75-3.43-1.74-3.43-3.23s1-3.1,3.74-3.1,3.74,1.5,3.89,3.21H575a2,2,0,0,0-2.18-1.78c-1.25,0-1.83.59-1.83,1.52s0.42,1.3,2.29,1.78c2.84,0.77,3.74,1.72,3.74,3.5,0,2.07-1.63,3.34-4,3.34s-4-1.1-4.25-3.43h1.8Z"/><path class="cls-2" d="M580.64,325.27c0,2.24.95,3.92,2.9,3.92a2.56,2.56,0,0,0,2.58-1.83h1.78a4.26,4.26,0,0,1-4.45,3.37c-3.48,0-4.66-2.75-4.66-5.83,0-2.75,1.34-5.76,4.77-5.76s4.51,2.73,4.51,5.3v0.84h-7.44Zm5.63-1.32c0-1.91-.81-3.34-2.75-3.34-2.2,0-2.73,2-2.84,3.34h5.59Z"/><path class="cls-2" d="M590.49,323.14c0-1.78,0-3.23,0-3.79h1.78c0,0.53,0,1.23,0,2.27a3.74,3.74,0,0,1,3.61-2.46V321c-2.51.09-3.56,1.56-3.56,4v5.48h-1.83v-7.37Z"/><path class="cls-2" d="M599.07,319.35c1.5,4.73,2.49,7.86,2.84,9.42h0c0.22-1.32,2.16-7,2.95-9.42h1.8l-3.85,11.16h-2l-3.72-11.16h2Z"/><path class="cls-2" d="M608.51,316.84v-2.35h1.83v2.35h-1.83Zm0,2.51h1.83v11.16h-1.83V319.35Z"/><path class="cls-2" d="M622,326.94a4.29,4.29,0,0,1-4.49,3.78c-3.12,0-4.71-2.09-4.71-5.81,0-3.23,1.63-5.79,4.82-5.79A4.08,4.08,0,0,1,622,323h-1.83a2.51,2.51,0,0,0-2.55-2.4c-2,0-2.93,1.78-2.93,4.25,0,2.86,1,4.36,2.9,4.36,1.54,0,2.2-1,2.6-2.29H622Z"/><path class="cls-2" d="M625.52,325.27c0,2.24.95,3.92,2.9,3.92a2.56,2.56,0,0,0,2.58-1.83h1.78a4.26,4.26,0,0,1-4.45,3.37c-3.48,0-4.66-2.75-4.66-5.83,0-2.75,1.34-5.76,4.77-5.76s4.51,2.73,4.51,5.3v0.84h-7.44Zm5.63-1.32c0-1.91-.81-3.34-2.75-3.34-2.2,0-2.73,2-2.84,3.34h5.59Z"/><path class="cls-2" d="M634.36,334.14a16,16,0,0,0,3.26-9.68,16.88,16.88,0,0,0-3.26-10h1.83a17,17,0,0,1,3.12,10,16.62,16.62,0,0,1-3.12,9.66h-1.83Z"/><rect class="cls-1" x="48.07" y="153.28" width="635.31" height="83"/><rect class="cls-3" x="381.81" y="165.84" width="219.58" height="40.54" rx="10.37" ry="10.37"/><path class="cls-2" d="M758.78,188.55a1.75,1.75,0,0,0,2,1.54c1.06,0,1.61-.42,1.61-1.14s-0.64-1-2.38-1.52c-3-.86-3.74-1.91-3.74-3.54,0-1.43.9-3.45,4.33-3.45,3,0,4.29,1.56,4.42,3.48h-2.9a1.44,1.44,0,0,0-1.65-1.3,1,1,0,0,0-1.28,1c0,0.62.44,0.9,2.09,1.32,3.1,0.81,4,1.94,4,3.74,0,2.35-2,3.59-4.64,3.59s-4.55-1.23-4.8-3.7h2.93Z"/><path class="cls-2" d="M769.52,188.55a1.75,1.75,0,0,0,2,1.54c1.06,0,1.61-.42,1.61-1.14s-0.64-1-2.38-1.52c-3-.86-3.74-1.91-3.74-3.54,0-1.43.9-3.45,4.33-3.45,3,0,4.29,1.56,4.42,3.48h-2.9a1.44,1.44,0,0,0-1.65-1.3,1,1,0,0,0-1.28,1c0,0.62.44,0.9,2.09,1.32,3.1,0.81,4,1.94,4,3.74,0,2.35-2,3.59-4.64,3.59s-4.55-1.23-4.8-3.7h2.93Z"/><path class="cls-2" d="M777.95,192v-16h3v16h-3Z"/><path class="cls-2" d="M788.86,185.12v2.51h-5.7v-2.51h5.7Z"/><path class="cls-2" d="M791.1,196.42V183.95c0-1.54,0-2.55,0-3.3H794c0,0.37.07,0.95,0.09,1.52a3.38,3.38,0,0,1,3.28-1.74c2.38,0,4.31,1.83,4.31,5.81,0,3.7-2.09,6-4.84,6a3,3,0,0,1-2.75-1.19v5.37h-3Zm5.19-13.55c-1.8,0-2.35,1-2.35,3.5,0,2.2.51,3.48,2.27,3.48,1.58,0,2.42-1.23,2.42-3.56S797.66,182.87,796.29,182.87Z"/><path class="cls-2" d="M803.82,184.52c0-1.87,0-3.08,0-3.87h2.9a17,17,0,0,1,.09,2,3.51,3.51,0,0,1,3.46-2.18v3c-2.35,0-3.41.75-3.41,3.37V192h-3v-7.52Z"/><path class="cls-2" d="M822.1,186.19c0,3.32-1.58,6.07-5.46,6.07s-5.37-2.93-5.37-6c0-2.84,1.61-5.83,5.52-5.83C820.45,180.43,822.1,183.11,822.1,186.19Zm-7.79,0c0,2.44.84,3.74,2.44,3.74s2.33-1.3,2.33-3.7-0.79-3.43-2.42-3.43S814.31,184.1,814.31,186.17Z"/><path class="cls-2" d="M825.9,180.65c1.1,2,1.63,3,1.94,3.65h0c0.4-.75,1.1-1.94,2-3.65h3.15L829.58,186l3.43,6h-3.34c-1-1.91-1.63-3.15-1.94-3.81h0c-0.26.53-1.12,2.31-1.94,3.81h-3.19l3.37-5.57-3.32-5.83h3.28Z"/><path class="cls-2" d="M836.46,180.65c1.34,4.84,2.11,7.5,2.29,8.8h0c0.31-1.41,1.34-5.37,2.29-8.8h3l-3.87,11.88c-1.19,3.65-2.6,4.07-4.53,4.07-0.22,0-.79,0-1.14-0.09v-2.44a9,9,0,0,0,1,.07,1.78,1.78,0,0,0,1.74-1.56l-4-11.93h3.17Z"/><path class="cls-2" d="M850.46,185.12v2.51h-5.7v-2.51h5.7Z"/><path class="cls-2" d="M855.05,188.55a1.75,1.75,0,0,0,2,1.54c1.06,0,1.61-.42,1.61-1.14s-0.64-1-2.38-1.52c-3-.86-3.74-1.91-3.74-3.54,0-1.43.9-3.45,4.33-3.45,3,0,4.29,1.56,4.42,3.48h-2.9a1.44,1.44,0,0,0-1.65-1.3,1,1,0,0,0-1.28,1c0,0.62.44,0.9,2.09,1.32,3.1,0.81,4,1.94,4,3.74,0,2.35-2,3.59-4.64,3.59s-4.55-1.23-4.8-3.7h2.93Z"/><path class="cls-2" d="M866.05,187c0,1.39.53,2.88,2.22,2.88a1.88,1.88,0,0,0,2-1.36h2.93a4.76,4.76,0,0,1-5,3.7c-3.63,0-5.15-2.49-5.15-5.87,0-2.82,1.41-5.94,5.28-5.94s5,2.73,5,5.68c0,0.15,0,.75,0,0.92h-7.2Zm4.33-2c0-1.28-.57-2.4-2.11-2.4-1.69,0-2.11,1.39-2.18,2.4h4.29Z"/><path class="cls-2" d="M885,188.06a4.57,4.57,0,0,1-5,4.18c-3.5,0-5.13-2.16-5.13-5.87s2-5.94,5.3-5.94c3.72,0,4.73,2.68,4.8,4.27h-3a1.87,1.87,0,0,0-1.87-2c-1.56,0-2.2,1.45-2.2,3.54,0,2.66.79,3.72,2.16,3.72s1.69-.84,1.94-1.91h3Z"/><path class="cls-2" d="M887,184.52c0-1.87,0-3.08,0-3.87h2.9a17,17,0,0,1,.09,2,3.51,3.51,0,0,1,3.46-2.18v3c-2.35,0-3.41.75-3.41,3.37V192h-3v-7.52Z"/><path class="cls-2" d="M897.49,187c0,1.39.53,2.88,2.22,2.88a1.88,1.88,0,0,0,2-1.36h2.93a4.76,4.76,0,0,1-5,3.7c-3.63,0-5.15-2.49-5.15-5.87,0-2.82,1.41-5.94,5.28-5.94s5,2.73,5,5.68c0,0.15,0,.75,0,0.92h-7.2Zm4.33-2c0-1.28-.57-2.4-2.11-2.4-1.69,0-2.11,1.39-2.18,2.4h4.29Z"/><path class="cls-2" d="M905.67,180.65h1.61v-3.08h3v3.08h2V183h-2v5.85a0.91,0.91,0,0,0,1.12,1.1,3.79,3.79,0,0,0,.68,0v2a6.51,6.51,0,0,1-1.83.22c-2.2,0-2.95-.88-2.95-3V183h-1.61v-2.33Z"/><path class="cls-2" d="M75.41,184.21c0-2.35,0-3.06,0-3.56h2.9a10.66,10.66,0,0,1,.11,1.47,3.45,3.45,0,0,1,3.17-1.69c2.4,0,3.61,1.54,3.61,4.16V192h-3v-6.89c0-1.3-.33-2.27-1.74-2.27s-2,.79-2,2.79V192h-3v-7.83Z"/><path class="cls-2" d="M97.81,190.92c0,3.52-1.45,5.68-5.39,5.68-3.7,0-4.77-2-4.91-3.67h2.95a1.88,1.88,0,0,0,2.13,1.39c1.89,0,2.29-1.12,2.29-3.19v-0.7a3.12,3.12,0,0,1-3,1.5c-2.73,0-4.53-2.16-4.53-5.68s2.18-5.81,4.73-5.81c1.8,0,2.51.66,2.77,1.28a7.69,7.69,0,0,1,.13-1.06h2.9c0,0.57,0,1.85,0,3.43v6.84Zm-5.13-1.45c1.69,0,2.29-1,2.29-3.32,0-2.09-.29-3.26-2.22-3.26-1.32,0-2.35,1-2.35,3.28C90.39,188.2,91.23,189.47,92.68,189.47Z"/><path class="cls-2" d="M100.55,178.8v-2.75h3v2.75h-3Zm0,1.85h3V192h-3v-11.4Z"/><path class="cls-2" d="M106.36,184.21c0-2.35,0-3.06,0-3.56h2.9a10.66,10.66,0,0,1,.11,1.47,3.45,3.45,0,0,1,3.17-1.69c2.4,0,3.61,1.54,3.61,4.16V192h-3v-6.89c0-1.3-.33-2.27-1.74-2.27s-2,.79-2,2.79V192h-3v-7.83Z"/><path class="cls-2" d="M120.66,180.65c1.1,2,1.63,3,1.94,3.65h0c0.4-.75,1.1-1.94,2-3.65h3.15L124.34,186l3.43,6h-3.34c-1-1.91-1.63-3.15-1.94-3.81h0c-0.26.53-1.12,2.31-1.94,3.81h-3.19l3.37-5.57-3.32-5.83h3.28Z"/><path class="cls-2" d="M133.88,185.12v2.51h-5.7v-2.51h5.7Z"/><path class="cls-2" d="M138.48,188.55a1.75,1.75,0,0,0,2,1.54c1.06,0,1.61-.42,1.61-1.14s-0.64-1-2.38-1.52c-3-.86-3.74-1.91-3.74-3.54,0-1.43.9-3.45,4.33-3.45,3,0,4.29,1.56,4.42,3.48h-2.9a1.44,1.44,0,0,0-1.65-1.3,1,1,0,0,0-1.28,1c0,0.62.44,0.9,2.09,1.32,3.1,0.81,4,1.94,4,3.74,0,2.35-2,3.59-4.64,3.59s-4.55-1.23-4.8-3.7h2.93Z"/><path class="cls-2" d="M149.22,188.55a1.75,1.75,0,0,0,2,1.54c1.06,0,1.61-.42,1.61-1.14s-0.64-1-2.38-1.52c-3-.86-3.74-1.91-3.74-3.54,0-1.43.9-3.45,4.33-3.45,3,0,4.29,1.56,4.42,3.48h-2.9a1.44,1.44,0,0,0-1.65-1.3,1,1,0,0,0-1.28,1c0,0.62.44,0.9,2.09,1.32,3.1,0.81,4,1.94,4,3.74,0,2.35-2,3.59-4.64,3.59s-4.55-1.23-4.8-3.7h2.93Z"/><path class="cls-2" d="M157.64,192v-16h3v16h-3Z"/><path class="cls-2" d="M168.56,185.12v2.51h-5.7v-2.51h5.7Z"/><path class="cls-2" d="M170.8,196.42V183.95c0-1.54,0-2.55,0-3.3h2.91c0,0.37.07,0.95,0.09,1.52a3.38,3.38,0,0,1,3.28-1.74c2.38,0,4.31,1.83,4.31,5.81,0,3.7-2.09,6-4.84,6a3,3,0,0,1-2.75-1.19v5.37h-3ZM176,182.87c-1.8,0-2.35,1-2.35,3.5,0,2.2.51,3.48,2.27,3.48,1.58,0,2.42-1.23,2.42-3.56S177.35,182.87,176,182.87Z"/><path class="cls-2" d="M183.51,184.52c0-1.87,0-3.08,0-3.87h2.9a17,17,0,0,1,.09,2,3.51,3.51,0,0,1,3.46-2.18v3c-2.35,0-3.41.75-3.41,3.37V192h-3v-7.52Z"/><path class="cls-2" d="M201.8,186.19c0,3.32-1.58,6.07-5.46,6.07s-5.37-2.93-5.37-6c0-2.84,1.61-5.83,5.52-5.83C200.15,180.43,201.8,183.11,201.8,186.19Zm-7.79,0c0,2.44.84,3.74,2.44,3.74s2.33-1.3,2.33-3.7-0.79-3.43-2.42-3.43S194,184.1,194,186.17Z"/><path class="cls-2" d="M205.6,180.65c1.1,2,1.63,3,1.94,3.65h0c0.4-.75,1.1-1.94,2-3.65h3.15L209.28,186l3.43,6h-3.34c-1-1.91-1.63-3.15-1.94-3.81h0c-0.26.53-1.12,2.31-1.94,3.81h-3.19l3.37-5.57-3.32-5.83h3.28Z"/><path class="cls-2" d="M216.16,180.65c1.34,4.84,2.11,7.5,2.29,8.8h0c0.31-1.41,1.34-5.37,2.29-8.8h3l-3.87,11.88c-1.19,3.65-2.6,4.07-4.53,4.07-0.22,0-.79,0-1.14-0.09v-2.44a9,9,0,0,0,1,.07,1.78,1.78,0,0,0,1.74-1.56l-4-11.93h3.17Z"/><path class="cls-2" d="M75.61,211.08c0-1.78,0-3.23,0-3.78h1.78c0,0.53,0,1.23,0,2.27A3.74,3.74,0,0,1,81,207.09V209c-2.51.09-3.56,1.56-3.56,4v5.48H75.61v-7.37Z"/><path class="cls-2" d="M83.86,213.21c0,2.24.95,3.92,2.9,3.92a2.56,2.56,0,0,0,2.57-1.83h1.78a4.26,4.26,0,0,1-4.44,3.37c-3.48,0-4.67-2.75-4.67-5.83,0-2.75,1.34-5.76,4.77-5.76s4.51,2.73,4.51,5.3v0.84H83.86Zm5.63-1.32c0-1.91-.81-3.34-2.75-3.34-2.2,0-2.73,2-2.84,3.34h5.59Z"/><path class="cls-2" d="M93.71,222.87v-12.3c0-1.52,0-2.6,0-3.28h1.8c0,0.37,0,1.17,0,1.8a3.59,3.59,0,0,1,3.48-2c2.44,0,4.18,1.91,4.18,5.61s-2,5.94-4.62,5.94a3.18,3.18,0,0,1-3-1.52v5.77h-1.8Zm4.71-14.21c-2.29,0-3,1.56-3,4.25,0,2.46.46,4.16,2.86,4.16,1.87,0,3-1.54,3-4.31S100.2,208.65,98.42,208.65Z"/><path class="cls-2" d="M105.61,218.45v-16h1.83v16h-1.83Z"/><path class="cls-2" d="M110.65,204.78v-2.35h1.83v2.35h-1.83Zm0,2.51h1.83v11.16h-1.83V207.29Z"/><path class="cls-2" d="M124.14,214.88a4.29,4.29,0,0,1-4.49,3.78c-3.12,0-4.71-2.09-4.71-5.81,0-3.23,1.63-5.79,4.82-5.79a4.08,4.08,0,0,1,4.36,3.89h-1.83a2.51,2.51,0,0,0-2.55-2.4c-2,0-2.93,1.78-2.93,4.25,0,2.86,1,4.36,2.9,4.36,1.54,0,2.2-1,2.6-2.29h1.83Z"/><path class="cls-2" d="M134.37,216a20.74,20.74,0,0,0,.15,2.49h-1.65a10.16,10.16,0,0,1-.15-1.72,3.32,3.32,0,0,1-3.39,1.91,3.2,3.2,0,0,1-3.54-3.39c0-1.67,1.08-3.54,5.06-3.54h1.72v-1.08c0-1.06-.31-2.16-2.2-2.16a2,2,0,0,0-2.35,2h-1.78c0.15-1.87,1.23-3.39,4.2-3.39,2.33,0,3.94.95,3.94,3.48V216ZM132.61,213h-1.76c-2.71,0-3.21,1.1-3.21,2.11a1.89,1.89,0,0,0,2.07,2c2.2,0,2.9-1.5,2.9-3.87V213Z"/><path class="cls-2" d="M135.91,207.29h1.78v-3.23h1.83v3.23h2.24v1.5h-2.24v7c0,0.95.24,1.34,1.19,1.34a4.91,4.91,0,0,0,.86-0.09v1.39a4.86,4.86,0,0,1-1.45.18c-1.63,0-2.42-.62-2.42-2.46v-7.33h-1.78v-1.5Z"/><path class="cls-2" d="M143.7,204.78v-2.35h1.83v2.35H143.7Zm0,2.51h1.83v11.16H143.7V207.29Z"/><path class="cls-2" d="M157.8,212.68c0,3.23-1.41,6-5,6s-4.84-2.84-4.84-5.9,1.61-5.68,5-5.68C156.1,207.07,157.8,209.47,157.8,212.68Zm-7.94,0c0,2.55,1.06,4.4,3.06,4.4s3-1.8,3-4.42c0-2.44-1-4.11-3-4.11S149.85,210.28,149.85,212.73Z"/><path class="cls-2" d="M160.24,210.79c0-2.33,0-3,0-3.5H162A13.24,13.24,0,0,1,162,209a3.42,3.42,0,0,1,3.3-2c2.07,0,3.54,1.17,3.54,4.18v7.19h-1.83v-6.91c0-1.63-.55-2.86-2.22-2.86-2,0-2.77,1.47-2.77,3.81v6h-1.83v-7.66Z"/><path class="cls-2" d="M186,214.88a4.29,4.29,0,0,1-4.49,3.78c-3.12,0-4.71-2.09-4.71-5.81,0-3.23,1.63-5.79,4.82-5.79a4.08,4.08,0,0,1,4.36,3.89h-1.83a2.51,2.51,0,0,0-2.55-2.4c-2,0-2.93,1.78-2.93,4.25,0,2.86,1,4.36,2.9,4.36,1.54,0,2.2-1,2.6-2.29H186Z"/><path class="cls-2" d="M197.44,212.68c0,3.23-1.41,6-5,6s-4.84-2.84-4.84-5.9,1.61-5.68,5-5.68C195.75,207.07,197.44,209.47,197.44,212.68Zm-7.94,0c0,2.55,1.06,4.4,3.06,4.4s3-1.8,3-4.42c0-2.44-1-4.11-3-4.11S189.5,210.28,189.5,212.73Z"/><path class="cls-2" d="M199.88,210.79c0-2.33,0-3,0-3.5h1.78a13.24,13.24,0,0,1,.07,1.74,3.42,3.42,0,0,1,3.3-2c2.07,0,3.54,1.17,3.54,4.18v7.19H206.7v-6.91c0-1.63-.55-2.86-2.22-2.86-2,0-2.77,1.47-2.77,3.81v6h-1.83v-7.66Z"/><path class="cls-2" d="M210.16,207.29h1.78v-3.23h1.83v3.23H216v1.5h-2.24v7c0,0.95.24,1.34,1.19,1.34a4.91,4.91,0,0,0,.86-0.09v1.39a4.86,4.86,0,0,1-1.45.18c-1.63,0-2.42-.62-2.42-2.46v-7.33h-1.78v-1.5Z"/><path class="cls-2" d="M217.81,211.08c0-1.78,0-3.23,0-3.78h1.78c0,0.53,0,1.23,0,2.27a3.74,3.74,0,0,1,3.61-2.46V209c-2.51.09-3.56,1.56-3.56,4v5.48h-1.83v-7.37Z"/><path class="cls-2" d="M234,212.68c0,3.23-1.41,6-5,6s-4.84-2.84-4.84-5.9,1.61-5.68,5-5.68C232.33,207.07,234,209.47,234,212.68Zm-7.94,0c0,2.55,1.06,4.4,3.06,4.4s3-1.8,3-4.42c0-2.44-1-4.11-3-4.11S226.08,210.28,226.08,212.73Z"/><path class="cls-2" d="M236.47,218.45v-16h1.83v16h-1.83Z"/><path class="cls-2" d="M241.5,218.45v-16h1.83v16H241.5Z"/><path class="cls-2" d="M247.64,213.21c0,2.24.95,3.92,2.9,3.92a2.56,2.56,0,0,0,2.58-1.83h1.78a4.26,4.26,0,0,1-4.45,3.37c-3.48,0-4.66-2.75-4.66-5.83,0-2.75,1.34-5.76,4.77-5.76s4.51,2.73,4.51,5.3v0.84h-7.44Zm5.63-1.32c0-1.91-.81-3.34-2.75-3.34-2.2,0-2.73,2-2.84,3.34h5.59Z"/><path class="cls-2" d="M257.5,211.08c0-1.78,0-3.23,0-3.78h1.78c0,0.53,0,1.23,0,2.27a3.74,3.74,0,0,1,3.61-2.46V209c-2.51.09-3.56,1.56-3.56,4v5.48H257.5v-7.37Z"/><path class="cls-2" d="M397.82,184.28c0-2.35,0-3.06,0-3.56h2.9a10.66,10.66,0,0,1,.11,1.47,3.45,3.45,0,0,1,3.17-1.69c2.4,0,3.61,1.54,3.61,4.16v7.46h-3v-6.89c0-1.3-.33-2.27-1.74-2.27s-2,.79-2,2.79v6.36h-3v-7.83Z"/><path class="cls-2" d="M420.22,191c0,3.52-1.45,5.68-5.39,5.68-3.7,0-4.77-2-4.91-3.67h2.95a1.88,1.88,0,0,0,2.13,1.39c1.89,0,2.29-1.12,2.29-3.19v-0.7a3.12,3.12,0,0,1-3,1.5c-2.73,0-4.53-2.16-4.53-5.68s2.18-5.81,4.73-5.81c1.8,0,2.51.66,2.77,1.28a7.69,7.69,0,0,1,.13-1.06h2.9c0,0.57,0,1.85,0,3.43V191Zm-5.13-1.45c1.69,0,2.29-1,2.29-3.32,0-2.09-.29-3.26-2.22-3.26-1.32,0-2.35,1-2.35,3.28C412.8,188.26,413.64,189.54,415.09,189.54Z"/><path class="cls-2" d="M423,178.87v-2.75h3v2.75h-3Zm0,1.85h3v11.4h-3v-11.4Z"/><path class="cls-2" d="M428.77,184.28c0-2.35,0-3.06,0-3.56h2.9a10.66,10.66,0,0,1,.11,1.47,3.45,3.45,0,0,1,3.17-1.69c2.4,0,3.61,1.54,3.61,4.16v7.46h-3v-6.89c0-1.3-.33-2.27-1.74-2.27s-2,.79-2,2.79v6.36h-3v-7.83Z"/><path class="cls-2" d="M443.07,180.71c1.1,2,1.63,3,1.94,3.65h0c0.4-.75,1.1-1.94,2-3.65h3.15l-3.48,5.37,3.43,6h-3.34c-1-1.91-1.63-3.15-1.94-3.81h0c-0.26.53-1.12,2.31-1.94,3.81h-3.19l3.37-5.57-3.32-5.83h3.28Z"/><path class="cls-2" d="M456.29,185.18v2.51h-5.7v-2.51h5.7Z"/><path class="cls-2" d="M460.89,188.61a1.75,1.75,0,0,0,2,1.54c1.06,0,1.61-.42,1.61-1.14s-0.64-1-2.38-1.52c-3-.86-3.74-1.91-3.74-3.54,0-1.43.9-3.45,4.33-3.45,3,0,4.29,1.56,4.42,3.48h-2.9a1.44,1.44,0,0,0-1.65-1.3,1,1,0,0,0-1.28,1c0,0.62.44,0.9,2.09,1.32,3.1,0.81,4,1.94,4,3.74,0,2.35-2,3.59-4.64,3.59s-4.55-1.23-4.8-3.7h2.93Z"/><path class="cls-2" d="M471.63,188.61a1.75,1.75,0,0,0,2,1.54c1.06,0,1.61-.42,1.61-1.14s-0.64-1-2.38-1.52c-3-.86-3.74-1.91-3.74-3.54,0-1.43.9-3.45,4.33-3.45,3,0,4.29,1.56,4.42,3.48h-2.9a1.44,1.44,0,0,0-1.65-1.3,1,1,0,0,0-1.28,1c0,0.62.44,0.9,2.09,1.32,3.1,0.81,4,1.94,4,3.74,0,2.35-2,3.59-4.64,3.59s-4.55-1.23-4.8-3.7h2.93Z"/><path class="cls-2" d="M480.05,192.11v-16h3v16h-3Z"/><path class="cls-2" d="M491,185.18v2.51h-5.7v-2.51H491Z"/><path class="cls-2" d="M493.21,196.49V184c0-1.54,0-2.55,0-3.3h2.9c0,0.37.07,0.95,0.09,1.52a3.38,3.38,0,0,1,3.28-1.74c2.38,0,4.31,1.83,4.31,5.81,0,3.7-2.09,6-4.84,6a3,3,0,0,1-2.75-1.19v5.37h-3Zm5.19-13.55c-1.8,0-2.35,1-2.35,3.5,0,2.2.51,3.48,2.27,3.48,1.58,0,2.42-1.23,2.42-3.56S499.77,182.94,498.4,182.94Z"/><path class="cls-2" d="M505.92,184.59c0-1.87,0-3.08,0-3.87h2.9a17,17,0,0,1,.09,2,3.51,3.51,0,0,1,3.46-2.18v3c-2.35,0-3.41.75-3.41,3.37v5.17h-3v-7.52Z"/><path class="cls-2" d="M524.21,186.26c0,3.32-1.58,6.07-5.46,6.07s-5.37-2.93-5.37-6c0-2.84,1.61-5.83,5.52-5.83C522.56,180.49,524.21,183.18,524.21,186.26Zm-7.79,0c0,2.44.84,3.74,2.44,3.74s2.33-1.3,2.33-3.7-0.79-3.43-2.42-3.43S516.42,184.17,516.42,186.24Z"/><path class="cls-2" d="M528,180.71c1.1,2,1.63,3,1.94,3.65h0c0.4-.75,1.1-1.94,2-3.65h3.15l-3.48,5.37,3.43,6h-3.34c-1-1.91-1.63-3.15-1.94-3.81h0c-0.26.53-1.12,2.31-1.94,3.81h-3.19l3.37-5.57-3.32-5.83H528Z"/><path class="cls-2" d="M538.57,180.71c1.34,4.84,2.11,7.5,2.29,8.8h0c0.31-1.41,1.34-5.37,2.29-8.8h3l-3.87,11.88c-1.19,3.65-2.6,4.07-4.53,4.07-0.22,0-.79,0-1.14-0.09v-2.44a9,9,0,0,0,1,.07,1.78,1.78,0,0,0,1.74-1.56l-4-11.93h3.17Z"/><path class="cls-2" d="M553.31,196.54v-12.3c0-1.52,0-2.6,0-3.28h1.8c0,0.37,0,1.17,0,1.8a3.59,3.59,0,0,1,3.48-2c2.44,0,4.18,1.91,4.18,5.61s-2,5.94-4.62,5.94a3.18,3.18,0,0,1-3-1.52v5.77h-1.8ZM558,182.32c-2.29,0-3,1.56-3,4.25,0,2.46.46,4.16,2.86,4.16,1.87,0,3-1.54,3-4.31S559.8,182.32,558,182.32Z"/><path class="cls-2" d="M574.28,186.35c0,3.23-1.41,6-5,6s-4.84-2.84-4.84-5.9,1.61-5.68,5-5.68C572.58,180.74,574.28,183.13,574.28,186.35Zm-7.94,0c0,2.55,1.06,4.4,3.06,4.4s3-1.8,3-4.42c0-2.44-1-4.11-3-4.11S566.33,183.95,566.33,186.39Z"/><path class="cls-2" d="M585.39,176.09v13.11c0,1.08,0,2.22,0,2.9h-1.78c0-.29-0.07-1-0.07-1.65-0.59,1.3-1.5,1.85-3.32,1.85-2.88,0-4.33-2.44-4.33-5.77s1.67-5.81,4.71-5.81c1.8,0,2.64.73,2.95,1.34v-6h1.8Zm-4.64,14.65c2.4,0,2.9-1.83,2.9-4.44,0-3.08-.9-4-2.79-4s-3,1.5-3,4.16S579,190.75,580.75,190.75Z"/><rect class="cls-1" x="314.07" y="584.66" width="369.31" height="65.66"/><path class="cls-2" d="M421.24,604.84c1.33-1.4,4.06-4,5.75-5.8h5l-5.67,5.15,6.24,8.29h-5.12l-4.11-5.93-2.11,1.82v4.11H417V593.12h4.24v11.73Z"/><path class="cls-2" d="M437.1,606.79a3,3,0,0,0,3.3,2.91,2.86,2.86,0,0,0,2.83-1.33h4.26c-0.83,2.39-2.83,4.47-7.15,4.47-5.51,0-7.49-3.64-7.49-7.07,0-3.77,2.55-7.1,7.46-7.1,5.23,0,7.33,3.61,7.33,7.1,0,0.34,0,.6,0,1H437.1Zm6.24-2.6c-0.08-1-.62-2.52-3-2.52-2.21,0-3,1.2-3.15,2.52h6.19Z"/><path class="cls-2" d="M454,606.79a3,3,0,0,0,3.3,2.91,2.86,2.86,0,0,0,2.83-1.33h4.26c-0.83,2.39-2.83,4.47-7.15,4.47-5.51,0-7.49-3.64-7.49-7.07,0-3.77,2.55-7.1,7.46-7.1,5.23,0,7.33,3.61,7.33,7.1,0,0.34,0,.6,0,1H454Zm6.24-2.6c-0.08-1-.62-2.52-3-2.52-2.21,0-3,1.2-3.15,2.52h6.19Z"/><path class="cls-2" d="M467.29,618.16V602.35c0-1.09,0-2.21,0-3.3h4.16a14.11,14.11,0,0,1,.1,1.74c0.75-1.12,2.11-2.11,4.68-2.11a6.48,6.48,0,0,1,6.32,6.81c0,4.68-3.35,7.36-6.86,7.36a5,5,0,0,1-4.13-1.66v7h-4.24ZM474.83,602c-2.47,0-3.41,1.59-3.41,3.8s1.17,3.72,3.35,3.72,3.38-1.51,3.38-3.77C478.15,603.75,477,602,474.83,602Z"/><path class="cls-2" d="M488.79,606.79a3,3,0,0,0,3.3,2.91,2.86,2.86,0,0,0,2.83-1.33h4.26c-0.83,2.39-2.83,4.47-7.15,4.47-5.51,0-7.49-3.64-7.49-7.07,0-3.77,2.55-7.1,7.46-7.1,5.23,0,7.33,3.61,7.33,7.1,0,0.34,0,.6,0,1H488.79Zm6.24-2.6c-0.08-1-.62-2.52-3-2.52-2.21,0-3,1.2-3.15,2.52H495Z"/><path class="cls-2" d="M502.07,602.71c0-1.22,0-2.44,0-3.67h4.13c0.08,0.49.13,2,.13,2.7a5.07,5.07,0,0,1,5.17-3v3.87c-3-.05-5.17,1.17-5.17,5v4.91h-4.24v-9.78Z"/><path class="cls-2" d="M522,604.09v3.54h-8.68v-3.54H522Z"/><path class="cls-2" d="M540.11,593.12v15.6c0,1.25,0,2.52,0,3.77H536c-0.05-.39-0.08-1-0.1-1.56-0.75,1-1.69,1.92-4.47,1.92-3.74,0-6.53-2.78-6.53-7a7,7,0,0,1,6.92-7.2c2.63,0,3.69.88,4.08,1.4v-7h4.26Zm-7.49,16.41c2.18,0,3.33-1.43,3.33-3.74S535,602,532.62,602s-3.41,1.82-3.41,3.8C529.22,607.91,530.44,609.53,532.62,609.53Z"/><path class="cls-2" d="M543.73,596.52v-3.41H548v3.41h-4.24Zm0,2.52H548v13.44h-4.24V599Z"/><path class="cls-2" d="M554.75,608.35c0.34,1,1.22,1.59,3,1.59s2.31-.55,2.31-1.2-0.57-1.12-3.28-1.48c-5.12-.73-5.82-2.6-5.82-4.24,0-2.05,1.53-4.34,6.21-4.34s6.4,2.24,6.58,4.16h-4.16c-0.21-.62-0.68-1.35-2.57-1.35-1.61,0-1.9.62-1.9,1.09s0.44,0.91,2.94,1.27c5.46,0.83,6.16,2.65,6.16,4.52,0,2.44-1.85,4.47-6.76,4.47-3.67,0-6.55-1.56-7-4.5h4.21Z"/><path class="cls-2" d="M571,604.84c1.33-1.4,4.06-4,5.75-5.8h5l-5.67,5.15,6.24,8.29h-5.12l-4.11-5.93L571,608.38v4.11h-4.24V593.12H571v11.73Z"/><path class="cls-2" d="M422.71,638.89h-1.47a16.78,16.78,0,0,1-.15-2.2c-0.81,1.74-2.29,2.42-4.47,2.42-4,0-5.9-3.39-5.9-7.75s2.29-7.88,6.53-7.88c3.23,0,5,1.72,5.48,4.4h-1.85a3.46,3.46,0,0,0-3.72-2.79c-3.12,0-4.49,2.77-4.49,6.27,0,3.26,1.28,6.16,4.27,6.16,3.26,0,3.89-2.27,3.89-5.06v-0.09H416.9V630.7h5.81v8.18Z"/><path class="cls-2" d="M437.29,634.47a5.3,5.3,0,0,1-5.61,4.64c-4.44,0-6.14-3.37-6.14-7.92,0-4,1.94-7.7,6.25-7.7,3.5,0,5.13,2.11,5.41,4.69h-1.89c-0.37-1.78-1.32-3.08-3.59-3.08-3,0-4.22,2.9-4.22,6.09s1,6.34,4.22,6.34c2.27,0,3.21-1.34,3.67-3.06h1.89Z"/><path class="cls-2" d="M448.58,631.74h-6.84v5.54h7.53L449,638.89h-9.11V623.71h9v1.61h-7.15v4.8h6.84v1.63Z"/><path class="cls-2" d="M457,643.31V631c0-1.52,0-2.6,0-3.28h1.8c0,0.37,0,1.17,0,1.8a3.59,3.59,0,0,1,3.48-2c2.44,0,4.18,1.91,4.18,5.61s-2,5.94-4.62,5.94a3.18,3.18,0,0,1-3-1.52v5.76H457Zm4.71-14.21c-2.29,0-3,1.56-3,4.25,0,2.46.46,4.16,2.86,4.16,1.87,0,3-1.54,3-4.31S463.49,629.1,461.71,629.1Z"/><path class="cls-2" d="M470,633.65c0,2.24.95,3.92,2.9,3.92a2.56,2.56,0,0,0,2.57-1.83h1.78a4.26,4.26,0,0,1-4.44,3.37c-3.48,0-4.67-2.75-4.67-5.83,0-2.75,1.34-5.76,4.77-5.76s4.51,2.73,4.51,5.3v0.84H470Zm5.63-1.32c0-1.91-.81-3.34-2.75-3.34-2.2,0-2.73,2-2.84,3.34h5.59Z"/><path class="cls-2" d="M479.86,631.52c0-1.78,0-3.23,0-3.78h1.78c0,0.53,0,1.23,0,2.27a3.75,3.75,0,0,1,3.61-2.46v1.89c-2.51.09-3.56,1.56-3.56,4v5.48h-1.83v-7.37Z"/><path class="cls-2" d="M488.09,635.65a2.3,2.3,0,0,0,2.51,2c1.54,0,2.13-.81,2.13-1.76s-0.7-1.54-2.6-2c-2.73-.75-3.43-1.74-3.43-3.23s1-3.1,3.74-3.1,3.74,1.5,3.89,3.21h-1.8a2,2,0,0,0-2.18-1.78c-1.25,0-1.83.59-1.83,1.52s0.42,1.3,2.29,1.78c2.84,0.77,3.74,1.72,3.74,3.5,0,2.07-1.63,3.34-4,3.34s-4-1.1-4.25-3.43h1.8Z"/><path class="cls-2" d="M496.89,625.22v-2.35h1.83v2.35h-1.83Zm0,2.51h1.83v11.16h-1.83V627.73Z"/><path class="cls-2" d="M502.74,635.65a2.3,2.3,0,0,0,2.51,2c1.54,0,2.13-.81,2.13-1.76s-0.7-1.54-2.6-2c-2.73-.75-3.43-1.74-3.43-3.23s1-3.1,3.74-3.1,3.74,1.5,3.89,3.21h-1.8a2,2,0,0,0-2.18-1.78c-1.25,0-1.83.59-1.83,1.52s0.42,1.3,2.29,1.78c2.84,0.77,3.74,1.72,3.74,3.5,0,2.07-1.63,3.34-4,3.34s-4-1.1-4.25-3.43h1.8Z"/><path class="cls-2" d="M510.17,627.73H512V624.5h1.83v3.23H516v1.5h-2.25v7c0,0.95.24,1.34,1.19,1.34a4.91,4.91,0,0,0,.86-0.09v1.39a4.85,4.85,0,0,1-1.45.18c-1.63,0-2.42-.62-2.42-2.46v-7.33h-1.78v-1.5Z"/><path class="cls-2" d="M519.06,633.65c0,2.24.95,3.92,2.9,3.92a2.56,2.56,0,0,0,2.57-1.83h1.78a4.26,4.26,0,0,1-4.44,3.37c-3.48,0-4.67-2.75-4.67-5.83,0-2.75,1.34-5.76,4.78-5.76s4.51,2.73,4.51,5.3v0.84h-7.44Zm5.63-1.32c0-1.91-.81-3.34-2.75-3.34-2.2,0-2.73,2-2.84,3.34h5.59Z"/><path class="cls-2" d="M528.92,631.23c0-2.33,0-3,0-3.5h1.78a13.39,13.39,0,0,1,.07,1.74,3.42,3.42,0,0,1,3.3-2c2.07,0,3.54,1.17,3.54,4.18v7.19h-1.83V632c0-1.63-.55-2.86-2.22-2.86-2,0-2.77,1.47-2.77,3.81v6h-1.83v-7.66Z"/><path class="cls-2" d="M539.19,627.73H541V624.5h1.83v3.23H545v1.5H542.8v7c0,0.95.24,1.34,1.19,1.34a4.91,4.91,0,0,0,.86-0.09v1.39a4.85,4.85,0,0,1-1.45.18c-1.63,0-2.42-.62-2.42-2.46v-7.33h-1.78v-1.5Z"/><path class="cls-2" d="M561.06,622.87V636c0,1.08,0,2.22,0,2.9h-1.78c0-.29-0.07-1-0.07-1.65-0.59,1.3-1.5,1.85-3.32,1.85-2.88,0-4.33-2.44-4.33-5.76s1.67-5.81,4.71-5.81c1.8,0,2.64.73,2.95,1.34v-6h1.8Zm-4.64,14.65c2.4,0,2.9-1.83,2.9-4.44,0-3.08-.9-4-2.79-4s-3,1.5-3,4.16S554.66,637.52,556.42,637.52Z"/><path class="cls-2" d="M564.31,625.22v-2.35h1.83v2.35h-1.83Zm0,2.51h1.83v11.16h-1.83V627.73Z"/><path class="cls-2" d="M570.17,635.65a2.3,2.3,0,0,0,2.51,2c1.54,0,2.13-.81,2.13-1.76s-0.7-1.54-2.6-2c-2.73-.75-3.43-1.74-3.43-3.23s1-3.1,3.74-3.1,3.74,1.5,3.89,3.21h-1.8a2,2,0,0,0-2.18-1.78c-1.25,0-1.83.59-1.83,1.52s0.42,1.3,2.29,1.78c2.84,0.77,3.74,1.72,3.74,3.5,0,2.07-1.63,3.34-4,3.34s-4-1.1-4.25-3.43h1.8Z"/><path class="cls-2" d="M580.71,632.95c1-1.14,3.26-3.63,4.6-5.21h2.13c-1.23,1.41-2.6,2.82-3.89,4.25,1.34,2.13,2.95,4.75,4.33,6.91h-2.13c-0.9-1.47-2.44-4-3.43-5.68-0.31.33-1.3,1.32-1.61,1.63v4h-1.83v-16h1.83v10.08Z"/><rect class="cls-1" x="48.07" y="380.41" width="635.31" height="164.25"/><path class="cls-2" d="M764.92,407.6c0.81-1,2.31-3,3.63-4.75h3.39c-1.1,1.34-2.55,3-3.76,4.44,1.25,2,2.77,4.69,4.09,7h-3.43c-0.77-1.43-1.85-3.48-2.64-5,0,0.07-1.21,1.34-1.28,1.39v3.59h-3v-16h3v9.35Z"/><path class="cls-2" d="M775.55,409.23c0,1.39.53,2.88,2.22,2.88a1.88,1.88,0,0,0,2-1.36h2.93a4.76,4.76,0,0,1-5,3.7c-3.63,0-5.15-2.49-5.15-5.87,0-2.82,1.41-5.94,5.28-5.94s5,2.73,5,5.68c0,0.15,0,.75,0,0.92h-7.2Zm4.33-2c0-1.28-.57-2.4-2.11-2.4-1.69,0-2.11,1.39-2.18,2.4h4.29Z"/><path class="cls-2" d="M787.43,409.23c0,1.39.53,2.88,2.22,2.88a1.88,1.88,0,0,0,2-1.36h2.93a4.76,4.76,0,0,1-5,3.7c-3.63,0-5.15-2.49-5.15-5.87,0-2.82,1.41-5.94,5.28-5.94s5,2.73,5,5.68c0,0.15,0,.75,0,0.92h-7.2Zm4.33-2c0-1.28-.57-2.4-2.11-2.4-1.69,0-2.11,1.39-2.18,2.4h4.29Z"/><path class="cls-2" d="M796.8,418.62V406.15c0-1.54,0-2.55,0-3.3h2.91c0,0.37.07,0.95,0.09,1.52a3.37,3.37,0,0,1,3.28-1.74c2.38,0,4.31,1.83,4.31,5.81,0,3.7-2.09,6-4.84,6a3,3,0,0,1-2.75-1.19v5.37h-3ZM802,405.07c-1.8,0-2.35,1-2.35,3.5,0,2.2.51,3.48,2.27,3.48,1.58,0,2.42-1.23,2.42-3.56S803.36,405.07,802,405.07Z"/><path class="cls-2" d="M811.93,409.23c0,1.39.53,2.88,2.22,2.88a1.88,1.88,0,0,0,2-1.36H819a4.76,4.76,0,0,1-5,3.7c-3.63,0-5.15-2.49-5.15-5.87,0-2.82,1.41-5.94,5.28-5.94s5,2.73,5,5.68c0,0.15,0,.75,0,0.92h-7.2Zm4.33-2c0-1.28-.57-2.4-2.11-2.4-1.69,0-2.11,1.39-2.18,2.4h4.29Z"/><path class="cls-2" d="M821.31,406.72c0-1.87,0-3.08,0-3.87h2.9a17,17,0,0,1,.09,2,3.51,3.51,0,0,1,3.46-2.18v3c-2.35,0-3.41.75-3.41,3.37v5.17h-3v-7.52Z"/><path class="cls-2" d="M834.66,407.31v2.51H829v-2.51h5.7Z"/><path class="cls-2" d="M839.26,410.75a1.75,1.75,0,0,0,2,1.54c1.06,0,1.61-.42,1.61-1.14s-0.64-1-2.38-1.52c-3-.86-3.74-1.92-3.74-3.54,0-1.43.9-3.45,4.33-3.45,3,0,4.29,1.56,4.42,3.48h-2.9a1.44,1.44,0,0,0-1.65-1.3,1,1,0,0,0-1.28,1c0,0.62.44,0.9,2.09,1.32,3.1,0.81,4,1.94,4,3.74,0,2.35-2,3.59-4.64,3.59s-4.55-1.23-4.8-3.7h2.93Z"/><path class="cls-2" d="M850.26,409.23c0,1.39.53,2.88,2.22,2.88a1.88,1.88,0,0,0,2-1.36h2.93a4.76,4.76,0,0,1-5,3.7c-3.63,0-5.15-2.49-5.15-5.87,0-2.82,1.41-5.94,5.28-5.94s5,2.73,5,5.68c0,0.15,0,.75,0,0.92h-7.2Zm4.33-2c0-1.28-.57-2.4-2.11-2.4-1.69,0-2.11,1.39-2.18,2.4h4.29Z"/><path class="cls-2" d="M869.22,410.26a4.57,4.57,0,0,1-5,4.18c-3.5,0-5.13-2.16-5.13-5.87s2-5.94,5.3-5.94c3.72,0,4.73,2.68,4.8,4.27h-3a1.87,1.87,0,0,0-1.87-2c-1.56,0-2.2,1.45-2.2,3.54,0,2.66.79,3.72,2.16,3.72s1.69-.84,1.94-1.91h3Z"/><path class="cls-2" d="M871.2,406.72c0-1.87,0-3.08,0-3.87h2.9a17,17,0,0,1,.09,2,3.51,3.51,0,0,1,3.46-2.18v3c-2.35,0-3.41.75-3.41,3.37v5.17h-3v-7.52Z"/><path class="cls-2" d="M881.7,409.23c0,1.39.53,2.88,2.22,2.88a1.88,1.88,0,0,0,2-1.36h2.93a4.76,4.76,0,0,1-5,3.7c-3.63,0-5.15-2.49-5.15-5.87,0-2.82,1.41-5.94,5.28-5.94s5,2.73,5,5.68c0,0.15,0,.75,0,0.92h-7.2Zm4.33-2c0-1.28-.57-2.4-2.11-2.4-1.69,0-2.11,1.39-2.18,2.4H886Z"/><path class="cls-2" d="M889.88,402.85h1.61v-3.08h3v3.08h2v2.33h-2V411a0.91,0.91,0,0,0,1.12,1.1,3.79,3.79,0,0,0,.68,0v2a6.53,6.53,0,0,1-1.83.22c-2.2,0-2.95-.88-2.95-3v-6.18h-1.61v-2.33Z"/><path class="cls-2" d="M900.37,410.75a1.75,1.75,0,0,0,2,1.54c1.06,0,1.61-.42,1.61-1.14s-0.64-1-2.38-1.52c-3-.86-3.74-1.92-3.74-3.54,0-1.43.9-3.45,4.33-3.45,3,0,4.29,1.56,4.42,3.48h-2.9a1.44,1.44,0,0,0-1.65-1.3,1,1,0,0,0-1.28,1c0,0.62.44,0.9,2.09,1.32,3.1,0.81,4,1.94,4,3.74,0,2.35-2,3.59-4.64,3.59s-4.55-1.23-4.8-3.7h2.93Z"/><path class="cls-2" d="M78.4,407.6c0.81-1,2.31-3,3.63-4.75h3.39c-1.1,1.34-2.55,3-3.76,4.44,1.25,2,2.77,4.69,4.09,7H82.32c-0.77-1.43-1.85-3.48-2.64-5,0,0.07-1.21,1.34-1.28,1.39v3.59h-3v-16h3v9.35Z"/><path class="cls-2" d="M89,409.23c0,1.39.53,2.88,2.22,2.88a1.88,1.88,0,0,0,2-1.36h2.93a4.76,4.76,0,0,1-5,3.7c-3.63,0-5.15-2.49-5.15-5.87,0-2.82,1.41-5.94,5.28-5.94s5,2.73,5,5.68c0,0.15,0,.75,0,0.92H89Zm4.33-2c0-1.28-.57-2.4-2.11-2.4-1.69,0-2.11,1.39-2.18,2.4h4.29Z"/><path class="cls-2" d="M100.91,409.23c0,1.39.53,2.88,2.22,2.88a1.88,1.88,0,0,0,2-1.36H108a4.76,4.76,0,0,1-5,3.7c-3.63,0-5.15-2.49-5.15-5.87,0-2.82,1.41-5.94,5.28-5.94s5,2.73,5,5.68c0,0.15,0,.75,0,0.92h-7.19Zm4.33-2c0-1.28-.57-2.4-2.11-2.4-1.69,0-2.11,1.39-2.18,2.4h4.29Z"/><path class="cls-2" d="M110.28,418.62V406.15c0-1.54,0-2.55,0-3.3h2.9c0,0.37.07,0.95,0.09,1.52a3.38,3.38,0,0,1,3.28-1.74c2.38,0,4.31,1.83,4.31,5.81,0,3.7-2.09,6-4.84,6a3,3,0,0,1-2.75-1.19v5.37h-3Zm5.19-13.55c-1.8,0-2.35,1-2.35,3.5,0,2.2.51,3.48,2.27,3.48,1.58,0,2.42-1.23,2.42-3.56S116.83,405.07,115.47,405.07Z"/><path class="cls-2" d="M125.41,409.23c0,1.39.53,2.88,2.22,2.88a1.88,1.88,0,0,0,2-1.36h2.93a4.76,4.76,0,0,1-5,3.7c-3.63,0-5.15-2.49-5.15-5.87,0-2.82,1.41-5.94,5.28-5.94s5,2.73,5,5.68c0,0.15,0,.75,0,0.92h-7.2Zm4.33-2c0-1.28-.57-2.4-2.11-2.4-1.69,0-2.11,1.39-2.18,2.4h4.29Z"/><path class="cls-2" d="M134.78,406.72c0-1.87,0-3.08,0-3.87h2.9a17,17,0,0,1,.09,2,3.51,3.51,0,0,1,3.46-2.18v3c-2.35,0-3.41.75-3.41,3.37v5.17h-3v-7.52Z"/><path class="cls-2" d="M148.14,407.31v2.51h-5.7v-2.51h5.7Z"/><path class="cls-2" d="M160.75,398.25v12.83c0,1.32,0,2.51,0,3.17h-2.91a12.27,12.27,0,0,1-.11-1.34c-0.53,1-1.39,1.56-3.19,1.56-2.9,0-4.4-2.38-4.4-5.9s1.83-5.94,4.88-5.94c1.69,0,2.44.59,2.68,1.06v-5.43h3ZM155.58,412c1.94,0,2.31-1.32,2.31-3.54,0-2.44-.48-3.43-2.22-3.43-1.47,0-2.44,1.12-2.44,3.39S153.95,412,155.58,412Z"/><path class="cls-2" d="M166,409.23c0,1.39.53,2.88,2.22,2.88a1.88,1.88,0,0,0,2-1.36h2.93a4.76,4.76,0,0,1-5,3.7c-3.63,0-5.15-2.49-5.15-5.87,0-2.82,1.41-5.94,5.28-5.94s5,2.73,5,5.68c0,0.15,0,.75,0,0.92H166Zm4.33-2c0-1.28-.57-2.4-2.11-2.4-1.69,0-2.11,1.39-2.18,2.4h4.29Z"/><path class="cls-2" d="M175.37,418.62V406.15c0-1.54,0-2.55,0-3.3h2.91c0,0.37.07,0.95,0.09,1.52a3.37,3.37,0,0,1,3.28-1.74c2.38,0,4.31,1.83,4.31,5.81,0,3.7-2.09,6-4.84,6a3,3,0,0,1-2.75-1.19v5.37h-3Zm5.19-13.55c-1.8,0-2.35,1-2.35,3.5,0,2.2.51,3.48,2.27,3.48,1.58,0,2.42-1.23,2.42-3.56S181.93,405.07,180.57,405.07Z"/><path class="cls-2" d="M188.09,414.25v-16h3v16h-3Z"/><path class="cls-2" d="M204,408.39c0,3.32-1.58,6.07-5.46,6.07s-5.37-2.93-5.37-6c0-2.84,1.61-5.83,5.52-5.83C202.39,402.63,204,405.31,204,408.39Zm-7.79,0c0,2.44.84,3.74,2.44,3.74s2.33-1.3,2.33-3.7-0.79-3.43-2.42-3.43S196.25,406.3,196.25,408.37Z"/><path class="cls-2" d="M208.07,402.85c1.34,4.84,2.11,7.5,2.29,8.8h0c0.31-1.41,1.34-5.37,2.29-8.8h3l-3.87,11.88c-1.19,3.65-2.6,4.07-4.53,4.07-0.22,0-.79,0-1.14-0.09v-2.44a9,9,0,0,0,1,.07,1.78,1.78,0,0,0,1.74-1.56l-4-11.93h3.17Z"/><path class="cls-2" d="M217.06,406.39c0-2.25,0-3,0-3.54h2.9c0,0.4.07,0.92,0.09,1.36a3.53,3.53,0,0,1,3.17-1.58,2.81,2.81,0,0,1,2.84,1.78,3.86,3.86,0,0,1,3.41-1.78c1.91,0,3.63,1,3.63,4v7.63h-2.93v-7.15c0-1-.37-2-1.65-2s-1.94,1-1.94,2.66v6.49h-2.93V407a1.66,1.66,0,0,0-1.65-1.91c-1.3,0-2,.81-2,2.82v6.34h-2.95v-7.85Z"/><path class="cls-2" d="M238.23,409.23c0,1.39.53,2.88,2.22,2.88a1.88,1.88,0,0,0,2-1.36h2.93a4.76,4.76,0,0,1-5,3.7c-3.63,0-5.15-2.49-5.15-5.87,0-2.82,1.41-5.94,5.28-5.94s5,2.73,5,5.68c0,0.15,0,.75,0,0.92h-7.2Zm4.33-2c0-1.28-.57-2.4-2.11-2.4-1.69,0-2.11,1.39-2.18,2.4h4.29Z"/><path class="cls-2" d="M247.6,406.41c0-2.35,0-3.06,0-3.56h2.9a10.66,10.66,0,0,1,.11,1.47,3.45,3.45,0,0,1,3.17-1.69c2.4,0,3.61,1.54,3.61,4.16v7.46h-3v-6.89c0-1.3-.33-2.27-1.74-2.27s-2,.79-2,2.79v6.36h-3v-7.83Z"/><path class="cls-2" d="M258.84,402.85h1.61v-3.08h3v3.08h2v2.33h-2V411a0.91,0.91,0,0,0,1.12,1.1,3.79,3.79,0,0,0,.68,0v2a6.53,6.53,0,0,1-1.83.22c-2.2,0-2.95-.88-2.95-3v-6.18h-1.61v-2.33Z"/><path class="cls-2" d="M75.61,433.27c0-1.78,0-3.23,0-3.79h1.78c0,0.53,0,1.23,0,2.27A3.74,3.74,0,0,1,81,429.29v1.89c-2.51.09-3.56,1.56-3.56,4v5.48H75.61v-7.37Z"/><path class="cls-2" d="M83.86,435.41c0,2.24.95,3.92,2.9,3.92a2.56,2.56,0,0,0,2.57-1.83h1.78a4.26,4.26,0,0,1-4.44,3.37c-3.48,0-4.67-2.75-4.67-5.83,0-2.75,1.34-5.76,4.77-5.76s4.51,2.73,4.51,5.3v0.84H83.86Zm5.63-1.32c0-1.91-.81-3.34-2.75-3.34-2.2,0-2.73,2-2.84,3.34h5.59Z"/><path class="cls-2" d="M93.71,445.07v-12.3c0-1.52,0-2.6,0-3.28h1.8c0,0.37,0,1.17,0,1.8a3.59,3.59,0,0,1,3.48-2c2.44,0,4.18,1.91,4.18,5.61s-2,5.94-4.62,5.94a3.17,3.17,0,0,1-3-1.52v5.77h-1.8Zm4.71-14.21c-2.29,0-3,1.56-3,4.25,0,2.46.46,4.16,2.86,4.16,1.87,0,3-1.54,3-4.31S100.2,430.85,98.42,430.85Z"/><path class="cls-2" d="M105.61,440.65v-16h1.83v16h-1.83Z"/><path class="cls-2" d="M110.65,427v-2.35h1.83V427h-1.83Zm0,2.51h1.83v11.16h-1.83V429.49Z"/><path class="cls-2" d="M124.14,437.08a4.29,4.29,0,0,1-4.49,3.78c-3.12,0-4.71-2.09-4.71-5.81,0-3.23,1.63-5.79,4.82-5.79a4.08,4.08,0,0,1,4.36,3.89h-1.83a2.51,2.51,0,0,0-2.55-2.4c-2,0-2.93,1.78-2.93,4.25,0,2.86,1,4.36,2.9,4.36,1.54,0,2.2-1,2.6-2.29h1.83Z"/><path class="cls-2" d="M134.37,438.16a20.75,20.75,0,0,0,.15,2.49h-1.65a10.16,10.16,0,0,1-.15-1.72,3.32,3.32,0,0,1-3.39,1.92,3.2,3.2,0,0,1-3.54-3.39c0-1.67,1.08-3.54,5.06-3.54h1.72v-1.08c0-1.06-.31-2.16-2.2-2.16a2,2,0,0,0-2.35,2h-1.78c0.15-1.87,1.23-3.39,4.2-3.39,2.33,0,3.94.95,3.94,3.48v5.41Zm-1.76-2.93h-1.76c-2.71,0-3.21,1.1-3.21,2.11a1.89,1.89,0,0,0,2.07,2c2.2,0,2.9-1.5,2.9-3.87v-0.24Z"/><path class="cls-2" d="M135.91,429.49h1.78v-3.23h1.83v3.23h2.24V431h-2.24v7c0,0.95.24,1.34,1.19,1.34a4.91,4.91,0,0,0,.86-0.09v1.39a4.88,4.88,0,0,1-1.45.18c-1.63,0-2.42-.62-2.42-2.46V431h-1.78v-1.5Z"/><path class="cls-2" d="M143.7,427v-2.35h1.83V427H143.7Zm0,2.51h1.83v11.16H143.7V429.49Z"/><path class="cls-2" d="M157.8,434.88c0,3.23-1.41,6-5,6S148,438,148,434.95s1.61-5.68,5-5.68C156.1,429.27,157.8,431.67,157.8,434.88Zm-7.94,0c0,2.55,1.06,4.4,3.06,4.4s3-1.8,3-4.42c0-2.44-1-4.11-3-4.11S149.85,432.48,149.85,434.92Z"/><path class="cls-2" d="M160.24,433c0-2.33,0-3,0-3.5H162a13.24,13.24,0,0,1,.07,1.74,3.42,3.42,0,0,1,3.3-2c2.07,0,3.54,1.17,3.54,4.18v7.2h-1.83v-6.91c0-1.63-.55-2.86-2.22-2.86-2,0-2.77,1.47-2.77,3.81v6h-1.83V433Z"/><path class="cls-2" d="M186,437.08a4.29,4.29,0,0,1-4.49,3.78c-3.12,0-4.71-2.09-4.71-5.81,0-3.23,1.63-5.79,4.82-5.79a4.08,4.08,0,0,1,4.36,3.89h-1.83a2.51,2.51,0,0,0-2.55-2.4c-2,0-2.93,1.78-2.93,4.25,0,2.86,1,4.36,2.9,4.36,1.54,0,2.2-1,2.6-2.29H186Z"/><path class="cls-2" d="M197.44,434.88c0,3.23-1.41,6-5,6s-4.84-2.84-4.84-5.9,1.61-5.68,5-5.68C195.75,429.27,197.44,431.67,197.44,434.88Zm-7.94,0c0,2.55,1.06,4.4,3.06,4.4s3-1.8,3-4.42c0-2.44-1-4.11-3-4.11S189.5,432.48,189.5,434.92Z"/><path class="cls-2" d="M199.88,433c0-2.33,0-3,0-3.5h1.78a13.24,13.24,0,0,1,.07,1.74,3.42,3.42,0,0,1,3.3-2c2.07,0,3.54,1.17,3.54,4.18v7.2H206.7v-6.91c0-1.63-.55-2.86-2.22-2.86-2,0-2.77,1.47-2.77,3.81v6h-1.83V433Z"/><path class="cls-2" d="M210.16,429.49h1.78v-3.23h1.83v3.23H216V431h-2.24v7c0,0.95.24,1.34,1.19,1.34a4.91,4.91,0,0,0,.86-0.09v1.39a4.88,4.88,0,0,1-1.45.18c-1.63,0-2.42-.62-2.42-2.46V431h-1.78v-1.5Z"/><path class="cls-2" d="M217.81,433.27c0-1.78,0-3.23,0-3.79h1.78c0,0.53,0,1.23,0,2.27a3.74,3.74,0,0,1,3.61-2.46v1.89c-2.51.09-3.56,1.56-3.56,4v5.48h-1.83v-7.37Z"/><path class="cls-2" d="M234,434.88c0,3.23-1.41,6-5,6s-4.84-2.84-4.84-5.9,1.61-5.68,5-5.68C232.33,429.27,234,431.67,234,434.88Zm-7.94,0c0,2.55,1.06,4.4,3.06,4.4s3-1.8,3-4.42c0-2.44-1-4.11-3-4.11S226.08,432.48,226.08,434.92Z"/><path class="cls-2" d="M236.47,440.65v-16h1.83v16h-1.83Z"/><path class="cls-2" d="M241.5,440.65v-16h1.83v16H241.5Z"/><path class="cls-2" d="M247.64,435.41c0,2.24.95,3.92,2.9,3.92a2.56,2.56,0,0,0,2.58-1.83h1.78a4.26,4.26,0,0,1-4.45,3.37c-3.48,0-4.66-2.75-4.66-5.83,0-2.75,1.34-5.76,4.77-5.76s4.51,2.73,4.51,5.3v0.84h-7.44Zm5.63-1.32c0-1.91-.81-3.34-2.75-3.34-2.2,0-2.73,2-2.84,3.34h5.59Z"/><path class="cls-2" d="M257.5,433.27c0-1.78,0-3.23,0-3.79h1.78c0,0.53,0,1.23,0,2.27a3.74,3.74,0,0,1,3.61-2.46v1.89c-2.51.09-3.56,1.56-3.56,4v5.48H257.5v-7.37Z"/><rect class="cls-3" x="381.93" y="392.54" width="219.58" height="140.96" rx="19.34" ry="19.34"/><path class="cls-2" d="M442,407.67c0.81-1,2.31-3,3.63-4.75H449c-1.1,1.34-2.55,3-3.76,4.44,1.25,2,2.77,4.69,4.09,7h-3.43c-0.77-1.43-1.85-3.48-2.64-5,0,0.07-1.21,1.34-1.28,1.39v3.59h-3v-16h3v9.35Z"/><path class="cls-2" d="M452.62,409.29c0,1.39.53,2.88,2.22,2.88a1.88,1.88,0,0,0,2-1.36h2.93a4.76,4.76,0,0,1-5,3.7c-3.63,0-5.15-2.49-5.15-5.87,0-2.82,1.41-5.94,5.28-5.94s5,2.73,5,5.68c0,0.15,0,.75,0,0.92h-7.19Zm4.33-2c0-1.28-.57-2.4-2.11-2.4-1.69,0-2.11,1.39-2.18,2.4H457Z"/><path class="cls-2" d="M464.5,409.29c0,1.39.53,2.88,2.22,2.88a1.88,1.88,0,0,0,2-1.36h2.93a4.76,4.76,0,0,1-5,3.7c-3.63,0-5.15-2.49-5.15-5.87,0-2.82,1.41-5.94,5.28-5.94s5,2.73,5,5.68c0,0.15,0,.75,0,0.92H464.5Zm4.33-2c0-1.28-.57-2.4-2.11-2.4-1.69,0-2.11,1.39-2.18,2.4h4.29Z"/><path class="cls-2" d="M473.87,418.69V406.21c0-1.54,0-2.55,0-3.3h2.9c0,0.37.07,0.95,0.09,1.52a3.38,3.38,0,0,1,3.28-1.74c2.38,0,4.31,1.83,4.31,5.81,0,3.7-2.09,6-4.84,6a3,3,0,0,1-2.75-1.19v5.37h-3Zm5.19-13.55c-1.8,0-2.35,1-2.35,3.5,0,2.2.51,3.48,2.27,3.48,1.58,0,2.42-1.23,2.42-3.56S480.43,405.14,479.06,405.14Z"/><path class="cls-2" d="M489,409.29c0,1.39.53,2.88,2.22,2.88a1.88,1.88,0,0,0,2-1.36h2.93a4.76,4.76,0,0,1-5,3.7c-3.63,0-5.15-2.49-5.15-5.87,0-2.82,1.41-5.94,5.28-5.94s5,2.73,5,5.68c0,0.15,0,.75,0,0.92H489Zm4.33-2c0-1.28-.57-2.4-2.11-2.4-1.69,0-2.11,1.39-2.18,2.4h4.29Z"/><path class="cls-2" d="M498.38,406.79c0-1.87,0-3.08,0-3.87h2.9a17,17,0,0,1,.09,2,3.51,3.51,0,0,1,3.46-2.18v3c-2.35,0-3.41.75-3.41,3.37v5.17h-3v-7.52Z"/><path class="cls-2" d="M512.13,418.73v-12.3c0-1.52,0-2.6,0-3.28h1.8c0,0.37,0,1.17,0,1.8a3.59,3.59,0,0,1,3.48-2c2.44,0,4.18,1.91,4.18,5.61s-2,5.94-4.62,5.94a3.17,3.17,0,0,1-3-1.52v5.76h-1.8Zm4.71-14.21c-2.29,0-3,1.56-3,4.25,0,2.46.46,4.16,2.86,4.16,1.87,0,3-1.54,3-4.31S518.62,404.52,516.84,404.52Z"/><path class="cls-2" d="M533.09,408.55c0,3.23-1.41,6-5,6s-4.84-2.84-4.84-5.9,1.61-5.68,5-5.68C531.4,402.94,533.09,405.33,533.09,408.55Zm-7.94,0c0,2.55,1.06,4.4,3.06,4.4s3-1.8,3-4.42c0-2.44-1-4.12-3-4.12S525.15,406.15,525.15,408.59Z"/><path class="cls-2" d="M544.2,398.29v13.11c0,1.08,0,2.22,0,2.9h-1.78c0-.29-0.07-1-0.07-1.65-0.59,1.3-1.5,1.85-3.32,1.85-2.88,0-4.33-2.44-4.33-5.76s1.67-5.81,4.71-5.81c1.8,0,2.64.73,2.95,1.34v-6h1.8Zm-4.64,14.65c2.4,0,2.9-1.83,2.9-4.44,0-3.08-.9-4-2.79-4s-3,1.5-3,4.16S537.8,412.95,539.56,412.95Z"/><path class="cls-2" d="M468.45,441.59c0-2.33,0-3,0-3.5h1.78a13.21,13.21,0,0,1,.07,1.74,3.42,3.42,0,0,1,3.3-2c2.07,0,3.54,1.17,3.54,4.18v7.19h-1.83v-6.91c0-1.63-.55-2.86-2.22-2.86-2,0-2.77,1.47-2.77,3.81v6h-1.83v-7.66Z"/><path class="cls-2" d="M488.93,448.39c0,3.5-1.41,5.46-4.8,5.46s-4.25-1.76-4.4-3.34h1.8c0.26,1.25,1.25,1.85,2.68,1.85,2.38,0,2.93-1.56,2.93-4v-0.9c-0.57,1.23-1.54,1.83-3.28,1.83-2.62,0-4.31-2.2-4.31-5.66,0-3.61,2-5.74,4.58-5.74,1.76,0,2.66.73,3,1.58a10.31,10.31,0,0,1,.09-1.36H489c0,0.53,0,1.72,0,3.23v7.06Zm-4.62-.7c2.13,0,2.88-1.34,2.88-4.14s-0.62-4.09-2.77-4.09c-1.85,0-3,1.54-3,4.14S482.55,447.68,484.31,447.68Z"/><path class="cls-2" d="M492.12,435.58v-2.35h1.83v2.35h-1.83Zm0,2.51h1.83v11.16h-1.83V438.09Z"/><path class="cls-2" d="M497.16,441.59c0-2.33,0-3,0-3.5h1.78a13.39,13.39,0,0,1,.07,1.74,3.42,3.42,0,0,1,3.3-2c2.07,0,3.54,1.17,3.54,4.18v7.19H504v-6.91c0-1.63-.55-2.86-2.22-2.86-2,0-2.77,1.47-2.77,3.81v6h-1.83v-7.66Z"/><path class="cls-2" d="M509.46,438.09c1.45,2.44,2.16,3.59,2.51,4.22h0c0.44-.75,1.36-2.18,2.62-4.22h2L513,443.44l3.59,5.81h-2.09c-1.28-2.16-2.2-3.67-2.62-4.4h0c-0.33.62-1.3,2.29-2.6,4.4h-2l3.54-5.54-3.43-5.61h2.07Z"/><path class="cls-2" d="M474.73,512.1c0,1.39,0,2.62,0,3.15H473a11.29,11.29,0,0,1-.09-1.78,3.32,3.32,0,0,1-3.28,2c-1.74,0-3.41-.84-3.41-3.85v-7.5H468v7.15c0,1.45.46,2.62,2.16,2.62s2.68-1.08,2.68-3.54v-6.23h1.85v8Z"/><path class="cls-2" d="M478.71,504.09c1.28,4.91,2,7.81,2.31,9.29h0c0.26-1.34.88-3.5,2.46-9.29h1.78c1.5,5.5,2.16,8,2.33,9.2h0c0.24-1.23.88-3.52,2.44-9.2H492l-3.39,11.16h-1.91c-1-3.67-2-7.17-2.31-8.87h0c-0.29,1.65-1.3,5.08-2.4,8.87h-2l-3.19-11.16h2Z"/><path class="cls-2" d="M494.66,512a2.3,2.3,0,0,0,2.51,2c1.54,0,2.13-.81,2.13-1.76s-0.7-1.54-2.6-2c-2.73-.75-3.43-1.74-3.43-3.24s1-3.1,3.74-3.1,3.74,1.5,3.89,3.21h-1.8a2,2,0,0,0-2.18-1.78c-1.25,0-1.83.59-1.83,1.52s0.42,1.3,2.29,1.78c2.84,0.77,3.74,1.72,3.74,3.5,0,2.07-1.63,3.34-4,3.34s-4-1.1-4.25-3.43h1.8Z"/><path class="cls-2" d="M512.15,514.39c0,3.5-1.41,5.46-4.8,5.46s-4.25-1.76-4.4-3.34h1.8c0.26,1.25,1.25,1.85,2.68,1.85,2.38,0,2.93-1.56,2.93-4v-0.9c-0.57,1.23-1.54,1.83-3.28,1.83-2.62,0-4.31-2.2-4.31-5.66,0-3.61,2-5.74,4.58-5.74,1.76,0,2.66.73,3,1.58a10.31,10.31,0,0,1,.09-1.36h1.78c0,0.53,0,1.72,0,3.23v7.06Zm-4.62-.7c2.13,0,2.88-1.34,2.88-4.14s-0.62-4.09-2.77-4.09c-1.85,0-3,1.54-3,4.14S505.77,513.68,507.53,513.68Z"/><path class="cls-2" d="M515.34,501.58v-2.35h1.83v2.35h-1.83Zm0,2.51h1.83v11.16h-1.83V504.09Z"/><rect class="cls-4" x="447.11" y="427.73" width="89.23" height="31.36" rx="5.82" ry="5.82"/><rect class="cls-4" x="447.11" y="492.56" width="89.23" height="31.36" rx="5.82" ry="5.82"/><line class="cls-5" x1="747" y1="187.05" x2="601" y2="187.05"/><line class="cls-5" x1="756" y1="407.05" x2="600" y2="407.05"/><line class="cls-5" x1="492" y1="524.05" x2="492" y2="585.05"/><line class="cls-5" x1="492" y1="342.05" x2="492" y2="380.05"/><line class="cls-5" x1="492" y1="206.05" x2="492" y2="276.05"/><line class="cls-5" x1="452" y1="112.05" x2="452" y2="166.05"/><line class="cls-5" x1="532" y1="112.05" x2="532" y2="166.05"/><line class="cls-5" x1="452" y1="19.05" x2="452" y2="46.05"/><line class="cls-5" x1="532" y1="19.05" x2="532" y2="46.05"/><line class="cls-5" x1="492" y1="459.05" x2="492" y2="493.05"/><rect class="cls-6" x="432.91" width="38.18" height="19.05" rx="2.97" ry="2.97"/><path class="cls-7" d="M443.22,8.42V5.75H445V8.42h-1.76Zm0,6.3V12.05H445v2.67h-1.76Z"/><path class="cls-7" d="M446.56,11.31A3,3,0,0,1,448,8.42a2.73,2.73,0,0,1-1.17-2.5,2.92,2.92,0,0,1,3.1-3.19,2.77,2.77,0,0,1,3,3c0,1.55-.58,2.32-1.21,2.63,0.77,0.36,1.48,1.19,1.48,3a3.19,3.19,0,0,1-3.4,3.53C447.68,14.88,446.56,13.49,446.56,11.31Zm4.79,0c0-1.46-.49-2.11-1.48-2.11s-1.46.76-1.46,2.09,0.43,2.12,1.48,2.12S451.35,12.63,451.35,11.3Zm-2.72-5.42c0,1.17.36,1.82,1.28,1.82s1.26-.58,1.26-1.78c0-1-.36-1.73-1.28-1.73S448.64,4.92,448.64,5.88Z"/><path class="cls-7" d="M461.22,8.67c0,4.5-1,6.21-3.35,6.21s-3.35-1.84-3.35-6.21c0-4.7,1.35-6,3.4-6S461.22,4.17,461.22,8.67Zm-4.81-.05c0,3.1.2,4.72,1.48,4.72s1.46-1.55,1.46-4.68-0.25-4.36-1.46-4.36S456.41,5.46,456.41,8.61Z"/><rect class="cls-6" x="512.91" width="38.18" height="19.05" rx="2.97" ry="2.97"/><path class="cls-7" d="M519.37,8.42V5.75h1.76V8.42h-1.76Zm0,6.3V12.05h1.76v2.67h-1.76Z"/><path class="cls-7" d="M526.63,14.72V11.78h-4.21V10.25L526,2.85h2.39v7.4h1.1l-0.16,1.53h-0.94v2.94h-1.75Zm0-7.18c0-1.19,0-2.23.07-3.19-0.45,1.31-1.75,4.16-2.54,5.91h2.47V7.53Z"/><path class="cls-7" d="M534.73,14.72V11.78h-4.21V10.25l3.57-7.4h2.39v7.4h1.1l-0.16,1.53h-0.94v2.94h-1.75Zm0-7.18c0-1.19,0-2.23.07-3.19-0.45,1.31-1.75,4.16-2.54,5.91h2.47V7.53Z"/><path class="cls-7" d="M538.81,5.93a2.92,2.92,0,0,1,3.1-3.22,2.69,2.69,0,0,1,3,3,2.35,2.35,0,0,1-1.42,2.48v0c1,0.32,1.78,1.13,1.78,2.9,0,2-.76,3.73-3.38,3.73a3,3,0,0,1-3.22-3.21h1.8a1.52,1.52,0,0,0,1.46,1.71c1.15,0,1.46-.94,1.46-2.18,0-1.55-.58-2.09-1.94-2.09h-0.52V7.59h0.49c1.13,0,1.66-.38,1.66-1.75,0-1-.25-1.62-1.21-1.62s-1.24,1.06-1.28,1.71h-1.71Z"/><rect class="cls-8" x="466.88" y="226.76" width="49.44" height="19.05" rx="3.37" ry="3.37"/><path class="cls-7" d="M474.82,235.17v-2.67h1.76v2.67h-1.76Zm0,6.3v-2.67h1.76v2.67h-1.76Z"/><path class="cls-7" d="M478.17,238.07a3,3,0,0,1,1.46-2.9,2.73,2.73,0,0,1-1.17-2.5,2.92,2.92,0,0,1,3.1-3.19,2.77,2.77,0,0,1,3,3c0,1.55-.58,2.32-1.21,2.63,0.77,0.36,1.48,1.19,1.48,3a3.19,3.19,0,0,1-3.4,3.53C479.28,241.64,478.17,240.25,478.17,238.07Zm4.79,0c0-1.46-.49-2.11-1.48-2.11S480,236.7,480,238s0.43,2.12,1.48,2.12S483,239.38,483,238.05Zm-2.72-5.42c0,1.17.36,1.82,1.28,1.82s1.26-.58,1.26-1.78c0-1-.36-1.73-1.28-1.73S480.24,231.68,480.24,232.63Z"/><path class="cls-7" d="M492.82,235.42c0,4.5-1,6.21-3.35,6.21s-3.35-1.84-3.35-6.21c0-4.7,1.35-6,3.4-6S492.82,230.92,492.82,235.42Zm-4.81-.05c0,3.1.2,4.72,1.48,4.72s1.46-1.55,1.46-4.68-0.25-4.36-1.46-4.36S488,232.22,488,235.37Z"/><path class="cls-7" d="M494.17,238.07a3,3,0,0,1,1.46-2.9,2.73,2.73,0,0,1-1.17-2.5,2.92,2.92,0,0,1,3.1-3.19,2.77,2.77,0,0,1,3,3c0,1.55-.58,2.32-1.21,2.63,0.77,0.36,1.48,1.19,1.48,3a3.18,3.18,0,0,1-3.4,3.53C495.28,241.64,494.17,240.25,494.17,238.07Zm4.79,0c0-1.46-.49-2.11-1.48-2.11S496,236.7,496,238s0.43,2.12,1.48,2.12S499,239.38,499,238.05Zm-2.72-5.42c0,1.17.36,1.82,1.28,1.82s1.26-.58,1.26-1.78c0-1-.36-1.73-1.28-1.73S496.24,231.68,496.24,232.63Z"/><path class="cls-7" d="M508.82,235.42c0,4.5-1,6.21-3.35,6.21s-3.35-1.84-3.35-6.21c0-4.7,1.35-6,3.4-6S508.82,230.92,508.82,235.42Zm-4.81-.05c0,3.1.2,4.72,1.48,4.72s1.46-1.55,1.46-4.68S506.7,231,505.49,231,504,232.22,504,235.37Z"/><rect class="cls-8" x="472.7" y="466.52" width="38.6" height="19.05" rx="2.98" ry="2.98"/><path class="cls-7" d="M477,474.94v-2.67h1.76v2.67H477Zm0,6.3v-2.67h1.76v2.67H477Z"/><path class="cls-7" d="M480.58,472.46a2.92,2.92,0,0,1,3.1-3.22,2.69,2.69,0,0,1,3,3,2.35,2.35,0,0,1-1.42,2.49v0c1,0.32,1.78,1.13,1.78,2.9,0,2-.76,3.73-3.38,3.73a3,3,0,0,1-3.22-3.21h1.8a1.52,1.52,0,0,0,1.46,1.71c1.15,0,1.46-.94,1.46-2.18,0-1.55-.58-2.09-1.94-2.09h-0.52v-1.53h0.49c1.13,0,1.66-.38,1.66-1.75,0-1-.25-1.62-1.21-1.62s-1.24,1.06-1.28,1.71h-1.71Z"/><path class="cls-7" d="M495,475.19c0,4.5-1,6.21-3.35,6.21s-3.35-1.84-3.35-6.21c0-4.7,1.35-6,3.4-6S495,470.69,495,475.19Zm-4.81-.05c0,3.1.2,4.72,1.48,4.72s1.46-1.55,1.46-4.68-0.25-4.36-1.46-4.36S490.19,472,490.19,475.14Z"/><path class="cls-7" d="M496.35,472.46a2.92,2.92,0,0,1,3.1-3.22,2.69,2.69,0,0,1,3,3,2.35,2.35,0,0,1-1.42,2.49v0c1,0.32,1.78,1.13,1.78,2.9,0,2-.76,3.73-3.38,3.73a3,3,0,0,1-3.22-3.21H498a1.52,1.52,0,0,0,1.46,1.71c1.15,0,1.46-.94,1.46-2.18,0-1.55-.58-2.09-1.94-2.09H498.4v-1.53h0.49c1.13,0,1.66-.38,1.66-1.75,0-1-.25-1.62-1.21-1.62s-1.24,1.06-1.28,1.71h-1.71Z"/><path class="cls-7" d="M505.06,481.24v-9.71a6,6,0,0,1-1.42.2V470.3a4.21,4.21,0,0,0,2-1h1.26v11.9h-1.87Z"/></svg>