<svg id="Layer_1" data-name="Layer 1" xmlns="http://www.w3.org/2000/svg" viewBox="0 0 864.21 693.33"><defs><style>.cls-1{fill:#faf5e1;}.cls-2{fill:#34495e;}.cls-3{fill:#d4ecff;}.cls-4,.cls-5{fill:none;stroke:#2c3e50;stroke-miterlimit:10;}.cls-5{stroke-width:2px;}.cls-6{fill:#e74c3c;}.cls-7{fill:#fff;}.cls-8{fill:#2c3e50;}</style></defs><title>kubernetes_arch</title><rect class="cls-1" x="266" y="46.14" width="369.31" height="65.66"/><path class="cls-2" d="M392.08,63.93c0-1.14,0-2.44,0-3.41h4.13c.05.39.1,1.2.13,1.74a4.92,4.92,0,0,1,4.47-2.11c3.3,0,5.25,2.05,5.25,5.51V74h-4.29V66.34c0-1.53-.6-2.89-2.5-2.89s-2.91,1.38-2.91,3.8V74h-4.26Z" transform="translate(-48.07 0)"/><path class="cls-2" d="M424,72.46c0,4.84-2.11,7.54-7.8,7.54-6,0-7-3.3-7.25-4.78h4.29c.31.86,1,1.64,3.2,1.64,2.76,0,3.38-1.77,3.38-4.06v-.57c-.78,1.09-1.87,1.9-4.47,1.9a6.44,6.44,0,0,1-6.5-6.71,6.92,6.92,0,0,1,6.84-7.25c2.81,0,3.8,1.12,4.13,1.87,0-.47.05-1.17.08-1.51H424c0,1.33,0,2.65,0,4Zm-7.49-1.59c2.16,0,3.38-1.27,3.38-3.74,0-2.18-1.12-3.67-3.25-3.67s-3.46,1.66-3.46,3.8A3.3,3.3,0,0,0,416.52,70.87Z" transform="translate(-48.07 0)"/><path class="cls-2" d="M427.7,58V54.59h4.24V58Zm0,2.52h4.24V74H427.7Z" transform="translate(-48.07 0)"/><path class="cls-2" d="M435.52,63.93c0-1.14,0-2.44,0-3.41h4.13c.05.39.1,1.2.13,1.74a4.92,4.92,0,0,1,4.47-2.11c3.3,0,5.25,2.05,5.25,5.51V74h-4.29V66.34c0-1.53-.6-2.89-2.5-2.89s-2.91,1.38-2.91,3.8V74h-4.26Z" transform="translate(-48.07 0)"/><path class="cls-2" d="M456,60.52c1.66,2.11,2.83,3.54,3.28,4.13h.05c.6-.83,1.69-2.24,3.15-4.13H467l-5.38,6.42,5.64,7h-4.81c-1.66-2.18-2.83-3.61-3.35-4.32H459c-.44.57-1.48,1.9-3.33,4.32h-4.52l5.46-6.81-5.54-6.63Z" transform="translate(-48.07 0)"/><path class="cls-2" d="M476.86,65.56V69.1h-8.68V65.56Z" transform="translate(-48.07 0)"/><path class="cls-2" d="M483.18,69.83c.34,1,1.22,1.59,3,1.59s2.31-.55,2.31-1.2-.57-1.12-3.28-1.48c-5.12-.73-5.82-2.6-5.82-4.24,0-2.05,1.53-4.34,6.21-4.34s6.4,2.24,6.58,4.16h-4.16c-.21-.62-.68-1.35-2.57-1.35-1.61,0-1.9.62-1.9,1.09s.44.91,2.94,1.27c5.46.83,6.16,2.65,6.16,4.52,0,2.44-1.85,4.47-6.76,4.47-3.67,0-6.55-1.56-7-4.5Z" transform="translate(-48.07 0)"/><path class="cls-2" d="M498.78,69.83c.34,1,1.22,1.59,3,1.59s2.31-.55,2.31-1.2-.57-1.12-3.28-1.48C495.74,68,495,66.14,495,64.5c0-2.05,1.53-4.34,6.21-4.34s6.4,2.24,6.58,4.16h-4.16c-.21-.62-.68-1.35-2.57-1.35-1.61,0-1.9.62-1.9,1.09s.44.91,2.94,1.27c5.46.83,6.16,2.65,6.16,4.52,0,2.44-1.85,4.47-6.76,4.47-3.67,0-6.55-1.56-7-4.5Z" transform="translate(-48.07 0)"/><path class="cls-2" d="M510.82,74V54.59h4.24V74Z" transform="translate(-48.07 0)"/><path class="cls-2" d="M526.86,65.56V69.1h-8.68V65.56Z" transform="translate(-48.07 0)"/><path class="cls-2" d="M530,79.63V63.82c0-1.09,0-2.21,0-3.3h4.16a14.22,14.22,0,0,1,.1,1.74c.75-1.12,2.11-2.11,4.68-2.11A6.48,6.48,0,0,1,545.24,67c0,4.68-3.35,7.36-6.86,7.36a5,5,0,0,1-4.13-1.66v7Zm7.54-16.17c-2.47,0-3.41,1.59-3.41,3.8S535.31,71,537.49,71s3.38-1.51,3.38-3.77C540.87,65.23,539.75,63.46,537.54,63.46Z" transform="translate(-48.07 0)"/><path class="cls-2" d="M548.07,64.19c0-1.22,0-2.44,0-3.67h4.13c.08.49.13,2,.13,2.7a5.07,5.07,0,0,1,5.17-3v3.87c-3-.05-5.17,1.17-5.17,5V74h-4.24Z" transform="translate(-48.07 0)"/><path class="cls-2" d="M574.44,67.23c0,4.13-2.86,7.1-7.85,7.1S559,71,559,67.23s2.65-7.07,7.72-7.07C572,60.16,574.44,63.9,574.44,67.23Zm-11.1,0c0,2.11,1.17,3.9,3.38,3.9s3.35-1.77,3.35-3.82-1-3.93-3.38-3.93S563.33,65.17,563.33,67.23Z" transform="translate(-48.07 0)"/><path class="cls-2" d="M579.92,60.52c1.66,2.11,2.83,3.54,3.28,4.13h.05c.6-.83,1.69-2.24,3.15-4.13h4.52l-5.38,6.42,5.64,7h-4.81c-1.66-2.18-2.83-3.61-3.35-4.32H583c-.44.57-1.48,1.9-3.33,4.32h-4.52l5.46-6.81L575,60.52Z" transform="translate(-48.07 0)"/><path class="cls-2" d="M595.89,60.52a105.62,105.62,0,0,1,3.56,10h.08c.36-1.33,1.4-4.89,3.22-10h4.34L602.59,72c-2.31,6-3,8-7.62,8a13,13,0,0,1-2.08-.16V76.41c.62.05.94.08,1.35.08,1.85,0,2.26-.6,3-2l-6-14Z" transform="translate(-48.07 0)"/><path class="cls-2" d="M357.56,95.13c0,2.24.95,3.92,2.9,3.92A2.56,2.56,0,0,0,363,97.22h1.78a4.26,4.26,0,0,1-4.44,3.37c-3.48,0-4.67-2.75-4.67-5.83,0-2.75,1.34-5.76,4.77-5.76s4.51,2.73,4.51,5.3v.84Zm5.63-1.32c0-1.91-.81-3.34-2.75-3.34-2.2,0-2.73,2-2.84,3.34Z" transform="translate(-48.07 0)"/><path class="cls-2" d="M368,89.21c1.45,2.44,2.16,3.59,2.51,4.22h0c.44-.75,1.36-2.18,2.62-4.22h2l-3.56,5.35,3.59,5.81h-2.09c-1.28-2.16-2.2-3.67-2.62-4.4h0c-.33.62-1.3,2.29-2.6,4.4h-2l3.54-5.54-3.43-5.61Z" transform="translate(-48.07 0)"/><path class="cls-2" d="M376,89.21h1.78V86h1.83v3.23h2.24v1.5h-2.24v7c0,.95.24,1.34,1.19,1.34a4.91,4.91,0,0,0,.86-.09v1.39a4.86,4.86,0,0,1-1.45.18c-1.63,0-2.42-.62-2.42-2.46V90.7H376Z" transform="translate(-48.07 0)"/><path class="cls-2" d="M384.84,95.13c0,2.24.95,3.92,2.9,3.92a2.56,2.56,0,0,0,2.57-1.83h1.78a4.26,4.26,0,0,1-4.44,3.37c-3.48,0-4.67-2.75-4.67-5.83C383,92,384.34,89,387.77,89s4.51,2.73,4.51,5.3v.84Zm5.63-1.32c0-1.91-.81-3.34-2.75-3.34-2.2,0-2.73,2-2.84,3.34Z" transform="translate(-48.07 0)"/><path class="cls-2" d="M394.7,93c0-1.78,0-3.23,0-3.78h1.78c0,.53,0,1.23,0,2.27A3.74,3.74,0,0,1,400.09,89V90.9c-2.51.09-3.56,1.56-3.56,4v5.48H394.7Z" transform="translate(-48.07 0)"/><path class="cls-2" d="M401.87,92.71c0-2.33,0-3,0-3.5h1.78a13.24,13.24,0,0,1,.07,1.74,3.42,3.42,0,0,1,3.3-2c2.07,0,3.54,1.17,3.54,4.18v7.19h-1.83V93.45c0-1.63-.55-2.86-2.22-2.86-2,0-2.77,1.47-2.77,3.81v6h-1.83Z" transform="translate(-48.07 0)"/><path class="cls-2" d="M421.36,97.88a21,21,0,0,0,.15,2.49h-1.65a10.16,10.16,0,0,1-.15-1.72,3.32,3.32,0,0,1-3.39,1.91,3.2,3.2,0,0,1-3.54-3.39c0-1.67,1.08-3.54,5.06-3.54h1.72V92.55c0-1.06-.31-2.16-2.2-2.16a2,2,0,0,0-2.35,2h-1.78c.15-1.87,1.23-3.39,4.2-3.39,2.33,0,3.94.95,3.94,3.48ZM419.6,95h-1.76c-2.71,0-3.21,1.1-3.21,2.11a1.89,1.89,0,0,0,2.07,2c2.2,0,2.9-1.5,2.9-3.87Z" transform="translate(-48.07 0)"/><path class="cls-2" d="M424.58,100.36v-16h1.83v16Z" transform="translate(-48.07 0)"/><path class="cls-2" d="M435,100.36v-16h1.83v16Z" transform="translate(-48.07 0)"/><path class="cls-2" d="M449.13,94.6c0,3.23-1.41,6-5,6s-4.84-2.84-4.84-5.9,1.61-5.68,5-5.68C447.43,89,449.13,91.39,449.13,94.6Zm-7.94,0c0,2.55,1.06,4.4,3.06,4.4s3-1.8,3-4.42c0-2.44-1-4.11-3-4.11S441.18,92.2,441.18,94.64Z" transform="translate(-48.07 0)"/><path class="cls-2" d="M459.4,97.88a21,21,0,0,0,.15,2.49h-1.65a10.16,10.16,0,0,1-.15-1.72,3.32,3.32,0,0,1-3.39,1.91,3.2,3.2,0,0,1-3.54-3.39c0-1.67,1.08-3.54,5.06-3.54h1.72V92.55c0-1.06-.31-2.16-2.2-2.16a2,2,0,0,0-2.35,2h-1.78c.15-1.87,1.23-3.39,4.2-3.39,2.33,0,3.94.95,3.94,3.48ZM457.64,95h-1.76c-2.71,0-3.21,1.1-3.21,2.11a1.89,1.89,0,0,0,2.07,2c2.2,0,2.9-1.5,2.9-3.87Z" transform="translate(-48.07 0)"/><path class="cls-2" d="M471.28,84.34V97.46c0,1.08,0,2.22,0,2.9h-1.78c0-.29-.07-1-.07-1.65-.59,1.3-1.5,1.85-3.32,1.85-2.88,0-4.33-2.44-4.33-5.77S463.49,89,466.53,89c1.8,0,2.64.73,2.95,1.34v-6ZM466.64,99c2.4,0,2.9-1.83,2.9-4.44,0-3.08-.9-4-2.79-4s-3,1.5-3,4.16S464.88,99,466.64,99Z" transform="translate(-48.07 0)"/><path class="cls-2" d="M479.93,84.34h1.83v6.4A3.58,3.58,0,0,1,485.1,89c2.71,0,4.29,2.22,4.29,5.46,0,3.39-1.43,6.12-4.62,6.12a3.07,3.07,0,0,1-3-1.61,10,10,0,0,1-.07,1.41h-1.78c0-.62,0-1.78,0-3.17Zm4.73,6.23c-2.22,0-3,1.43-3,4.07s.64,4.33,2.95,4.33c2,0,2.93-1.85,2.93-4.47C487.52,92.16,486.57,90.57,484.66,90.57Z" transform="translate(-48.07 0)"/><path class="cls-2" d="M499.66,97.88a20.94,20.94,0,0,0,.15,2.49h-1.65a10.16,10.16,0,0,1-.15-1.72,3.31,3.31,0,0,1-3.39,1.91,3.2,3.2,0,0,1-3.54-3.39c0-1.67,1.08-3.54,5.06-3.54h1.72V92.55c0-1.06-.31-2.16-2.2-2.16a2,2,0,0,0-2.35,2h-1.78c.15-1.87,1.23-3.39,4.2-3.39,2.33,0,3.94.95,3.94,3.48ZM497.9,95h-1.76c-2.71,0-3.21,1.1-3.21,2.11a1.89,1.89,0,0,0,2.07,2c2.2,0,2.9-1.5,2.9-3.87Z" transform="translate(-48.07 0)"/><path class="cls-2" d="M502.87,100.36v-16h1.83v16Z" transform="translate(-48.07 0)"/><path class="cls-2" d="M515.68,97.88a21,21,0,0,0,.15,2.49h-1.65a10.16,10.16,0,0,1-.15-1.72,3.32,3.32,0,0,1-3.39,1.91,3.2,3.2,0,0,1-3.54-3.39c0-1.67,1.08-3.54,5.06-3.54h1.72V92.55c0-1.06-.31-2.16-2.2-2.16a2,2,0,0,0-2.35,2h-1.78c.15-1.87,1.23-3.39,4.2-3.39,2.33,0,3.94.95,3.94,3.48ZM513.92,95h-1.76c-2.71,0-3.21,1.1-3.21,2.11a1.89,1.89,0,0,0,2.07,2c2.2,0,2.9-1.5,2.9-3.87Z" transform="translate(-48.07 0)"/><path class="cls-2" d="M518.89,92.71c0-2.33,0-3,0-3.5h1.78a13.24,13.24,0,0,1,.07,1.74,3.42,3.42,0,0,1,3.3-2c2.07,0,3.54,1.17,3.54,4.18v7.19h-1.83V93.45c0-1.63-.55-2.86-2.22-2.86-2,0-2.77,1.47-2.77,3.81v6h-1.83Z" transform="translate(-48.07 0)"/><path class="cls-2" d="M539.19,96.8a4.29,4.29,0,0,1-4.49,3.78c-3.12,0-4.71-2.09-4.71-5.81,0-3.23,1.63-5.79,4.82-5.79a4.08,4.08,0,0,1,4.36,3.89h-1.83a2.51,2.51,0,0,0-2.55-2.4c-2,0-2.93,1.78-2.93,4.25,0,2.86,1,4.36,2.9,4.36,1.54,0,2.2-1,2.6-2.29Z" transform="translate(-48.07 0)"/><path class="cls-2" d="M542.71,95.13c0,2.24.95,3.92,2.9,3.92a2.56,2.56,0,0,0,2.57-1.83H550a4.26,4.26,0,0,1-4.44,3.37c-3.48,0-4.67-2.75-4.67-5.83,0-2.75,1.34-5.76,4.77-5.76s4.51,2.73,4.51,5.3v.84Zm5.63-1.32c0-1.91-.81-3.34-2.75-3.34-2.2,0-2.73,2-2.84,3.34Z" transform="translate(-48.07 0)"/><path class="cls-2" d="M552.57,93c0-1.78,0-3.23,0-3.78h1.78c0,.53,0,1.23,0,2.27A3.74,3.74,0,0,1,558,89V90.9c-2.51.09-3.56,1.56-3.56,4v5.48h-1.83Z" transform="translate(-48.07 0)"/><path class="cls-2" d="M569.86,84.34A16,16,0,0,0,566.6,94a16.68,16.68,0,0,0,3.26,10H568a16.8,16.8,0,0,1-3.12-10A16.52,16.52,0,0,1,568,84.34Z" transform="translate(-48.07 0)"/><path class="cls-2" d="M572.68,97.13a2.3,2.3,0,0,0,2.51,2c1.54,0,2.13-.81,2.13-1.76s-.7-1.54-2.6-2c-2.73-.75-3.43-1.74-3.43-3.23s1-3.1,3.74-3.1,3.74,1.5,3.89,3.21h-1.8a2,2,0,0,0-2.18-1.78c-1.25,0-1.83.59-1.83,1.52s.42,1.3,2.29,1.78c2.84.77,3.74,1.72,3.74,3.5,0,2.07-1.63,3.34-4,3.34s-4-1.1-4.25-3.43Z" transform="translate(-48.07 0)"/><path class="cls-2" d="M582.73,95.13c0,2.24.95,3.92,2.9,3.92a2.56,2.56,0,0,0,2.58-1.83H590a4.26,4.26,0,0,1-4.45,3.37c-3.48,0-4.66-2.75-4.66-5.83,0-2.75,1.34-5.76,4.77-5.76s4.51,2.73,4.51,5.3v.84Zm5.63-1.32c0-1.91-.81-3.34-2.75-3.34-2.2,0-2.73,2-2.84,3.34Z" transform="translate(-48.07 0)"/><path class="cls-2" d="M592.58,93c0-1.78,0-3.23,0-3.78h1.78c0,.53,0,1.23,0,2.27A3.74,3.74,0,0,1,598,89V90.9c-2.51.09-3.56,1.56-3.56,4v5.48h-1.83Z" transform="translate(-48.07 0)"/><path class="cls-2" d="M601.17,89.21c1.5,4.73,2.49,7.86,2.84,9.42h0c.22-1.32,2.16-7,2.95-9.42h1.8l-3.85,11.16h-2l-3.72-11.16Z" transform="translate(-48.07 0)"/><path class="cls-2" d="M610.6,86.7V84.34h1.83V86.7Zm0,2.51h1.83v11.16H610.6Z" transform="translate(-48.07 0)"/><path class="cls-2" d="M624.09,96.8a4.29,4.29,0,0,1-4.49,3.78c-3.12,0-4.71-2.09-4.71-5.81,0-3.23,1.63-5.79,4.82-5.79a4.08,4.08,0,0,1,4.36,3.89h-1.83a2.51,2.51,0,0,0-2.55-2.4c-2,0-2.93,1.78-2.93,4.25,0,2.86,1,4.36,2.9,4.36,1.54,0,2.2-1,2.6-2.29Z" transform="translate(-48.07 0)"/><path class="cls-2" d="M627.61,95.13c0,2.24.95,3.92,2.9,3.92a2.56,2.56,0,0,0,2.58-1.83h1.78a4.26,4.26,0,0,1-4.45,3.37c-3.48,0-4.66-2.75-4.66-5.83,0-2.75,1.34-5.76,4.77-5.76s4.51,2.73,4.51,5.3v.84Zm5.63-1.32c0-1.91-.81-3.34-2.75-3.34-2.2,0-2.73,2-2.84,3.34Z" transform="translate(-48.07 0)"/><path class="cls-2" d="M636.45,104a16,16,0,0,0,3.26-9.68,16.88,16.88,0,0,0-3.26-10h1.83a17,17,0,0,1,3.12,10,16.62,16.62,0,0,1-3.12,9.66Z" transform="translate(-48.07 0)"/><rect class="cls-1" x="266" y="276.28" width="369.31" height="65.66"/><path class="cls-2" d="M456.41,296.46c1.33-1.4,4.06-4,5.75-5.8h5l-5.67,5.15,6.24,8.29h-5.12l-4.11-5.93L456.41,300v4.11h-4.24V284.74h4.24Z" transform="translate(-48.07 0)"/><path class="cls-2" d="M472.27,298.41a3,3,0,0,0,3.3,2.91,2.86,2.86,0,0,0,2.83-1.33h4.26c-.83,2.39-2.83,4.47-7.15,4.47-5.51,0-7.49-3.64-7.49-7.07,0-3.77,2.55-7.1,7.46-7.1,5.23,0,7.33,3.61,7.33,7.1,0,.34,0,.6,0,1Zm6.24-2.6c-.08-1-.62-2.52-3-2.52-2.21,0-3,1.2-3.15,2.52Z" transform="translate(-48.07 0)"/><path class="cls-2" d="M489.17,298.41a3,3,0,0,0,3.3,2.91,2.86,2.86,0,0,0,2.83-1.33h4.26c-.83,2.39-2.83,4.47-7.15,4.47-5.51,0-7.49-3.64-7.49-7.07,0-3.77,2.55-7.1,7.46-7.1,5.23,0,7.33,3.61,7.33,7.1,0,.34,0,.6,0,1Zm6.24-2.6c-.08-1-.62-2.52-3-2.52-2.21,0-3,1.2-3.15,2.52Z" transform="translate(-48.07 0)"/><path class="cls-2" d="M502.46,309.77V294c0-1.09,0-2.21,0-3.3h4.16a14.22,14.22,0,0,1,.1,1.74c.75-1.12,2.11-2.11,4.68-2.11a6.48,6.48,0,0,1,6.32,6.81c0,4.68-3.35,7.36-6.86,7.36a5,5,0,0,1-4.13-1.66v7ZM510,293.6c-2.47,0-3.41,1.59-3.41,3.8s1.17,3.72,3.35,3.72,3.38-1.51,3.38-3.77C513.33,295.37,512.21,293.6,510,293.6Z" transform="translate(-48.07 0)"/><path class="cls-2" d="M524,298.41a3,3,0,0,0,3.3,2.91,2.86,2.86,0,0,0,2.83-1.33h4.26c-.83,2.39-2.83,4.47-7.15,4.47-5.51,0-7.49-3.64-7.49-7.07,0-3.77,2.55-7.1,7.46-7.1,5.23,0,7.33,3.61,7.33,7.1,0,.34,0,.6,0,1Zm6.24-2.6c-.08-1-.62-2.52-3-2.52-2.21,0-3,1.2-3.15,2.52Z" transform="translate(-48.07 0)"/><path class="cls-2" d="M537.24,294.33c0-1.22,0-2.44,0-3.67h4.13c.08.49.13,2,.13,2.7a5.07,5.07,0,0,1,5.17-3v3.87c-3-.05-5.17,1.17-5.17,5v4.91h-4.24Z" transform="translate(-48.07 0)"/><path class="cls-2" d="M358.55,316.84v-2.35h1.83v2.35Zm0,2.51h1.83v11.16h-1.83Z" transform="translate(-48.07 0)"/><path class="cls-2" d="M363.59,322.85c0-2.33,0-3,0-3.5h1.78a13.32,13.32,0,0,1,.07,1.74,3.42,3.42,0,0,1,3.3-2c2.07,0,3.54,1.17,3.54,4.18v7.2h-1.83V323.6c0-1.63-.55-2.86-2.22-2.86-2,0-2.77,1.47-2.77,3.81v6h-1.83Z" transform="translate(-48.07 0)"/><path class="cls-2" d="M373.86,319.35h1.78v-3.23h1.83v3.23h2.24v1.5h-2.24v7c0,.95.24,1.34,1.19,1.34a4.91,4.91,0,0,0,.86-.09v1.39a4.85,4.85,0,0,1-1.45.18c-1.63,0-2.42-.62-2.42-2.46v-7.33h-1.78Z" transform="translate(-48.07 0)"/><path class="cls-2" d="M382.75,325.27c0,2.24.95,3.92,2.9,3.92a2.56,2.56,0,0,0,2.57-1.83H390a4.26,4.26,0,0,1-4.44,3.37c-3.48,0-4.67-2.75-4.67-5.83,0-2.75,1.34-5.76,4.77-5.76s4.51,2.73,4.51,5.3v.84Zm5.63-1.32c0-1.91-.81-3.34-2.75-3.34-2.2,0-2.73,2-2.84,3.34Z" transform="translate(-48.07 0)"/><path class="cls-2" d="M392.61,323.14c0-1.78,0-3.23,0-3.79h1.78c0,.53,0,1.23,0,2.27a3.74,3.74,0,0,1,3.61-2.46V321c-2.51.09-3.56,1.56-3.56,4v5.48h-1.83Z" transform="translate(-48.07 0)"/><path class="cls-2" d="M399.78,322.85c0-2.33,0-3,0-3.5h1.78a13.32,13.32,0,0,1,.07,1.74,3.42,3.42,0,0,1,3.3-2c2.07,0,3.54,1.17,3.54,4.18v7.2H406.6V323.6c0-1.63-.55-2.86-2.22-2.86-2,0-2.77,1.47-2.77,3.81v6h-1.83Z" transform="translate(-48.07 0)"/><path class="cls-2" d="M419.27,328a21,21,0,0,0,.15,2.49h-1.65a10.16,10.16,0,0,1-.15-1.72,3.31,3.31,0,0,1-3.39,1.91,3.2,3.2,0,0,1-3.54-3.39c0-1.67,1.08-3.54,5.06-3.54h1.72V322.7c0-1.06-.31-2.16-2.2-2.16a2,2,0,0,0-2.35,2h-1.78c.15-1.87,1.23-3.39,4.2-3.39,2.33,0,3.94.95,3.94,3.48Zm-1.76-2.93h-1.76c-2.71,0-3.21,1.1-3.21,2.11a1.89,1.89,0,0,0,2.07,2c2.2,0,2.9-1.5,2.9-3.87Z" transform="translate(-48.07 0)"/><path class="cls-2" d="M422.48,330.51v-16h1.83v16Z" transform="translate(-48.07 0)"/><path class="cls-2" d="M432.93,330.51v-16h1.83v16Z" transform="translate(-48.07 0)"/><path class="cls-2" d="M447,324.74c0,3.23-1.41,6-5,6s-4.84-2.84-4.84-5.9,1.61-5.68,5-5.68C445.34,319.13,447,321.53,447,324.74Zm-7.94,0c0,2.55,1.06,4.4,3.06,4.4s3-1.8,3-4.42c0-2.44-1-4.11-3-4.11S439.09,322.34,439.09,324.79Z" transform="translate(-48.07 0)"/><path class="cls-2" d="M457.31,328a21,21,0,0,0,.15,2.49h-1.65a10.16,10.16,0,0,1-.15-1.72,3.31,3.31,0,0,1-3.39,1.91,3.2,3.2,0,0,1-3.54-3.39c0-1.67,1.08-3.54,5.06-3.54h1.72V322.7c0-1.06-.31-2.16-2.2-2.16a2,2,0,0,0-2.35,2h-1.78c.15-1.87,1.23-3.39,4.2-3.39,2.33,0,3.94.95,3.94,3.48Zm-1.76-2.93h-1.76c-2.71,0-3.21,1.1-3.21,2.11a1.89,1.89,0,0,0,2.07,2c2.2,0,2.9-1.5,2.9-3.87Z" transform="translate(-48.07 0)"/><path class="cls-2" d="M469.19,314.49V327.6c0,1.08,0,2.22,0,2.9h-1.78c0-.29-.07-1-.07-1.65-.59,1.3-1.5,1.85-3.32,1.85-2.88,0-4.33-2.44-4.33-5.76s1.67-5.81,4.71-5.81c1.8,0,2.64.73,2.95,1.34v-6Zm-4.64,14.65c2.4,0,2.9-1.83,2.9-4.44,0-3.08-.9-4-2.79-4s-3,1.5-3,4.16S462.79,329.14,464.55,329.14Z" transform="translate(-48.07 0)"/><path class="cls-2" d="M477.83,314.49h1.83v6.4a3.58,3.58,0,0,1,3.34-1.76c2.71,0,4.29,2.22,4.29,5.46,0,3.39-1.43,6.12-4.62,6.12a3.07,3.07,0,0,1-3-1.61,10.17,10.17,0,0,1-.07,1.41h-1.78c0-.62,0-1.78,0-3.17Zm4.73,6.23c-2.22,0-3,1.43-3,4.07s.64,4.33,2.95,4.33c2,0,2.93-1.85,2.93-4.47C485.43,322.3,484.48,320.71,482.57,320.71Z" transform="translate(-48.07 0)"/><path class="cls-2" d="M497.57,328a21,21,0,0,0,.15,2.49h-1.65a10.16,10.16,0,0,1-.15-1.72,3.32,3.32,0,0,1-3.39,1.91,3.2,3.2,0,0,1-3.54-3.39c0-1.67,1.08-3.54,5.06-3.54h1.72V322.7c0-1.06-.31-2.16-2.2-2.16a2,2,0,0,0-2.35,2h-1.78c.15-1.87,1.23-3.39,4.2-3.39,2.33,0,3.94.95,3.94,3.48Zm-1.76-2.93H494c-2.71,0-3.21,1.1-3.21,2.11a1.89,1.89,0,0,0,2.07,2c2.2,0,2.9-1.5,2.9-3.87Z" transform="translate(-48.07 0)"/><path class="cls-2" d="M500.78,330.51v-16h1.83v16Z" transform="translate(-48.07 0)"/><path class="cls-2" d="M513.59,328a21,21,0,0,0,.15,2.49h-1.65a10.16,10.16,0,0,1-.15-1.72,3.31,3.31,0,0,1-3.39,1.91,3.2,3.2,0,0,1-3.54-3.39c0-1.67,1.08-3.54,5.06-3.54h1.72V322.7c0-1.06-.31-2.16-2.2-2.16a2,2,0,0,0-2.35,2h-1.78c.15-1.87,1.23-3.39,4.2-3.39,2.33,0,3.94.95,3.94,3.48Zm-1.76-2.93h-1.76c-2.71,0-3.21,1.1-3.21,2.11a1.89,1.89,0,0,0,2.07,2c2.2,0,2.9-1.5,2.9-3.87Z" transform="translate(-48.07 0)"/><path class="cls-2" d="M516.8,322.85c0-2.33,0-3,0-3.5h1.78a13.39,13.39,0,0,1,.07,1.74,3.42,3.42,0,0,1,3.3-2c2.07,0,3.54,1.17,3.54,4.18v7.2h-1.83V323.6c0-1.63-.55-2.86-2.22-2.86-2,0-2.77,1.47-2.77,3.81v6H516.8Z" transform="translate(-48.07 0)"/><path class="cls-2" d="M537.1,326.94a4.29,4.29,0,0,1-4.49,3.78c-3.12,0-4.71-2.09-4.71-5.81,0-3.23,1.63-5.79,4.82-5.79a4.08,4.08,0,0,1,4.36,3.89h-1.83a2.51,2.51,0,0,0-2.55-2.4c-2,0-2.93,1.78-2.93,4.25,0,2.86,1,4.36,2.9,4.36,1.54,0,2.2-1,2.6-2.29Z" transform="translate(-48.07 0)"/><path class="cls-2" d="M540.62,325.27c0,2.24.95,3.92,2.9,3.92a2.56,2.56,0,0,0,2.57-1.83h1.78a4.26,4.26,0,0,1-4.44,3.37c-3.48,0-4.67-2.75-4.67-5.83,0-2.75,1.34-5.76,4.78-5.76s4.51,2.73,4.51,5.3v.84Zm5.63-1.32c0-1.91-.81-3.34-2.75-3.34-2.2,0-2.73,2-2.84,3.34Z" transform="translate(-48.07 0)"/><path class="cls-2" d="M550.48,323.14c0-1.78,0-3.23,0-3.79h1.78c0,.53,0,1.23,0,2.27a3.74,3.74,0,0,1,3.61-2.46V321c-2.51.09-3.56,1.56-3.56,4v5.48h-1.83Z" transform="translate(-48.07 0)"/><path class="cls-2" d="M567.77,314.49a16,16,0,0,0-3.26,9.68,16.68,16.68,0,0,0,3.26,10h-1.83a16.8,16.8,0,0,1-3.12-10,16.52,16.52,0,0,1,3.13-9.66Z" transform="translate(-48.07 0)"/><path class="cls-2" d="M570.58,327.27a2.3,2.3,0,0,0,2.51,2c1.54,0,2.13-.81,2.13-1.76s-.7-1.54-2.6-2c-2.73-.75-3.43-1.74-3.43-3.23s1-3.1,3.74-3.1,3.74,1.5,3.89,3.21H575a2,2,0,0,0-2.18-1.78c-1.25,0-1.83.59-1.83,1.52s.42,1.3,2.29,1.78c2.84.77,3.74,1.72,3.74,3.5,0,2.07-1.63,3.34-4,3.34s-4-1.1-4.25-3.43Z" transform="translate(-48.07 0)"/><path class="cls-2" d="M580.64,325.27c0,2.24.95,3.92,2.9,3.92a2.56,2.56,0,0,0,2.58-1.83h1.78a4.26,4.26,0,0,1-4.45,3.37c-3.48,0-4.66-2.75-4.66-5.83,0-2.75,1.34-5.76,4.77-5.76s4.51,2.73,4.51,5.3v.84Zm5.63-1.32c0-1.91-.81-3.34-2.75-3.34-2.2,0-2.73,2-2.84,3.34Z" transform="translate(-48.07 0)"/><path class="cls-2" d="M590.49,323.14c0-1.78,0-3.23,0-3.79h1.78c0,.53,0,1.23,0,2.27a3.74,3.74,0,0,1,3.61-2.46V321c-2.51.09-3.56,1.56-3.56,4v5.48h-1.83Z" transform="translate(-48.07 0)"/><path class="cls-2" d="M599.07,319.35c1.5,4.73,2.49,7.86,2.84,9.42h0c.22-1.32,2.16-7,2.95-9.42h1.8l-3.85,11.16h-2l-3.72-11.16Z" transform="translate(-48.07 0)"/><path class="cls-2" d="M608.51,316.84v-2.35h1.83v2.35Zm0,2.51h1.83v11.16h-1.83Z" transform="translate(-48.07 0)"/><path class="cls-2" d="M622,326.94a4.29,4.29,0,0,1-4.49,3.78c-3.12,0-4.71-2.09-4.71-5.81,0-3.23,1.63-5.79,4.82-5.79A4.08,4.08,0,0,1,622,323h-1.83a2.51,2.51,0,0,0-2.55-2.4c-2,0-2.93,1.78-2.93,4.25,0,2.86,1,4.36,2.9,4.36,1.54,0,2.2-1,2.6-2.29Z" transform="translate(-48.07 0)"/><path class="cls-2" d="M625.52,325.27c0,2.24.95,3.92,2.9,3.92a2.56,2.56,0,0,0,2.58-1.83h1.78a4.26,4.26,0,0,1-4.45,3.37c-3.48,0-4.66-2.75-4.66-5.83,0-2.75,1.34-5.76,4.77-5.76s4.51,2.73,4.51,5.3v.84Zm5.63-1.32c0-1.91-.81-3.34-2.75-3.34-2.2,0-2.73,2-2.84,3.34Z" transform="translate(-48.07 0)"/><path class="cls-2" d="M634.36,334.14a16,16,0,0,0,3.26-9.68,16.88,16.88,0,0,0-3.26-10h1.83a17,17,0,0,1,3.12,10,16.62,16.62,0,0,1-3.12,9.66Z" transform="translate(-48.07 0)"/><rect class="cls-1" y="153.28" width="635.31" height="83"/><rect class="cls-3" x="333.75" y="165.84" width="219.58" height="40.54" rx="10.37" ry="10.37"/><path class="cls-2" d="M758.78,188.55a1.75,1.75,0,0,0,2,1.54c1.06,0,1.61-.42,1.61-1.14s-.64-1-2.38-1.52c-3-.86-3.74-1.91-3.74-3.54,0-1.43.9-3.45,4.33-3.45,3,0,4.29,1.56,4.42,3.48h-2.9a1.44,1.44,0,0,0-1.65-1.3c-.81,0-1.28.33-1.28,1s.44.9,2.09,1.32c3.1.81,4,1.94,4,3.74,0,2.35-2,3.59-4.64,3.59s-4.55-1.23-4.8-3.7Z" transform="translate(-48.07 0)"/><path class="cls-2" d="M769.52,188.55a1.75,1.75,0,0,0,2,1.54c1.06,0,1.61-.42,1.61-1.14s-.64-1-2.38-1.52c-3-.86-3.74-1.91-3.74-3.54,0-1.43.9-3.45,4.33-3.45,3,0,4.29,1.56,4.42,3.48h-2.9a1.44,1.44,0,0,0-1.65-1.3c-.81,0-1.28.33-1.28,1s.44.9,2.09,1.32c3.1.81,4,1.94,4,3.74,0,2.35-2,3.59-4.64,3.59s-4.55-1.23-4.8-3.7Z" transform="translate(-48.07 0)"/><path class="cls-2" d="M777.95,192v-16h3v16Z" transform="translate(-48.07 0)"/><path class="cls-2" d="M788.86,185.12v2.51h-5.7v-2.51Z" transform="translate(-48.07 0)"/><path class="cls-2" d="M791.1,196.42V183.95c0-1.54,0-2.55,0-3.3H794c0,.37.07.95.09,1.52a3.38,3.38,0,0,1,3.28-1.74c2.38,0,4.31,1.83,4.31,5.81,0,3.7-2.09,6-4.84,6a3,3,0,0,1-2.75-1.19v5.37Zm5.19-13.55c-1.8,0-2.35,1-2.35,3.5,0,2.2.51,3.48,2.27,3.48,1.58,0,2.42-1.23,2.42-3.56S797.66,182.87,796.29,182.87Z" transform="translate(-48.07 0)"/><path class="cls-2" d="M803.82,184.52c0-1.87,0-3.08,0-3.87h2.9a17,17,0,0,1,.09,2,3.51,3.51,0,0,1,3.46-2.18v3c-2.35,0-3.41.75-3.41,3.37V192h-3Z" transform="translate(-48.07 0)"/><path class="cls-2" d="M822.1,186.19c0,3.32-1.58,6.07-5.46,6.07s-5.37-2.93-5.37-6c0-2.84,1.61-5.83,5.52-5.83C820.45,180.43,822.1,183.11,822.1,186.19Zm-7.79,0c0,2.44.84,3.74,2.44,3.74s2.33-1.3,2.33-3.7-.79-3.43-2.42-3.43S814.31,184.1,814.31,186.17Z" transform="translate(-48.07 0)"/><path class="cls-2" d="M825.9,180.65c1.1,2,1.63,3,1.94,3.65h0c.4-.75,1.1-1.94,2-3.65h3.15L829.58,186l3.43,6h-3.34c-1-1.91-1.63-3.15-1.94-3.81h0c-.26.53-1.12,2.31-1.94,3.81h-3.19l3.37-5.57-3.32-5.83Z" transform="translate(-48.07 0)"/><path class="cls-2" d="M836.46,180.65c1.34,4.84,2.11,7.5,2.29,8.8h0c.31-1.41,1.34-5.37,2.29-8.8h3l-3.87,11.88c-1.19,3.65-2.6,4.07-4.53,4.07-.22,0-.79,0-1.14-.09v-2.44a9,9,0,0,0,1,.07c.95,0,1.45-.59,1.74-1.56l-4-11.93Z" transform="translate(-48.07 0)"/><path class="cls-2" d="M850.46,185.12v2.51h-5.7v-2.51Z" transform="translate(-48.07 0)"/><path class="cls-2" d="M855.05,188.55a1.75,1.75,0,0,0,2,1.54c1.06,0,1.61-.42,1.61-1.14s-.64-1-2.38-1.52c-3-.86-3.74-1.91-3.74-3.54,0-1.43.9-3.45,4.33-3.45,3,0,4.29,1.56,4.42,3.48h-2.9a1.44,1.44,0,0,0-1.65-1.3c-.81,0-1.28.33-1.28,1s.44.9,2.09,1.32c3.1.81,4,1.94,4,3.74,0,2.35-2,3.59-4.64,3.59s-4.55-1.23-4.8-3.7Z" transform="translate(-48.07 0)"/><path class="cls-2" d="M866.05,187c0,1.39.53,2.88,2.22,2.88a1.88,1.88,0,0,0,2-1.36h2.93a4.76,4.76,0,0,1-5,3.7c-3.63,0-5.15-2.49-5.15-5.87,0-2.82,1.41-5.94,5.28-5.94s5,2.73,5,5.68c0,.15,0,.75,0,.92Zm4.33-2c0-1.28-.57-2.4-2.11-2.4-1.69,0-2.11,1.39-2.18,2.4Z" transform="translate(-48.07 0)"/><path class="cls-2" d="M885,188.06a4.57,4.57,0,0,1-5,4.18c-3.5,0-5.13-2.16-5.13-5.87s2-5.94,5.3-5.94c3.72,0,4.73,2.68,4.8,4.27h-3c-.11-1-.57-2-1.87-2-1.56,0-2.2,1.45-2.2,3.54,0,2.66.79,3.72,2.16,3.72s1.69-.84,1.94-1.91Z" transform="translate(-48.07 0)"/><path class="cls-2" d="M887,184.52c0-1.87,0-3.08,0-3.87h2.9a17,17,0,0,1,.09,2,3.51,3.51,0,0,1,3.46-2.18v3c-2.35,0-3.41.75-3.41,3.37V192h-3Z" transform="translate(-48.07 0)"/><path class="cls-2" d="M897.49,187c0,1.39.53,2.88,2.22,2.88a1.88,1.88,0,0,0,2-1.36h2.93a4.76,4.76,0,0,1-5,3.7c-3.63,0-5.15-2.49-5.15-5.87,0-2.82,1.41-5.94,5.28-5.94s5,2.73,5,5.68c0,.15,0,.75,0,.92Zm4.33-2c0-1.28-.57-2.4-2.11-2.4-1.69,0-2.11,1.39-2.18,2.4Z" transform="translate(-48.07 0)"/><path class="cls-2" d="M905.67,180.65h1.61v-3.08h3v3.08h2V183h-2v5.85c0,.77.2,1.1,1.12,1.1a3.79,3.79,0,0,0,.68,0v2a6.51,6.51,0,0,1-1.83.22c-2.2,0-2.95-.88-2.95-3V183h-1.61Z" transform="translate(-48.07 0)"/><path class="cls-2" d="M75.41,184.21c0-2.35,0-3.06,0-3.56h2.9a10.66,10.66,0,0,1,.11,1.47,3.45,3.45,0,0,1,3.17-1.69c2.4,0,3.61,1.54,3.61,4.16V192h-3v-6.89c0-1.3-.33-2.27-1.74-2.27s-2,.79-2,2.79V192h-3Z" transform="translate(-48.07 0)"/><path class="cls-2" d="M97.81,190.92c0,3.52-1.45,5.68-5.39,5.68-3.7,0-4.77-2-4.91-3.67h2.95c.2.9.92,1.39,2.13,1.39,1.89,0,2.29-1.12,2.29-3.19v-.7a3.12,3.12,0,0,1-3,1.5c-2.73,0-4.53-2.16-4.53-5.68s2.18-5.81,4.73-5.81c1.8,0,2.51.66,2.77,1.28a7.69,7.69,0,0,1,.13-1.06h2.9c0,.57,0,1.85,0,3.43Zm-5.13-1.45c1.69,0,2.29-1,2.29-3.32,0-2.09-.29-3.26-2.22-3.26-1.32,0-2.35,1-2.35,3.28C90.39,188.2,91.23,189.47,92.68,189.47Z" transform="translate(-48.07 0)"/><path class="cls-2" d="M100.55,178.8v-2.75h3v2.75Zm0,1.85h3V192h-3Z" transform="translate(-48.07 0)"/><path class="cls-2" d="M106.36,184.21c0-2.35,0-3.06,0-3.56h2.9a10.66,10.66,0,0,1,.11,1.47,3.45,3.45,0,0,1,3.17-1.69c2.4,0,3.61,1.54,3.61,4.16V192h-3v-6.89c0-1.3-.33-2.27-1.74-2.27s-2,.79-2,2.79V192h-3Z" transform="translate(-48.07 0)"/><path class="cls-2" d="M120.66,180.65c1.1,2,1.63,3,1.94,3.65h0c.4-.75,1.1-1.94,2-3.65h3.15L124.34,186l3.43,6h-3.34c-1-1.91-1.63-3.15-1.94-3.81h0c-.26.53-1.12,2.31-1.94,3.81h-3.19l3.37-5.57-3.32-5.83Z" transform="translate(-48.07 0)"/><path class="cls-2" d="M133.88,185.12v2.51h-5.7v-2.51Z" transform="translate(-48.07 0)"/><path class="cls-2" d="M138.48,188.55a1.75,1.75,0,0,0,2,1.54c1.06,0,1.61-.42,1.61-1.14s-.64-1-2.38-1.52c-3-.86-3.74-1.91-3.74-3.54,0-1.43.9-3.45,4.33-3.45,3,0,4.29,1.56,4.42,3.48h-2.9a1.44,1.44,0,0,0-1.65-1.3c-.81,0-1.28.33-1.28,1s.44.9,2.09,1.32c3.1.81,4,1.94,4,3.74,0,2.35-2,3.59-4.64,3.59s-4.55-1.23-4.8-3.7Z" transform="translate(-48.07 0)"/><path class="cls-2" d="M149.22,188.55a1.75,1.75,0,0,0,2,1.54c1.06,0,1.61-.42,1.61-1.14s-.64-1-2.38-1.52c-3-.86-3.74-1.91-3.74-3.54,0-1.43.9-3.45,4.33-3.45,3,0,4.29,1.56,4.42,3.48h-2.9a1.44,1.44,0,0,0-1.65-1.3c-.81,0-1.28.33-1.28,1s.44.9,2.09,1.32c3.1.81,4,1.94,4,3.74,0,2.35-2,3.59-4.64,3.59s-4.55-1.23-4.8-3.7Z" transform="translate(-48.07 0)"/><path class="cls-2" d="M157.64,192v-16h3v16Z" transform="translate(-48.07 0)"/><path class="cls-2" d="M168.56,185.12v2.51h-5.7v-2.51Z" transform="translate(-48.07 0)"/><path class="cls-2" d="M170.8,196.42V183.95c0-1.54,0-2.55,0-3.3h2.91c0,.37.07.95.09,1.52a3.38,3.38,0,0,1,3.28-1.74c2.38,0,4.31,1.83,4.31,5.81,0,3.7-2.09,6-4.84,6a3,3,0,0,1-2.75-1.19v5.37ZM176,182.87c-1.8,0-2.35,1-2.35,3.5,0,2.2.51,3.48,2.27,3.48,1.58,0,2.42-1.23,2.42-3.56S177.35,182.87,176,182.87Z" transform="translate(-48.07 0)"/><path class="cls-2" d="M183.51,184.52c0-1.87,0-3.08,0-3.87h2.9a17,17,0,0,1,.09,2,3.51,3.51,0,0,1,3.46-2.18v3c-2.35,0-3.41.75-3.41,3.37V192h-3Z" transform="translate(-48.07 0)"/><path class="cls-2" d="M201.8,186.19c0,3.32-1.58,6.07-5.46,6.07s-5.37-2.93-5.37-6c0-2.84,1.61-5.83,5.52-5.83C200.15,180.43,201.8,183.11,201.8,186.19Zm-7.79,0c0,2.44.84,3.74,2.44,3.74s2.33-1.3,2.33-3.7-.79-3.43-2.42-3.43S194,184.1,194,186.17Z" transform="translate(-48.07 0)"/><path class="cls-2" d="M205.6,180.65c1.1,2,1.63,3,1.94,3.65h0c.4-.75,1.1-1.94,2-3.65h3.15L209.28,186l3.43,6h-3.34c-1-1.91-1.63-3.15-1.94-3.81h0c-.26.53-1.12,2.31-1.94,3.81h-3.19l3.37-5.57-3.32-5.83Z" transform="translate(-48.07 0)"/><path class="cls-2" d="M216.16,180.65c1.34,4.84,2.11,7.5,2.29,8.8h0c.31-1.41,1.34-5.37,2.29-8.8h3l-3.87,11.88c-1.19,3.65-2.6,4.07-4.53,4.07-.22,0-.79,0-1.14-.09v-2.44a9,9,0,0,0,1,.07c.95,0,1.45-.59,1.74-1.56l-4-11.93Z" transform="translate(-48.07 0)"/><path class="cls-2" d="M75.61,211.08c0-1.78,0-3.23,0-3.78h1.78c0,.53,0,1.23,0,2.27A3.74,3.74,0,0,1,81,207.09V209c-2.51.09-3.56,1.56-3.56,4v5.48H75.61Z" transform="translate(-48.07 0)"/><path class="cls-2" d="M83.86,213.21c0,2.24.95,3.92,2.9,3.92a2.56,2.56,0,0,0,2.57-1.83h1.78a4.26,4.26,0,0,1-4.44,3.37c-3.48,0-4.67-2.75-4.67-5.83,0-2.75,1.34-5.76,4.77-5.76s4.51,2.73,4.51,5.3v.84Zm5.63-1.32c0-1.91-.81-3.34-2.75-3.34-2.2,0-2.73,2-2.84,3.34Z" transform="translate(-48.07 0)"/><path class="cls-2" d="M93.71,222.87v-12.3c0-1.52,0-2.6,0-3.28h1.8c0,.37,0,1.17,0,1.8a3.59,3.59,0,0,1,3.48-2c2.44,0,4.18,1.91,4.18,5.61s-2,5.94-4.62,5.94a3.18,3.18,0,0,1-3-1.52v5.77Zm4.71-14.21c-2.29,0-3,1.56-3,4.25,0,2.46.46,4.16,2.86,4.16,1.87,0,3-1.54,3-4.31S100.2,208.65,98.42,208.65Z" transform="translate(-48.07 0)"/><path class="cls-2" d="M105.61,218.45v-16h1.83v16Z" transform="translate(-48.07 0)"/><path class="cls-2" d="M110.65,204.78v-2.35h1.83v2.35Zm0,2.51h1.83v11.16h-1.83Z" transform="translate(-48.07 0)"/><path class="cls-2" d="M124.14,214.88a4.29,4.29,0,0,1-4.49,3.78c-3.12,0-4.71-2.09-4.71-5.81,0-3.23,1.63-5.79,4.82-5.79a4.08,4.08,0,0,1,4.36,3.89h-1.83a2.51,2.51,0,0,0-2.55-2.4c-2,0-2.93,1.78-2.93,4.25,0,2.86,1,4.36,2.9,4.36,1.54,0,2.2-1,2.6-2.29Z" transform="translate(-48.07 0)"/><path class="cls-2" d="M134.37,216a20.74,20.74,0,0,0,.15,2.49h-1.65a10.16,10.16,0,0,1-.15-1.72,3.32,3.32,0,0,1-3.39,1.91,3.2,3.2,0,0,1-3.54-3.39c0-1.67,1.08-3.54,5.06-3.54h1.72v-1.08c0-1.06-.31-2.16-2.2-2.16a2,2,0,0,0-2.35,2h-1.78c.15-1.87,1.23-3.39,4.2-3.39,2.33,0,3.94.95,3.94,3.48ZM132.61,213h-1.76c-2.71,0-3.21,1.1-3.21,2.11a1.89,1.89,0,0,0,2.07,2c2.2,0,2.9-1.5,2.9-3.87Z" transform="translate(-48.07 0)"/><path class="cls-2" d="M135.91,207.29h1.78v-3.23h1.83v3.23h2.24v1.5h-2.24v7c0,.95.24,1.34,1.19,1.34a4.91,4.91,0,0,0,.86-.09v1.39a4.86,4.86,0,0,1-1.45.18c-1.63,0-2.42-.62-2.42-2.46v-7.33h-1.78Z" transform="translate(-48.07 0)"/><path class="cls-2" d="M143.7,204.78v-2.35h1.83v2.35Zm0,2.51h1.83v11.16H143.7Z" transform="translate(-48.07 0)"/><path class="cls-2" d="M157.8,212.68c0,3.23-1.41,6-5,6s-4.84-2.84-4.84-5.9,1.61-5.68,5-5.68C156.1,207.07,157.8,209.47,157.8,212.68Zm-7.94,0c0,2.55,1.06,4.4,3.06,4.4s3-1.8,3-4.42c0-2.44-1-4.11-3-4.11S149.85,210.28,149.85,212.73Z" transform="translate(-48.07 0)"/><path class="cls-2" d="M160.24,210.79c0-2.33,0-3,0-3.5H162A13.24,13.24,0,0,1,162,209a3.42,3.42,0,0,1,3.3-2c2.07,0,3.54,1.17,3.54,4.18v7.19h-1.83v-6.91c0-1.63-.55-2.86-2.22-2.86-2,0-2.77,1.47-2.77,3.81v6h-1.83Z" transform="translate(-48.07 0)"/><path class="cls-2" d="M186,214.88a4.29,4.29,0,0,1-4.49,3.78c-3.12,0-4.71-2.09-4.71-5.81,0-3.23,1.63-5.79,4.82-5.79a4.08,4.08,0,0,1,4.36,3.89h-1.83a2.51,2.51,0,0,0-2.55-2.4c-2,0-2.93,1.78-2.93,4.25,0,2.86,1,4.36,2.9,4.36,1.54,0,2.2-1,2.6-2.29Z" transform="translate(-48.07 0)"/><path class="cls-2" d="M197.44,212.68c0,3.23-1.41,6-5,6s-4.84-2.84-4.84-5.9,1.61-5.68,5-5.68C195.75,207.07,197.44,209.47,197.44,212.68Zm-7.94,0c0,2.55,1.06,4.4,3.06,4.4s3-1.8,3-4.42c0-2.44-1-4.11-3-4.11S189.5,210.28,189.5,212.73Z" transform="translate(-48.07 0)"/><path class="cls-2" d="M199.88,210.79c0-2.33,0-3,0-3.5h1.78a13.24,13.24,0,0,1,.07,1.74,3.42,3.42,0,0,1,3.3-2c2.07,0,3.54,1.17,3.54,4.18v7.19H206.7v-6.91c0-1.63-.55-2.86-2.22-2.86-2,0-2.77,1.47-2.77,3.81v6h-1.83Z" transform="translate(-48.07 0)"/><path class="cls-2" d="M210.16,207.29h1.78v-3.23h1.83v3.23H216v1.5h-2.24v7c0,.95.24,1.34,1.19,1.34a4.91,4.91,0,0,0,.86-.09v1.39a4.86,4.86,0,0,1-1.45.18c-1.63,0-2.42-.62-2.42-2.46v-7.33h-1.78Z" transform="translate(-48.07 0)"/><path class="cls-2" d="M217.81,211.08c0-1.78,0-3.23,0-3.78h1.78c0,.53,0,1.23,0,2.27a3.74,3.74,0,0,1,3.61-2.46V209c-2.51.09-3.56,1.56-3.56,4v5.48h-1.83Z" transform="translate(-48.07 0)"/><path class="cls-2" d="M234,212.68c0,3.23-1.41,6-5,6s-4.84-2.84-4.84-5.9,1.61-5.68,5-5.68C232.33,207.07,234,209.47,234,212.68Zm-7.94,0c0,2.55,1.06,4.4,3.06,4.4s3-1.8,3-4.42c0-2.44-1-4.11-3-4.11S226.08,210.28,226.08,212.73Z" transform="translate(-48.07 0)"/><path class="cls-2" d="M236.47,218.45v-16h1.83v16Z" transform="translate(-48.07 0)"/><path class="cls-2" d="M241.5,218.45v-16h1.83v16Z" transform="translate(-48.07 0)"/><path class="cls-2" d="M247.64,213.21c0,2.24.95,3.92,2.9,3.92a2.56,2.56,0,0,0,2.58-1.83h1.78a4.26,4.26,0,0,1-4.45,3.37c-3.48,0-4.66-2.75-4.66-5.83,0-2.75,1.34-5.76,4.77-5.76s4.51,2.73,4.51,5.3v.84Zm5.63-1.32c0-1.91-.81-3.34-2.75-3.34-2.2,0-2.73,2-2.84,3.34Z" transform="translate(-48.07 0)"/><path class="cls-2" d="M257.5,211.08c0-1.78,0-3.23,0-3.78h1.78c0,.53,0,1.23,0,2.27a3.74,3.74,0,0,1,3.61-2.46V209c-2.51.09-3.56,1.56-3.56,4v5.48H257.5Z" transform="translate(-48.07 0)"/><path class="cls-2" d="M397.82,184.28c0-2.35,0-3.06,0-3.56h2.9a10.66,10.66,0,0,1,.11,1.47,3.45,3.45,0,0,1,3.17-1.69c2.4,0,3.61,1.54,3.61,4.16v7.46h-3v-6.89c0-1.3-.33-2.27-1.74-2.27s-2,.79-2,2.79v6.36h-3Z" transform="translate(-48.07 0)"/><path class="cls-2" d="M420.22,191c0,3.52-1.45,5.68-5.39,5.68-3.7,0-4.77-2-4.91-3.67h2.95c.2.9.92,1.39,2.13,1.39,1.89,0,2.29-1.12,2.29-3.19v-.7a3.12,3.12,0,0,1-3,1.5c-2.73,0-4.53-2.16-4.53-5.68s2.18-5.81,4.73-5.81c1.8,0,2.51.66,2.77,1.28a7.69,7.69,0,0,1,.13-1.06h2.9c0,.57,0,1.85,0,3.43Zm-5.13-1.45c1.69,0,2.29-1,2.29-3.32,0-2.09-.29-3.26-2.22-3.26-1.32,0-2.35,1-2.35,3.28C412.8,188.26,413.64,189.54,415.09,189.54Z" transform="translate(-48.07 0)"/><path class="cls-2" d="M423,178.87v-2.75h3v2.75Zm0,1.85h3v11.4h-3Z" transform="translate(-48.07 0)"/><path class="cls-2" d="M428.77,184.28c0-2.35,0-3.06,0-3.56h2.9a10.66,10.66,0,0,1,.11,1.47,3.45,3.45,0,0,1,3.17-1.69c2.4,0,3.61,1.54,3.61,4.16v7.46h-3v-6.89c0-1.3-.33-2.27-1.74-2.27s-2,.79-2,2.79v6.36h-3Z" transform="translate(-48.07 0)"/><path class="cls-2" d="M443.07,180.71c1.1,2,1.63,3,1.94,3.65h0c.4-.75,1.1-1.94,2-3.65h3.15l-3.48,5.37,3.43,6h-3.34c-1-1.91-1.63-3.15-1.94-3.81h0c-.26.53-1.12,2.31-1.94,3.81h-3.19l3.37-5.57-3.32-5.83Z" transform="translate(-48.07 0)"/><path class="cls-2" d="M456.29,185.18v2.51h-5.7v-2.51Z" transform="translate(-48.07 0)"/><path class="cls-2" d="M460.89,188.61a1.75,1.75,0,0,0,2,1.54c1.06,0,1.61-.42,1.61-1.14s-.64-1-2.38-1.52c-3-.86-3.74-1.91-3.74-3.54,0-1.43.9-3.45,4.33-3.45,3,0,4.29,1.56,4.42,3.48h-2.9a1.44,1.44,0,0,0-1.65-1.3c-.81,0-1.28.33-1.28,1s.44.9,2.09,1.32c3.1.81,4,1.94,4,3.74,0,2.35-2,3.59-4.64,3.59s-4.55-1.23-4.8-3.7Z" transform="translate(-48.07 0)"/><path class="cls-2" d="M471.63,188.61a1.75,1.75,0,0,0,2,1.54c1.06,0,1.61-.42,1.61-1.14s-.64-1-2.38-1.52c-3-.86-3.74-1.91-3.74-3.54,0-1.43.9-3.45,4.33-3.45,3,0,4.29,1.56,4.42,3.48h-2.9a1.44,1.44,0,0,0-1.65-1.3c-.81,0-1.28.33-1.28,1s.44.9,2.09,1.32c3.1.81,4,1.94,4,3.74,0,2.35-2,3.59-4.64,3.59s-4.55-1.23-4.8-3.7Z" transform="translate(-48.07 0)"/><path class="cls-2" d="M480.05,192.11v-16h3v16Z" transform="translate(-48.07 0)"/><path class="cls-2" d="M491,185.18v2.51h-5.7v-2.51Z" transform="translate(-48.07 0)"/><path class="cls-2" d="M493.21,196.49V184c0-1.54,0-2.55,0-3.3h2.9c0,.37.07.95.09,1.52a3.38,3.38,0,0,1,3.28-1.74c2.38,0,4.31,1.83,4.31,5.81,0,3.7-2.09,6-4.84,6a3,3,0,0,1-2.75-1.19v5.37Zm5.19-13.55c-1.8,0-2.35,1-2.35,3.5,0,2.2.51,3.48,2.27,3.48,1.58,0,2.42-1.23,2.42-3.56S499.77,182.94,498.4,182.94Z" transform="translate(-48.07 0)"/><path class="cls-2" d="M505.92,184.59c0-1.87,0-3.08,0-3.87h2.9a17,17,0,0,1,.09,2,3.51,3.51,0,0,1,3.46-2.18v3c-2.35,0-3.41.75-3.41,3.37v5.17h-3Z" transform="translate(-48.07 0)"/><path class="cls-2" d="M524.21,186.26c0,3.32-1.58,6.07-5.46,6.07s-5.37-2.93-5.37-6c0-2.84,1.61-5.83,5.52-5.83C522.56,180.49,524.21,183.18,524.21,186.26Zm-7.79,0c0,2.44.84,3.74,2.44,3.74s2.33-1.3,2.33-3.7-.79-3.43-2.42-3.43S516.42,184.17,516.42,186.24Z" transform="translate(-48.07 0)"/><path class="cls-2" d="M528,180.71c1.1,2,1.63,3,1.94,3.65h0c.4-.75,1.1-1.94,2-3.65h3.15l-3.48,5.37,3.43,6h-3.34c-1-1.91-1.63-3.15-1.94-3.81h0c-.26.53-1.12,2.31-1.94,3.81h-3.19l3.37-5.57-3.32-5.83Z" transform="translate(-48.07 0)"/><path class="cls-2" d="M538.57,180.71c1.34,4.84,2.11,7.5,2.29,8.8h0c.31-1.41,1.34-5.37,2.29-8.8h3l-3.87,11.88c-1.19,3.65-2.6,4.07-4.53,4.07-.22,0-.79,0-1.14-.09v-2.44a9,9,0,0,0,1,.07c.95,0,1.45-.59,1.74-1.56l-4-11.93Z" transform="translate(-48.07 0)"/><path class="cls-2" d="M553.31,196.54v-12.3c0-1.52,0-2.6,0-3.28h1.8c0,.37,0,1.17,0,1.8a3.59,3.59,0,0,1,3.48-2c2.44,0,4.18,1.91,4.18,5.61s-2,5.94-4.62,5.94a3.18,3.18,0,0,1-3-1.52v5.77ZM558,182.32c-2.29,0-3,1.56-3,4.25,0,2.46.46,4.16,2.86,4.16,1.87,0,3-1.54,3-4.31S559.8,182.32,558,182.32Z" transform="translate(-48.07 0)"/><path class="cls-2" d="M574.28,186.35c0,3.23-1.41,6-5,6s-4.84-2.84-4.84-5.9,1.61-5.68,5-5.68C572.58,180.74,574.28,183.13,574.28,186.35Zm-7.94,0c0,2.55,1.06,4.4,3.06,4.4s3-1.8,3-4.42c0-2.44-1-4.11-3-4.11S566.33,183.95,566.33,186.39Z" transform="translate(-48.07 0)"/><path class="cls-2" d="M585.39,176.09v13.11c0,1.08,0,2.22,0,2.9h-1.78c0-.29-.07-1-.07-1.65-.59,1.3-1.5,1.85-3.32,1.85-2.88,0-4.33-2.44-4.33-5.77s1.67-5.81,4.71-5.81c1.8,0,2.64.73,2.95,1.34v-6Zm-4.64,14.65c2.4,0,2.9-1.83,2.9-4.44,0-3.08-.9-4-2.79-4s-3,1.5-3,4.16S579,190.75,580.75,190.75Z" transform="translate(-48.07 0)"/><rect class="cls-1" x="266" y="627.66" width="369.31" height="65.66"/><path class="cls-2" d="M455.74,655.49V636.12H460v19.37Z" transform="translate(-48.07 0)"/><path class="cls-2" d="M462.5,642h2.42v-4h4.26v4h3.12v3.09h-3.12v5.67c0,1.14.23,1.66,1.53,1.66a5.64,5.64,0,0,0,1.14-.08v2.91a10.31,10.31,0,0,1-2.68.29c-3.3,0-4.26-1.43-4.26-4.06v-6.4H462.5Z" transform="translate(-48.07 0)"/><path class="cls-2" d="M489.1,636.12v15.6c0,1.25,0,2.52,0,3.77h-4.19c-.05-.39-.08-1-.1-1.56-.75,1-1.69,1.92-4.47,1.92-3.74,0-6.53-2.78-6.53-7a7,7,0,0,1,6.92-7.2c2.63,0,3.69.88,4.08,1.4v-7Zm-7.49,16.41c2.18,0,3.33-1.43,3.33-3.74s-.91-3.8-3.33-3.8-3.41,1.82-3.41,3.8C478.21,650.91,479.43,652.53,481.61,652.53Z" transform="translate(-48.07 0)"/><path class="cls-2" d="M500.9,647.09v3.54h-8.68v-3.54Z" transform="translate(-48.07 0)"/><path class="cls-2" d="M507.22,651.35c.34,1,1.22,1.59,3,1.59s2.31-.55,2.31-1.2-.57-1.12-3.28-1.48c-5.12-.73-5.82-2.6-5.82-4.24,0-2.05,1.53-4.34,6.21-4.34s6.4,2.24,6.58,4.16h-4.16c-.21-.62-.68-1.35-2.57-1.35-1.61,0-1.9.62-1.9,1.09s.44.91,2.94,1.27c5.46.83,6.16,2.65,6.16,4.52,0,2.44-1.85,4.47-6.76,4.47-3.67,0-6.55-1.56-7-4.5Z" transform="translate(-48.07 0)"/><path class="cls-2" d="M529.53,654.08c-.75,1-1.92,1.77-4.45,1.77a6.58,6.58,0,0,1-6.58-6.81,7,7,0,0,1,6.86-7.36c2.65,0,3.85,1.07,4.16,1.66,0-.39.05-.91.1-1.3h4.16c0,1.2,0,2.44,0,3.74v15.37h-4.24Zm-3.33-1.59c2.29,0,3.43-1.33,3.43-3.69,0-2.05-.78-3.82-3.33-3.82s-3.43,1.9-3.43,3.8C522.87,650.94,524.15,652.5,526.2,652.5Z" transform="translate(-48.07 0)"/><path class="cls-2" d="M537.36,655.49V636.12h4.24v19.37Z" transform="translate(-48.07 0)"/><path class="cls-2" d="M427.48,681.89H426a16.78,16.78,0,0,1-.15-2.2c-.81,1.74-2.29,2.42-4.47,2.42-4,0-5.9-3.39-5.9-7.75s2.29-7.88,6.53-7.88c3.23,0,5,1.72,5.48,4.4h-1.85a3.46,3.46,0,0,0-3.72-2.79c-3.12,0-4.49,2.77-4.49,6.27,0,3.26,1.28,6.16,4.27,6.16,3.26,0,3.89-2.27,3.89-5.06v-.09h-3.94V673.7h5.81Z" transform="translate(-48.07 0)"/><path class="cls-2" d="M439.89,676.12c0,3.23-1.41,6-5,6s-4.84-2.84-4.84-5.9,1.61-5.68,5-5.68C438.19,670.51,439.89,672.91,439.89,676.12Zm-7.94,0c0,2.55,1.06,4.4,3.06,4.4s3-1.8,3-4.42c0-2.44-1-4.12-3-4.12S431.94,673.73,431.94,676.17Z" transform="translate(-48.07 0)"/><path class="cls-2" d="M451.39,676.12c0,3.23-1.41,6-5,6s-4.84-2.84-4.84-5.9,1.61-5.68,5-5.68C449.7,670.51,451.39,672.91,451.39,676.12Zm-7.94,0c0,2.55,1.06,4.4,3.06,4.4s3-1.8,3-4.42c0-2.44-1-4.12-3-4.12S443.45,673.73,443.45,676.17Z" transform="translate(-48.07 0)"/><path class="cls-2" d="M462.55,681c0,3.5-1.41,5.46-4.8,5.46s-4.25-1.76-4.4-3.34h1.8c.26,1.25,1.25,1.85,2.68,1.85,2.38,0,2.93-1.56,2.93-4v-.9c-.57,1.23-1.54,1.83-3.28,1.83-2.62,0-4.31-2.2-4.31-5.66,0-3.61,2-5.74,4.58-5.74,1.76,0,2.66.73,3,1.58a10.31,10.31,0,0,1,.09-1.36h1.78c0,.53,0,1.72,0,3.23Zm-4.62-.7c2.13,0,2.88-1.34,2.88-4.14s-.62-4.09-2.77-4.09c-1.85,0-3,1.54-3,4.14S456.17,680.33,457.93,680.33Z" transform="translate(-48.07 0)"/><path class="cls-2" d="M465.74,681.89v-16h1.83v16Z" transform="translate(-48.07 0)"/><path class="cls-2" d="M471.87,676.65c0,2.24.95,3.92,2.9,3.92a2.56,2.56,0,0,0,2.57-1.83h1.78a4.26,4.26,0,0,1-4.44,3.37c-3.48,0-4.67-2.75-4.67-5.83,0-2.75,1.34-5.76,4.77-5.76s4.51,2.73,4.51,5.3v.84Zm5.63-1.32c0-1.91-.81-3.34-2.75-3.34-2.2,0-2.73,2-2.84,3.34Z" transform="translate(-48.07 0)"/><path class="cls-2" d="M498.32,677.47a5.3,5.3,0,0,1-5.61,4.64c-4.44,0-6.14-3.37-6.14-7.92,0-4,1.94-7.7,6.25-7.7,3.5,0,5.13,2.11,5.41,4.69h-1.89c-.37-1.78-1.32-3.08-3.59-3.08-3,0-4.22,2.9-4.22,6.09s1,6.34,4.22,6.34c2.27,0,3.21-1.34,3.67-3.06Z" transform="translate(-48.07 0)"/><path class="cls-2" d="M500.67,681.89v-16h1.83v16Z" transform="translate(-48.07 0)"/><path class="cls-2" d="M514.77,676.12c0,3.23-1.41,6-5,6s-4.84-2.84-4.84-5.9,1.61-5.68,5-5.68C513.08,670.51,514.77,672.91,514.77,676.12Zm-7.94,0c0,2.55,1.06,4.4,3.06,4.4s3-1.8,3-4.42c0-2.44-1-4.12-3-4.12S506.83,673.73,506.83,676.17Z" transform="translate(-48.07 0)"/><path class="cls-2" d="M525.66,678.74c0,1.39,0,2.62,0,3.15h-1.76a11.43,11.43,0,0,1-.09-1.78,3.32,3.32,0,0,1-3.28,2c-1.74,0-3.41-.84-3.41-3.85v-7.5H519v7.15c0,1.45.46,2.62,2.16,2.62s2.68-1.08,2.68-3.54v-6.23h1.85Z" transform="translate(-48.07 0)"/><path class="cls-2" d="M537.54,665.87V679c0,1.08,0,2.22,0,2.9H535.8c0-.29-.07-1-.07-1.65-.59,1.3-1.5,1.85-3.32,1.85-2.88,0-4.33-2.44-4.33-5.76s1.67-5.81,4.71-5.81c1.8,0,2.64.73,2.95,1.34v-6Zm-4.64,14.65c2.4,0,2.9-1.83,2.9-4.44,0-3.08-.9-4-2.79-4s-3,1.5-3,4.16S531.14,680.52,532.9,680.52Z" transform="translate(-48.07 0)"/><path class="cls-2" d="M547.29,677.6a3.2,3.2,0,0,0,3.43,2.93c1.83,0,3-.95,3-2.62s-.79-2.4-3.45-3.23c-3.17-1-4.4-2-4.4-4.2,0-2.42,1.83-4,4.67-4,3.26,0,4.64,1.91,4.82,4.07h-1.87a2.72,2.72,0,0,0-3-2.55c-1.78,0-2.66.88-2.66,2.27s.79,2,3.23,2.73c3.74,1.14,4.64,2.57,4.64,4.67,0,2.53-1.74,4.38-5.06,4.38-3.15,0-5-1.69-5.21-4.47Z" transform="translate(-48.07 0)"/><path class="cls-2" d="M570.41,674.19c0,2.79-.81,5.24-2.58,6.65l3.5,2.51-1.08,1.36-4.09-2.95a6.93,6.93,0,0,1-2.22.35c-4.2,0-6.31-3.34-6.31-7.9,0-4,2.07-7.72,6.49-7.72C568.3,666.49,570.41,669.81,570.41,674.19Zm-10.83,0c0,3.56,1.45,6.36,4.45,6.36s4.44-2.75,4.44-6.31-1.34-6.14-4.42-6.14S559.58,670.82,559.58,674.17Z" transform="translate(-48.07 0)"/><path class="cls-2" d="M573.47,666.71h1.89v13.58h7.3l-.26,1.61h-8.93Z" transform="translate(-48.07 0)"/><rect class="cls-1" y="380.41" width="635.31" height="215.25"/><path class="cls-2" d="M764.92,407.6c.81-1,2.31-3,3.63-4.75h3.39c-1.1,1.34-2.55,3-3.76,4.44,1.25,2,2.77,4.69,4.09,7h-3.43c-.77-1.43-1.85-3.48-2.64-5,0,.07-1.21,1.34-1.28,1.39v3.59h-3v-16h3Z" transform="translate(-48.07 0)"/><path class="cls-2" d="M775.55,409.23c0,1.39.53,2.88,2.22,2.88a1.88,1.88,0,0,0,2-1.36h2.93a4.76,4.76,0,0,1-5,3.7c-3.63,0-5.15-2.49-5.15-5.87,0-2.82,1.41-5.94,5.28-5.94s5,2.73,5,5.68c0,.15,0,.75,0,.92Zm4.33-2c0-1.28-.57-2.4-2.11-2.4-1.69,0-2.11,1.39-2.18,2.4Z" transform="translate(-48.07 0)"/><path class="cls-2" d="M787.43,409.23c0,1.39.53,2.88,2.22,2.88a1.88,1.88,0,0,0,2-1.36h2.93a4.76,4.76,0,0,1-5,3.7c-3.63,0-5.15-2.49-5.15-5.87,0-2.82,1.41-5.94,5.28-5.94s5,2.73,5,5.68c0,.15,0,.75,0,.92Zm4.33-2c0-1.28-.57-2.4-2.11-2.4-1.69,0-2.11,1.39-2.18,2.4Z" transform="translate(-48.07 0)"/><path class="cls-2" d="M796.8,418.62V406.15c0-1.54,0-2.55,0-3.3h2.91c0,.37.07.95.09,1.52a3.37,3.37,0,0,1,3.28-1.74c2.38,0,4.31,1.83,4.31,5.81,0,3.7-2.09,6-4.84,6a3,3,0,0,1-2.75-1.19v5.37ZM802,405.07c-1.8,0-2.35,1-2.35,3.5,0,2.2.51,3.48,2.27,3.48,1.58,0,2.42-1.23,2.42-3.56S803.36,405.07,802,405.07Z" transform="translate(-48.07 0)"/><path class="cls-2" d="M811.93,409.23c0,1.39.53,2.88,2.22,2.88a1.88,1.88,0,0,0,2-1.36H819a4.76,4.76,0,0,1-5,3.7c-3.63,0-5.15-2.49-5.15-5.87,0-2.82,1.41-5.94,5.28-5.94s5,2.73,5,5.68c0,.15,0,.75,0,.92Zm4.33-2c0-1.28-.57-2.4-2.11-2.4-1.69,0-2.11,1.39-2.18,2.4Z" transform="translate(-48.07 0)"/><path class="cls-2" d="M821.31,406.72c0-1.87,0-3.08,0-3.87h2.9a17,17,0,0,1,.09,2,3.51,3.51,0,0,1,3.46-2.18v3c-2.35,0-3.41.75-3.41,3.37v5.17h-3Z" transform="translate(-48.07 0)"/><path class="cls-2" d="M834.66,407.31v2.51H829v-2.51Z" transform="translate(-48.07 0)"/><path class="cls-2" d="M839.26,410.75a1.75,1.75,0,0,0,2,1.54c1.06,0,1.61-.42,1.61-1.14s-.64-1-2.38-1.52c-3-.86-3.74-1.92-3.74-3.54,0-1.43.9-3.45,4.33-3.45,3,0,4.29,1.56,4.42,3.48h-2.9a1.44,1.44,0,0,0-1.65-1.3c-.81,0-1.28.33-1.28,1s.44.9,2.09,1.32c3.1.81,4,1.94,4,3.74,0,2.35-2,3.59-4.64,3.59s-4.55-1.23-4.8-3.7Z" transform="translate(-48.07 0)"/><path class="cls-2" d="M850.26,409.23c0,1.39.53,2.88,2.22,2.88a1.88,1.88,0,0,0,2-1.36h2.93a4.76,4.76,0,0,1-5,3.7c-3.63,0-5.15-2.49-5.15-5.87,0-2.82,1.41-5.94,5.28-5.94s5,2.73,5,5.68c0,.15,0,.75,0,.92Zm4.33-2c0-1.28-.57-2.4-2.11-2.4-1.69,0-2.11,1.39-2.18,2.4Z" transform="translate(-48.07 0)"/><path class="cls-2" d="M869.22,410.26a4.57,4.57,0,0,1-5,4.18c-3.5,0-5.13-2.16-5.13-5.87s2-5.94,5.3-5.94c3.72,0,4.73,2.68,4.8,4.27h-3c-.11-1-.57-2-1.87-2-1.56,0-2.2,1.45-2.2,3.54,0,2.66.79,3.72,2.16,3.72s1.69-.84,1.94-1.91Z" transform="translate(-48.07 0)"/><path class="cls-2" d="M871.2,406.72c0-1.87,0-3.08,0-3.87h2.9a17,17,0,0,1,.09,2,3.51,3.51,0,0,1,3.46-2.18v3c-2.35,0-3.41.75-3.41,3.37v5.17h-3Z" transform="translate(-48.07 0)"/><path class="cls-2" d="M881.7,409.23c0,1.39.53,2.88,2.22,2.88a1.88,1.88,0,0,0,2-1.36h2.93a4.76,4.76,0,0,1-5,3.7c-3.63,0-5.15-2.49-5.15-5.87,0-2.82,1.41-5.94,5.28-5.94s5,2.73,5,5.68c0,.15,0,.75,0,.92Zm4.33-2c0-1.28-.57-2.4-2.11-2.4-1.69,0-2.11,1.39-2.18,2.4Z" transform="translate(-48.07 0)"/><path class="cls-2" d="M889.88,402.85h1.61v-3.08h3v3.08h2v2.33h-2V411c0,.77.2,1.1,1.12,1.1a3.79,3.79,0,0,0,.68,0v2a6.53,6.53,0,0,1-1.83.22c-2.2,0-2.95-.88-2.95-3v-6.18h-1.61Z" transform="translate(-48.07 0)"/><path class="cls-2" d="M900.37,410.75a1.75,1.75,0,0,0,2,1.54c1.06,0,1.61-.42,1.61-1.14s-.64-1-2.38-1.52c-3-.86-3.74-1.92-3.74-3.54,0-1.43.9-3.45,4.33-3.45,3,0,4.29,1.56,4.42,3.48h-2.9a1.44,1.44,0,0,0-1.65-1.3c-.81,0-1.28.33-1.28,1s.44.9,2.09,1.32c3.1.81,4,1.94,4,3.74,0,2.35-2,3.59-4.64,3.59s-4.55-1.23-4.8-3.7Z" transform="translate(-48.07 0)"/><path class="cls-2" d="M78.4,407.6c.81-1,2.31-3,3.63-4.75h3.39c-1.1,1.34-2.55,3-3.76,4.44,1.25,2,2.77,4.69,4.09,7H82.32c-.77-1.43-1.85-3.48-2.64-5,0,.07-1.21,1.34-1.28,1.39v3.59h-3v-16h3Z" transform="translate(-48.07 0)"/><path class="cls-2" d="M89,409.23c0,1.39.53,2.88,2.22,2.88a1.88,1.88,0,0,0,2-1.36h2.93a4.76,4.76,0,0,1-5,3.7c-3.63,0-5.15-2.49-5.15-5.87,0-2.82,1.41-5.94,5.28-5.94s5,2.73,5,5.68c0,.15,0,.75,0,.92Zm4.33-2c0-1.28-.57-2.4-2.11-2.4-1.69,0-2.11,1.39-2.18,2.4Z" transform="translate(-48.07 0)"/><path class="cls-2" d="M100.91,409.23c0,1.39.53,2.88,2.22,2.88a1.88,1.88,0,0,0,2-1.36H108a4.76,4.76,0,0,1-5,3.7c-3.63,0-5.15-2.49-5.15-5.87,0-2.82,1.41-5.94,5.28-5.94s5,2.73,5,5.68c0,.15,0,.75,0,.92Zm4.33-2c0-1.28-.57-2.4-2.11-2.4-1.69,0-2.11,1.39-2.18,2.4Z" transform="translate(-48.07 0)"/><path class="cls-2" d="M110.28,418.62V406.15c0-1.54,0-2.55,0-3.3h2.9c0,.37.07.95.09,1.52a3.38,3.38,0,0,1,3.28-1.74c2.38,0,4.31,1.83,4.31,5.81,0,3.7-2.09,6-4.84,6a3,3,0,0,1-2.75-1.19v5.37Zm5.19-13.55c-1.8,0-2.35,1-2.35,3.5,0,2.2.51,3.48,2.27,3.48,1.58,0,2.42-1.23,2.42-3.56S116.83,405.07,115.47,405.07Z" transform="translate(-48.07 0)"/><path class="cls-2" d="M125.41,409.23c0,1.39.53,2.88,2.22,2.88a1.88,1.88,0,0,0,2-1.36h2.93a4.76,4.76,0,0,1-5,3.7c-3.63,0-5.15-2.49-5.15-5.87,0-2.82,1.41-5.94,5.28-5.94s5,2.73,5,5.68c0,.15,0,.75,0,.92Zm4.33-2c0-1.28-.57-2.4-2.11-2.4-1.69,0-2.11,1.39-2.18,2.4Z" transform="translate(-48.07 0)"/><path class="cls-2" d="M134.78,406.72c0-1.87,0-3.08,0-3.87h2.9a17,17,0,0,1,.09,2,3.51,3.51,0,0,1,3.46-2.18v3c-2.35,0-3.41.75-3.41,3.37v5.17h-3Z" transform="translate(-48.07 0)"/><path class="cls-2" d="M148.14,407.31v2.51h-5.7v-2.51Z" transform="translate(-48.07 0)"/><path class="cls-2" d="M160.75,398.25v12.83c0,1.32,0,2.51,0,3.17h-2.91a12.27,12.27,0,0,1-.11-1.34c-.53,1-1.39,1.56-3.19,1.56-2.9,0-4.4-2.38-4.4-5.9s1.83-5.94,4.88-5.94c1.69,0,2.44.59,2.68,1.06v-5.43ZM155.58,412c1.94,0,2.31-1.32,2.31-3.54,0-2.44-.48-3.43-2.22-3.43-1.47,0-2.44,1.12-2.44,3.39S153.95,412,155.58,412Z" transform="translate(-48.07 0)"/><path class="cls-2" d="M166,409.23c0,1.39.53,2.88,2.22,2.88a1.88,1.88,0,0,0,2-1.36h2.93a4.76,4.76,0,0,1-5,3.7c-3.63,0-5.15-2.49-5.15-5.87,0-2.82,1.41-5.94,5.28-5.94s5,2.73,5,5.68c0,.15,0,.75,0,.92Zm4.33-2c0-1.28-.57-2.4-2.11-2.4-1.69,0-2.11,1.39-2.18,2.4Z" transform="translate(-48.07 0)"/><path class="cls-2" d="M175.37,418.62V406.15c0-1.54,0-2.55,0-3.3h2.91c0,.37.07.95.09,1.52a3.37,3.37,0,0,1,3.28-1.74c2.38,0,4.31,1.83,4.31,5.81,0,3.7-2.09,6-4.84,6a3,3,0,0,1-2.75-1.19v5.37Zm5.19-13.55c-1.8,0-2.35,1-2.35,3.5,0,2.2.51,3.48,2.27,3.48,1.58,0,2.42-1.23,2.42-3.56S181.93,405.07,180.57,405.07Z" transform="translate(-48.07 0)"/><path class="cls-2" d="M188.09,414.25v-16h3v16Z" transform="translate(-48.07 0)"/><path class="cls-2" d="M204,408.39c0,3.32-1.58,6.07-5.46,6.07s-5.37-2.93-5.37-6c0-2.84,1.61-5.83,5.52-5.83C202.39,402.63,204,405.31,204,408.39Zm-7.79,0c0,2.44.84,3.74,2.44,3.74s2.33-1.3,2.33-3.7-.79-3.43-2.42-3.43S196.25,406.3,196.25,408.37Z" transform="translate(-48.07 0)"/><path class="cls-2" d="M208.07,402.85c1.34,4.84,2.11,7.5,2.29,8.8h0c.31-1.41,1.34-5.37,2.29-8.8h3l-3.87,11.88c-1.19,3.65-2.6,4.07-4.53,4.07-.22,0-.79,0-1.14-.09v-2.44a9,9,0,0,0,1,.07c.95,0,1.45-.59,1.74-1.56l-4-11.93Z" transform="translate(-48.07 0)"/><path class="cls-2" d="M217.06,406.39c0-2.25,0-3,0-3.54h2.9c0,.4.07.92.09,1.36a3.53,3.53,0,0,1,3.17-1.58,2.81,2.81,0,0,1,2.84,1.78,3.86,3.86,0,0,1,3.41-1.78c1.91,0,3.63,1,3.63,4v7.63h-2.93v-7.15c0-1-.37-2-1.65-2s-1.94,1-1.94,2.66v6.49h-2.93V407c0-1-.48-1.91-1.65-1.91s-2,.81-2,2.82v6.34h-2.95Z" transform="translate(-48.07 0)"/><path class="cls-2" d="M238.23,409.23c0,1.39.53,2.88,2.22,2.88a1.88,1.88,0,0,0,2-1.36h2.93a4.76,4.76,0,0,1-5,3.7c-3.63,0-5.15-2.49-5.15-5.87,0-2.82,1.41-5.94,5.28-5.94s5,2.73,5,5.68c0,.15,0,.75,0,.92Zm4.33-2c0-1.28-.57-2.4-2.11-2.4-1.69,0-2.11,1.39-2.18,2.4Z" transform="translate(-48.07 0)"/><path class="cls-2" d="M247.6,406.41c0-2.35,0-3.06,0-3.56h2.9a10.66,10.66,0,0,1,.11,1.47,3.45,3.45,0,0,1,3.17-1.69c2.4,0,3.61,1.54,3.61,4.16v7.46h-3v-6.89c0-1.3-.33-2.27-1.74-2.27s-2,.79-2,2.79v6.36h-3Z" transform="translate(-48.07 0)"/><path class="cls-2" d="M258.84,402.85h1.61v-3.08h3v3.08h2v2.33h-2V411c0,.77.2,1.1,1.12,1.1a3.79,3.79,0,0,0,.68,0v2a6.53,6.53,0,0,1-1.83.22c-2.2,0-2.95-.88-2.95-3v-6.18h-1.61Z" transform="translate(-48.07 0)"/><path class="cls-2" d="M75.61,433.27c0-1.78,0-3.23,0-3.79h1.78c0,.53,0,1.23,0,2.27A3.74,3.74,0,0,1,81,429.29v1.89c-2.51.09-3.56,1.56-3.56,4v5.48H75.61Z" transform="translate(-48.07 0)"/><path class="cls-2" d="M83.86,435.41c0,2.24.95,3.92,2.9,3.92a2.56,2.56,0,0,0,2.57-1.83h1.78a4.26,4.26,0,0,1-4.44,3.37c-3.48,0-4.67-2.75-4.67-5.83,0-2.75,1.34-5.76,4.77-5.76s4.51,2.73,4.51,5.3v.84Zm5.63-1.32c0-1.91-.81-3.34-2.75-3.34-2.2,0-2.73,2-2.84,3.34Z" transform="translate(-48.07 0)"/><path class="cls-2" d="M93.71,445.07v-12.3c0-1.52,0-2.6,0-3.28h1.8c0,.37,0,1.17,0,1.8a3.59,3.59,0,0,1,3.48-2c2.44,0,4.18,1.91,4.18,5.61s-2,5.94-4.62,5.94a3.17,3.17,0,0,1-3-1.52v5.77Zm4.71-14.21c-2.29,0-3,1.56-3,4.25,0,2.46.46,4.16,2.86,4.16,1.87,0,3-1.54,3-4.31S100.2,430.85,98.42,430.85Z" transform="translate(-48.07 0)"/><path class="cls-2" d="M105.61,440.65v-16h1.83v16Z" transform="translate(-48.07 0)"/><path class="cls-2" d="M110.65,427v-2.35h1.83V427Zm0,2.51h1.83v11.16h-1.83Z" transform="translate(-48.07 0)"/><path class="cls-2" d="M124.14,437.08a4.29,4.29,0,0,1-4.49,3.78c-3.12,0-4.71-2.09-4.71-5.81,0-3.23,1.63-5.79,4.82-5.79a4.08,4.08,0,0,1,4.36,3.89h-1.83a2.51,2.51,0,0,0-2.55-2.4c-2,0-2.93,1.78-2.93,4.25,0,2.86,1,4.36,2.9,4.36,1.54,0,2.2-1,2.6-2.29Z" transform="translate(-48.07 0)"/><path class="cls-2" d="M134.37,438.16a20.75,20.75,0,0,0,.15,2.49h-1.65a10.16,10.16,0,0,1-.15-1.72,3.32,3.32,0,0,1-3.39,1.92,3.2,3.2,0,0,1-3.54-3.39c0-1.67,1.08-3.54,5.06-3.54h1.72v-1.08c0-1.06-.31-2.16-2.2-2.16a2,2,0,0,0-2.35,2h-1.78c.15-1.87,1.23-3.39,4.2-3.39,2.33,0,3.94.95,3.94,3.48Zm-1.76-2.93h-1.76c-2.71,0-3.21,1.1-3.21,2.11a1.89,1.89,0,0,0,2.07,2c2.2,0,2.9-1.5,2.9-3.87Z" transform="translate(-48.07 0)"/><path class="cls-2" d="M135.91,429.49h1.78v-3.23h1.83v3.23h2.24V431h-2.24v7c0,.95.24,1.34,1.19,1.34a4.91,4.91,0,0,0,.86-.09v1.39a4.88,4.88,0,0,1-1.45.18c-1.63,0-2.42-.62-2.42-2.46V431h-1.78Z" transform="translate(-48.07 0)"/><path class="cls-2" d="M143.7,427v-2.35h1.83V427Zm0,2.51h1.83v11.16H143.7Z" transform="translate(-48.07 0)"/><path class="cls-2" d="M157.8,434.88c0,3.23-1.41,6-5,6S148,438,148,434.95s1.61-5.68,5-5.68C156.1,429.27,157.8,431.67,157.8,434.88Zm-7.94,0c0,2.55,1.06,4.4,3.06,4.4s3-1.8,3-4.42c0-2.44-1-4.11-3-4.11S149.85,432.48,149.85,434.92Z" transform="translate(-48.07 0)"/><path class="cls-2" d="M160.24,433c0-2.33,0-3,0-3.5H162a13.24,13.24,0,0,1,.07,1.74,3.42,3.42,0,0,1,3.3-2c2.07,0,3.54,1.17,3.54,4.18v7.2h-1.83v-6.91c0-1.63-.55-2.86-2.22-2.86-2,0-2.77,1.47-2.77,3.81v6h-1.83Z" transform="translate(-48.07 0)"/><path class="cls-2" d="M186,437.08a4.29,4.29,0,0,1-4.49,3.78c-3.12,0-4.71-2.09-4.71-5.81,0-3.23,1.63-5.79,4.82-5.79a4.08,4.08,0,0,1,4.36,3.89h-1.83a2.51,2.51,0,0,0-2.55-2.4c-2,0-2.93,1.78-2.93,4.25,0,2.86,1,4.36,2.9,4.36,1.54,0,2.2-1,2.6-2.29Z" transform="translate(-48.07 0)"/><path class="cls-2" d="M197.44,434.88c0,3.23-1.41,6-5,6s-4.84-2.84-4.84-5.9,1.61-5.68,5-5.68C195.75,429.27,197.44,431.67,197.44,434.88Zm-7.94,0c0,2.55,1.06,4.4,3.06,4.4s3-1.8,3-4.42c0-2.44-1-4.11-3-4.11S189.5,432.48,189.5,434.92Z" transform="translate(-48.07 0)"/><path class="cls-2" d="M199.88,433c0-2.33,0-3,0-3.5h1.78a13.24,13.24,0,0,1,.07,1.74,3.42,3.42,0,0,1,3.3-2c2.07,0,3.54,1.17,3.54,4.18v7.2H206.7v-6.91c0-1.63-.55-2.86-2.22-2.86-2,0-2.77,1.47-2.77,3.81v6h-1.83Z" transform="translate(-48.07 0)"/><path class="cls-2" d="M210.16,429.49h1.78v-3.23h1.83v3.23H216V431h-2.24v7c0,.95.24,1.34,1.19,1.34a4.91,4.91,0,0,0,.86-.09v1.39a4.88,4.88,0,0,1-1.45.18c-1.63,0-2.42-.62-2.42-2.46V431h-1.78Z" transform="translate(-48.07 0)"/><path class="cls-2" d="M217.81,433.27c0-1.78,0-3.23,0-3.79h1.78c0,.53,0,1.23,0,2.27a3.74,3.74,0,0,1,3.61-2.46v1.89c-2.51.09-3.56,1.56-3.56,4v5.48h-1.83Z" transform="translate(-48.07 0)"/><path class="cls-2" d="M234,434.88c0,3.23-1.41,6-5,6s-4.84-2.84-4.84-5.9,1.61-5.68,5-5.68C232.33,429.27,234,431.67,234,434.88Zm-7.94,0c0,2.55,1.06,4.4,3.06,4.4s3-1.8,3-4.42c0-2.44-1-4.11-3-4.11S226.08,432.48,226.08,434.92Z" transform="translate(-48.07 0)"/><path class="cls-2" d="M236.47,440.65v-16h1.83v16Z" transform="translate(-48.07 0)"/><path class="cls-2" d="M241.5,440.65v-16h1.83v16Z" transform="translate(-48.07 0)"/><path class="cls-2" d="M247.64,435.41c0,2.24.95,3.92,2.9,3.92a2.56,2.56,0,0,0,2.58-1.83h1.78a4.26,4.26,0,0,1-4.45,3.37c-3.48,0-4.66-2.75-4.66-5.83,0-2.75,1.34-5.76,4.77-5.76s4.51,2.73,4.51,5.3v.84Zm5.63-1.32c0-1.91-.81-3.34-2.75-3.34-2.2,0-2.73,2-2.84,3.34Z" transform="translate(-48.07 0)"/><path class="cls-2" d="M257.5,433.27c0-1.78,0-3.23,0-3.79h1.78c0,.53,0,1.23,0,2.27a3.74,3.74,0,0,1,3.61-2.46v1.89c-2.51.09-3.56,1.56-3.56,4v5.48H257.5Z" transform="translate(-48.07 0)"/><rect class="cls-3" x="333.87" y="392.54" width="219.58" height="189.51" rx="22.43" ry="22.43"/><path class="cls-2" d="M442,407.67c.81-1,2.31-3,3.63-4.75H449c-1.1,1.34-2.55,3-3.76,4.44,1.25,2,2.77,4.69,4.09,7h-3.43c-.77-1.43-1.85-3.48-2.64-5,0,.07-1.21,1.34-1.28,1.39v3.59h-3v-16h3Z" transform="translate(-48.07 0)"/><path class="cls-2" d="M452.62,409.29c0,1.39.53,2.88,2.22,2.88a1.88,1.88,0,0,0,2-1.36h2.93a4.76,4.76,0,0,1-5,3.7c-3.63,0-5.15-2.49-5.15-5.87,0-2.82,1.41-5.94,5.28-5.94s5,2.73,5,5.68c0,.15,0,.75,0,.92Zm4.33-2c0-1.28-.57-2.4-2.11-2.4-1.69,0-2.11,1.39-2.18,2.4Z" transform="translate(-48.07 0)"/><path class="cls-2" d="M464.5,409.29c0,1.39.53,2.88,2.22,2.88a1.88,1.88,0,0,0,2-1.36h2.93a4.76,4.76,0,0,1-5,3.7c-3.63,0-5.15-2.49-5.15-5.87,0-2.82,1.41-5.94,5.28-5.94s5,2.73,5,5.68c0,.15,0,.75,0,.92Zm4.33-2c0-1.28-.57-2.4-2.11-2.4-1.69,0-2.11,1.39-2.18,2.4Z" transform="translate(-48.07 0)"/><path class="cls-2" d="M473.87,418.69V406.21c0-1.54,0-2.55,0-3.3h2.9c0,.37.07.95.09,1.52a3.38,3.38,0,0,1,3.28-1.74c2.38,0,4.31,1.83,4.31,5.81,0,3.7-2.09,6-4.84,6a3,3,0,0,1-2.75-1.19v5.37Zm5.19-13.55c-1.8,0-2.35,1-2.35,3.5,0,2.2.51,3.48,2.27,3.48,1.58,0,2.42-1.23,2.42-3.56S480.43,405.14,479.06,405.14Z" transform="translate(-48.07 0)"/><path class="cls-2" d="M489,409.29c0,1.39.53,2.88,2.22,2.88a1.88,1.88,0,0,0,2-1.36h2.93a4.76,4.76,0,0,1-5,3.7c-3.63,0-5.15-2.49-5.15-5.87,0-2.82,1.41-5.94,5.28-5.94s5,2.73,5,5.68c0,.15,0,.75,0,.92Zm4.33-2c0-1.28-.57-2.4-2.11-2.4-1.69,0-2.11,1.39-2.18,2.4Z" transform="translate(-48.07 0)"/><path class="cls-2" d="M498.38,406.79c0-1.87,0-3.08,0-3.87h2.9a17,17,0,0,1,.09,2,3.51,3.51,0,0,1,3.46-2.18v3c-2.35,0-3.41.75-3.41,3.37v5.17h-3Z" transform="translate(-48.07 0)"/><path class="cls-2" d="M512.13,418.73v-12.3c0-1.52,0-2.6,0-3.28h1.8c0,.37,0,1.17,0,1.8a3.59,3.59,0,0,1,3.48-2c2.44,0,4.18,1.91,4.18,5.61s-2,5.94-4.62,5.94a3.17,3.17,0,0,1-3-1.52v5.76Zm4.71-14.21c-2.29,0-3,1.56-3,4.25,0,2.46.46,4.16,2.86,4.16,1.87,0,3-1.54,3-4.31S518.62,404.52,516.84,404.52Z" transform="translate(-48.07 0)"/><path class="cls-2" d="M533.09,408.55c0,3.23-1.41,6-5,6s-4.84-2.84-4.84-5.9,1.61-5.68,5-5.68C531.4,402.94,533.09,405.33,533.09,408.55Zm-7.94,0c0,2.55,1.06,4.4,3.06,4.4s3-1.8,3-4.42c0-2.44-1-4.12-3-4.12S525.15,406.15,525.15,408.59Z" transform="translate(-48.07 0)"/><path class="cls-2" d="M544.2,398.29v13.11c0,1.08,0,2.22,0,2.9h-1.78c0-.29-.07-1-.07-1.65-.59,1.3-1.5,1.85-3.32,1.85-2.88,0-4.33-2.44-4.33-5.76s1.67-5.81,4.71-5.81c1.8,0,2.64.73,2.95,1.34v-6Zm-4.64,14.65c2.4,0,2.9-1.83,2.9-4.44,0-3.08-.9-4-2.79-4s-3,1.5-3,4.16S537.8,412.95,539.56,412.95Z" transform="translate(-48.07 0)"/><path class="cls-2" d="M468.45,441.59c0-2.33,0-3,0-3.5h1.78a13.21,13.21,0,0,1,.07,1.74,3.42,3.42,0,0,1,3.3-2c2.07,0,3.54,1.17,3.54,4.18v7.19h-1.83v-6.91c0-1.63-.55-2.86-2.22-2.86-2,0-2.77,1.47-2.77,3.81v6h-1.83Z" transform="translate(-48.07 0)"/><path class="cls-2" d="M488.93,448.39c0,3.5-1.41,5.46-4.8,5.46s-4.25-1.76-4.4-3.34h1.8c.26,1.25,1.25,1.85,2.68,1.85,2.38,0,2.93-1.56,2.93-4v-.9c-.57,1.23-1.54,1.83-3.28,1.83-2.62,0-4.31-2.2-4.31-5.66,0-3.61,2-5.74,4.58-5.74,1.76,0,2.66.73,3,1.58a10.31,10.31,0,0,1,.09-1.36H489c0,.53,0,1.72,0,3.23Zm-4.62-.7c2.13,0,2.88-1.34,2.88-4.14s-.62-4.09-2.77-4.09c-1.85,0-3,1.54-3,4.14S482.55,447.68,484.31,447.68Z" transform="translate(-48.07 0)"/><path class="cls-2" d="M492.12,435.58v-2.35h1.83v2.35Zm0,2.51h1.83v11.16h-1.83Z" transform="translate(-48.07 0)"/><path class="cls-2" d="M497.16,441.59c0-2.33,0-3,0-3.5h1.78a13.39,13.39,0,0,1,.07,1.74,3.42,3.42,0,0,1,3.3-2c2.07,0,3.54,1.17,3.54,4.18v7.19H504v-6.91c0-1.63-.55-2.86-2.22-2.86-2,0-2.77,1.47-2.77,3.81v6h-1.83Z" transform="translate(-48.07 0)"/><path class="cls-2" d="M509.46,438.09c1.45,2.44,2.16,3.59,2.51,4.22h0c.44-.75,1.36-2.18,2.62-4.22h2L513,443.44l3.59,5.81h-2.09c-1.28-2.16-2.2-3.67-2.62-4.4h0c-.33.62-1.3,2.29-2.6,4.4h-2l3.54-5.54-3.43-5.61Z" transform="translate(-48.07 0)"/><path class="cls-2" d="M474.73,512.1c0,1.39,0,2.62,0,3.15H473a11.29,11.29,0,0,1-.09-1.78,3.32,3.32,0,0,1-3.28,2c-1.74,0-3.41-.84-3.41-3.85v-7.5H468v7.15c0,1.45.46,2.62,2.16,2.62s2.68-1.08,2.68-3.54v-6.23h1.85Z" transform="translate(-48.07 0)"/><path class="cls-2" d="M478.71,504.09c1.28,4.91,2,7.81,2.31,9.29h0c.26-1.34.88-3.5,2.46-9.29h1.78c1.5,5.5,2.16,8,2.33,9.2h0c.24-1.23.88-3.52,2.44-9.2H492l-3.39,11.16h-1.91c-1-3.67-2-7.17-2.31-8.87h0c-.29,1.65-1.3,5.08-2.4,8.87h-2l-3.19-11.16Z" transform="translate(-48.07 0)"/><path class="cls-2" d="M494.66,512a2.3,2.3,0,0,0,2.51,2c1.54,0,2.13-.81,2.13-1.76s-.7-1.54-2.6-2c-2.73-.75-3.43-1.74-3.43-3.24s1-3.1,3.74-3.1,3.74,1.5,3.89,3.21h-1.8a2,2,0,0,0-2.18-1.78c-1.25,0-1.83.59-1.83,1.52s.42,1.3,2.29,1.78c2.84.77,3.74,1.72,3.74,3.5,0,2.07-1.63,3.34-4,3.34s-4-1.1-4.25-3.43Z" transform="translate(-48.07 0)"/><path class="cls-2" d="M512.15,514.39c0,3.5-1.41,5.46-4.8,5.46s-4.25-1.76-4.4-3.34h1.8c.26,1.25,1.25,1.85,2.68,1.85,2.38,0,2.93-1.56,2.93-4v-.9c-.57,1.23-1.54,1.83-3.28,1.83-2.62,0-4.31-2.2-4.31-5.66,0-3.61,2-5.74,4.58-5.74,1.76,0,2.66.73,3,1.58a10.31,10.31,0,0,1,.09-1.36h1.78c0,.53,0,1.72,0,3.23Zm-4.62-.7c2.13,0,2.88-1.34,2.88-4.14s-.62-4.09-2.77-4.09c-1.85,0-3,1.54-3,4.14S505.77,513.68,507.53,513.68Z" transform="translate(-48.07 0)"/><path class="cls-2" d="M515.34,501.58v-2.35h1.83v2.35Zm0,2.51h1.83v11.16h-1.83Z" transform="translate(-48.07 0)"/><rect class="cls-4" x="399.04" y="427.73" width="89.23" height="31.36" rx="5.82" ry="5.82"/><rect class="cls-4" x="399.04" y="492.56" width="89.23" height="31.36" rx="5.82" ry="5.82"/><line class="cls-5" x1="698.93" y1="187.05" x2="552.93" y2="187.05"/><line class="cls-5" x1="707.93" y1="407.05" x2="551.93" y2="407.05"/><line class="cls-5" x1="443.93" y1="567.05" x2="443.93" y2="628.05"/><line class="cls-5" x1="443.93" y1="342.05" x2="443.93" y2="380.05"/><line class="cls-5" x1="443.93" y1="206.05" x2="443.93" y2="276.05"/><line class="cls-5" x1="403.93" y1="112.05" x2="403.93" y2="166.05"/><line class="cls-5" x1="483.93" y1="112.05" x2="483.93" y2="166.05"/><line class="cls-5" x1="403.93" y1="19.05" x2="403.93" y2="46.05"/><line class="cls-5" x1="483.93" y1="19.05" x2="483.93" y2="46.05"/><line class="cls-5" x1="443.93" y1="459.05" x2="443.93" y2="493.05"/><rect class="cls-6" x="384.84" width="38.18" height="19.05" rx="2.97" ry="2.97"/><path class="cls-7" d="M443.22,8.42V5.75H445V8.42Zm0,6.3V12.05H445v2.67Z" transform="translate(-48.07 0)"/><path class="cls-7" d="M446.56,11.31A3,3,0,0,1,448,8.42a2.73,2.73,0,0,1-1.17-2.5,2.92,2.92,0,0,1,3.1-3.19,2.77,2.77,0,0,1,3,3c0,1.55-.58,2.32-1.21,2.63.77.36,1.48,1.19,1.48,3a3.19,3.19,0,0,1-3.4,3.53C447.68,14.88,446.56,13.49,446.56,11.31Zm4.79,0c0-1.46-.49-2.11-1.48-2.11s-1.46.76-1.46,2.09.43,2.12,1.48,2.12S451.35,12.63,451.35,11.3Zm-2.72-5.42c0,1.17.36,1.82,1.28,1.82s1.26-.58,1.26-1.78c0-1-.36-1.73-1.28-1.73S448.64,4.92,448.64,5.88Z" transform="translate(-48.07 0)"/><path class="cls-7" d="M461.22,8.67c0,4.5-1,6.21-3.35,6.21s-3.35-1.84-3.35-6.21c0-4.7,1.35-6,3.4-6S461.22,4.17,461.22,8.67Zm-4.81-.05c0,3.1.2,4.72,1.48,4.72s1.46-1.55,1.46-4.68-.25-4.36-1.46-4.36S456.41,5.46,456.41,8.61Z" transform="translate(-48.07 0)"/><rect class="cls-6" x="464.84" width="38.18" height="19.05" rx="2.97" ry="2.97"/><path class="cls-7" d="M519.37,8.42V5.75h1.76V8.42Zm0,6.3V12.05h1.76v2.67Z" transform="translate(-48.07 0)"/><path class="cls-7" d="M526.63,14.72V11.78h-4.21V10.25L526,2.85h2.39v7.4h1.1l-.16,1.53h-.94v2.94Zm0-7.18c0-1.19,0-2.23.07-3.19-.45,1.31-1.75,4.16-2.54,5.91h2.47Z" transform="translate(-48.07 0)"/><path class="cls-7" d="M534.73,14.72V11.78h-4.21V10.25l3.57-7.4h2.39v7.4h1.1l-.16,1.53h-.94v2.94Zm0-7.18c0-1.19,0-2.23.07-3.19-.45,1.31-1.75,4.16-2.54,5.91h2.47Z" transform="translate(-48.07 0)"/><path class="cls-7" d="M538.81,5.93a2.92,2.92,0,0,1,3.1-3.22,2.69,2.69,0,0,1,3,3,2.35,2.35,0,0,1-1.42,2.48v0c1,.32,1.78,1.13,1.78,2.9,0,2-.76,3.73-3.38,3.73a3,3,0,0,1-3.22-3.21h1.8c.05.86.4,1.71,1.46,1.71s1.46-.94,1.46-2.18c0-1.55-.58-2.09-1.94-2.09h-.52V7.59h.49c1.13,0,1.66-.38,1.66-1.75,0-1-.25-1.62-1.21-1.62s-1.24,1.06-1.28,1.71Z" transform="translate(-48.07 0)"/><rect class="cls-8" x="418.82" y="226.76" width="49.44" height="19.05" rx="3.37" ry="3.37"/><path class="cls-7" d="M474.82,235.17v-2.67h1.76v2.67Zm0,6.3v-2.67h1.76v2.67Z" transform="translate(-48.07 0)"/><path class="cls-7" d="M478.17,238.07a3,3,0,0,1,1.46-2.9,2.73,2.73,0,0,1-1.17-2.5,2.92,2.92,0,0,1,3.1-3.19,2.77,2.77,0,0,1,3,3c0,1.55-.58,2.32-1.21,2.63.77.36,1.48,1.19,1.48,3a3.19,3.19,0,0,1-3.4,3.53C479.28,241.64,478.17,240.25,478.17,238.07Zm4.79,0c0-1.46-.49-2.11-1.48-2.11S480,236.7,480,238s.43,2.12,1.48,2.12S483,239.38,483,238.05Zm-2.72-5.42c0,1.17.36,1.82,1.28,1.82s1.26-.58,1.26-1.78c0-1-.36-1.73-1.28-1.73S480.24,231.68,480.24,232.63Z" transform="translate(-48.07 0)"/><path class="cls-7" d="M492.82,235.42c0,4.5-1,6.21-3.35,6.21s-3.35-1.84-3.35-6.21c0-4.7,1.35-6,3.4-6S492.82,230.92,492.82,235.42Zm-4.81-.05c0,3.1.2,4.72,1.48,4.72s1.46-1.55,1.46-4.68-.25-4.36-1.46-4.36S488,232.22,488,235.37Z" transform="translate(-48.07 0)"/><path class="cls-7" d="M494.17,238.07a3,3,0,0,1,1.46-2.9,2.73,2.73,0,0,1-1.17-2.5,2.92,2.92,0,0,1,3.1-3.19,2.77,2.77,0,0,1,3,3c0,1.55-.58,2.32-1.21,2.63.77.36,1.48,1.19,1.48,3a3.18,3.18,0,0,1-3.4,3.53C495.28,241.64,494.17,240.25,494.17,238.07Zm4.79,0c0-1.46-.49-2.11-1.48-2.11S496,236.7,496,238s.43,2.12,1.48,2.12S499,239.38,499,238.05Zm-2.72-5.42c0,1.17.36,1.82,1.28,1.82s1.26-.58,1.26-1.78c0-1-.36-1.73-1.28-1.73S496.24,231.68,496.24,232.63Z" transform="translate(-48.07 0)"/><path class="cls-7" d="M508.82,235.42c0,4.5-1,6.21-3.35,6.21s-3.35-1.84-3.35-6.21c0-4.7,1.35-6,3.4-6S508.82,230.92,508.82,235.42Zm-4.81-.05c0,3.1.2,4.72,1.48,4.72s1.46-1.55,1.46-4.68-.25-4.36-1.46-4.36S504,232.22,504,235.37Z" transform="translate(-48.07 0)"/><rect class="cls-8" x="424.63" y="466.52" width="38.6" height="19.05" rx="2.98" ry="2.98"/><path class="cls-7" d="M477,474.94v-2.67h1.76v2.67Zm0,6.3v-2.67h1.76v2.67Z" transform="translate(-48.07 0)"/><path class="cls-7" d="M480.58,472.46a2.92,2.92,0,0,1,3.1-3.22,2.69,2.69,0,0,1,3,3,2.35,2.35,0,0,1-1.42,2.49v0c1,.32,1.78,1.13,1.78,2.9,0,2-.76,3.73-3.38,3.73a3,3,0,0,1-3.22-3.21h1.8c.05.86.4,1.71,1.46,1.71s1.46-.94,1.46-2.18c0-1.55-.58-2.09-1.94-2.09h-.52v-1.53h.49c1.13,0,1.66-.38,1.66-1.75,0-1-.25-1.62-1.21-1.62s-1.24,1.06-1.28,1.71Z" transform="translate(-48.07 0)"/><path class="cls-7" d="M495,475.19c0,4.5-1,6.21-3.35,6.21s-3.35-1.84-3.35-6.21c0-4.7,1.35-6,3.4-6S495,470.69,495,475.19Zm-4.81-.05c0,3.1.2,4.72,1.48,4.72s1.46-1.55,1.46-4.68-.25-4.36-1.46-4.36S490.19,472,490.19,475.14Z" transform="translate(-48.07 0)"/><path class="cls-7" d="M496.35,472.46a2.92,2.92,0,0,1,3.1-3.22,2.69,2.69,0,0,1,3,3,2.35,2.35,0,0,1-1.42,2.49v0c1,.32,1.78,1.13,1.78,2.9,0,2-.76,3.73-3.38,3.73a3,3,0,0,1-3.22-3.21H498c.05.86.4,1.71,1.46,1.71s1.46-.94,1.46-2.18c0-1.55-.58-2.09-1.94-2.09h-.52v-1.53h.49c1.13,0,1.66-.38,1.66-1.75,0-1-.25-1.62-1.21-1.62s-1.24,1.06-1.28,1.71Z" transform="translate(-48.07 0)"/><path class="cls-7" d="M505.06,481.24v-9.71a6,6,0,0,1-1.42.2V470.3a4.21,4.21,0,0,0,2-1h1.26v11.9Z" transform="translate(-48.07 0)"/><path class="cls-2" d="M430.38,554.51a4.29,4.29,0,0,1-4.49,3.79c-3.12,0-4.71-2.09-4.71-5.81,0-3.23,1.63-5.79,4.82-5.79a4.08,4.08,0,0,1,4.36,3.89h-1.83a2.51,2.51,0,0,0-2.55-2.4c-2,0-2.93,1.78-2.93,4.25,0,2.86,1,4.36,2.9,4.36,1.54,0,2.2-1,2.6-2.29Z" transform="translate(-48.07 0)"/><path class="cls-2" d="M432.64,558.07v-16h1.83v16Z" transform="translate(-48.07 0)"/><path class="cls-2" d="M446.75,552.31c0,3.23-1.41,6-5,6s-4.84-2.84-4.84-5.9,1.61-5.68,5-5.68C445.05,546.7,446.75,549.09,446.75,552.31Zm-7.94,0c0,2.55,1.06,4.4,3.06,4.4s3-1.8,3-4.42c0-2.44-1-4.12-3-4.12S438.8,549.91,438.8,552.35Z" transform="translate(-48.07 0)"/><path class="cls-2" d="M457.64,554.92c0,1.39,0,2.62,0,3.15h-1.76a11.35,11.35,0,0,1-.09-1.78,3.32,3.32,0,0,1-3.28,2c-1.74,0-3.41-.84-3.41-3.85v-7.5h1.8v7.15c0,1.45.46,2.62,2.16,2.62s2.68-1.08,2.68-3.54v-6.23h1.85Z" transform="translate(-48.07 0)"/><path class="cls-2" d="M469.52,542.05v13.11c0,1.08,0,2.22,0,2.9h-1.78c0-.29-.07-1-.07-1.65-.59,1.3-1.5,1.85-3.32,1.85-2.88,0-4.33-2.44-4.33-5.76s1.67-5.81,4.71-5.81c1.8,0,2.64.73,2.95,1.34v-6Zm-4.64,14.65c2.4,0,2.9-1.83,2.9-4.44,0-3.08-.9-4-2.79-4s-3,1.5-3,4.16S463.11,556.71,464.87,556.71Z" transform="translate(-48.07 0)"/><path class="cls-2" d="M477.48,551.6v1.63h-5.35V551.6Z" transform="translate(-48.07 0)"/><path class="cls-2" d="M481,554.84a2.3,2.3,0,0,0,2.51,2c1.54,0,2.13-.81,2.13-1.76s-.7-1.54-2.6-2c-2.73-.75-3.43-1.74-3.43-3.24s1-3.1,3.74-3.1,3.74,1.5,3.89,3.21h-1.8a2,2,0,0,0-2.18-1.78c-1.25,0-1.83.59-1.83,1.52s.42,1.3,2.29,1.78c2.84.77,3.74,1.72,3.74,3.5,0,2.07-1.63,3.34-4,3.34s-4-1.1-4.25-3.43Z" transform="translate(-48.07 0)"/><path class="cls-2" d="M496.86,556.46a3.27,3.27,0,0,1-3.32,1.8c-2.11,0-4.36-1.54-4.36-5.83,0-3.5,2.07-5.74,4.62-5.74,1.94,0,2.75.77,3,1.56a9.67,9.67,0,0,1,.07-1.34h1.78c0,.84,0,1.74,0,3.34v12.23h-1.78Zm-2.79.24c2.16,0,2.82-1.45,2.82-4.4,0-2.73-.59-4-2.77-4-2,0-3,1.76-3,4.14C491.08,555.08,492.11,556.71,494.07,556.71Z" transform="translate(-48.07 0)"/><path class="cls-2" d="M501.81,558.07v-16h1.83v16Z" transform="translate(-48.07 0)"/><path class="cls-2" d="M511.56,551.6v1.63h-5.35V551.6Z" transform="translate(-48.07 0)"/><path class="cls-2" d="M514.15,562.49v-12.3c0-1.52,0-2.6,0-3.28h1.8c0,.37,0,1.17,0,1.8a3.59,3.59,0,0,1,3.48-2c2.44,0,4.18,1.91,4.18,5.61s-2,5.94-4.62,5.94a3.17,3.17,0,0,1-3-1.52v5.76Zm4.71-14.21c-2.29,0-3,1.56-3,4.25,0,2.46.46,4.16,2.86,4.16,1.87,0,3-1.54,3-4.31S520.64,548.28,518.86,548.28Z" transform="translate(-48.07 0)"/><path class="cls-2" d="M526.05,550.7c0-1.78,0-3.23,0-3.78h1.78c0,.53,0,1.23,0,2.27a3.75,3.75,0,0,1,3.61-2.46v1.89c-2.51.09-3.56,1.56-3.56,4v5.48h-1.83Z" transform="translate(-48.07 0)"/><path class="cls-2" d="M542.27,552.31c0,3.23-1.41,6-5,6s-4.84-2.84-4.84-5.9,1.61-5.68,5-5.68C540.58,546.7,542.27,549.09,542.27,552.31Zm-7.94,0c0,2.55,1.06,4.4,3.06,4.4s3-1.8,3-4.42c0-2.44-1-4.12-3-4.12S534.33,549.91,534.33,552.35Z" transform="translate(-48.07 0)"/><path class="cls-2" d="M545.19,546.92c1.45,2.44,2.16,3.59,2.51,4.22h0c.44-.75,1.36-2.18,2.62-4.22h2l-3.56,5.35,3.59,5.81h-2.09c-1.28-2.16-2.2-3.67-2.62-4.4h0c-.33.62-1.3,2.29-2.6,4.4h-2l3.54-5.54-3.43-5.61Z" transform="translate(-48.07 0)"/><path class="cls-2" d="M555,546.92c1.74,5.41,2.64,8.12,2.93,9.46h0c.33-1.23,1.32-4.64,2.84-9.46h1.89l-3.92,11.66c-1.12,3.39-2,4.09-4,4.09a4.93,4.93,0,0,1-1-.09V561a6.94,6.94,0,0,0,1,.07c1.34,0,1.76-1.08,2.29-2.66l-4-11.51Z" transform="translate(-48.07 0)"/><rect class="cls-4" x="358.39" y="535.39" width="170.28" height="31.36" rx="8.04" ry="8.04"/><line class="cls-5" x1="443.93" y1="524.05" x2="443.93" y2="535.05"/></svg>